<svg width="1080" height="200" viewBox="0 0 1080 200" fill="none" xmlns="http://www.w3.org/2000/svg">
<path fill-rule="evenodd" clip-rule="evenodd" d="M1027.3 112.001C1028.86 112.013 1030.5 112.164 1031.82 112.956C1033.13 113.741 1033.46 115.468 1034.64 116.415C1035.88 117.408 1038.25 117.174 1038.87 118.603C1039.5 120.085 1037.64 121.599 1037.55 123.199C1037.48 124.544 1038.55 125.784 1038.4 127.124C1038.24 128.494 1037.72 129.918 1036.69 130.885C1035.66 131.857 1034.07 131.972 1032.72 132.472C1031.54 132.909 1030.38 133.321 1029.17 133.671C1027.87 134.047 1026.6 134.473 1025.24 134.629C1023.64 134.814 1021.91 135.335 1020.45 134.677C1019.02 134.032 1018.11 132.559 1017.54 131.151C1016.99 129.795 1017.69 128.231 1017.27 126.834C1016.85 125.43 1015.3 124.47 1015.08 123.024C1014.85 121.567 1015.1 119.921 1016.01 118.736C1016.95 117.528 1018.92 117.553 1020.09 116.543C1021.25 115.536 1021.44 113.711 1022.75 112.887C1024.06 112.066 1025.74 111.989 1027.3 112.001Z" fill="#228B22" fill-opacity="0.8"/>
<path fill-rule="evenodd" clip-rule="evenodd" d="M1035.9 119.349C1037.4 119.048 1038.87 117.545 1040.26 118.136C1041.7 118.748 1041.11 121.076 1042.28 122.059C1043.45 123.042 1045.83 122.329 1046.71 123.545C1047.53 124.692 1046.37 126.24 1046.26 127.61C1046.17 128.804 1046.47 130.013 1046.13 131.17C1045.79 132.331 1044.96 133.288 1044.3 134.322C1043.58 135.439 1043.26 136.958 1042.01 137.564C1040.74 138.18 1039.14 137.26 1037.73 137.501C1036.32 137.741 1035.2 138.867 1033.77 138.965C1032.28 139.067 1030.54 138.995 1029.45 138.067C1028.3 137.092 1028.89 135.163 1027.93 134.02C1026.97 132.868 1024.42 133.001 1024.05 131.591C1023.67 130.149 1025.59 129.022 1026.26 127.671C1026.74 126.682 1027.15 125.686 1027.48 124.641C1027.87 123.408 1027.45 121.874 1028.38 120.914C1029.28 119.982 1030.89 120.027 1032.21 119.751C1033.43 119.497 1034.68 119.593 1035.9 119.349Z" fill="#7CFC00" fill-opacity="0.5"/>
<path fill-rule="evenodd" clip-rule="evenodd" d="M1045.59 112.085C1047.38 112.22 1049.05 110.789 1050.81 111.085C1052.57 111.379 1053.81 112.783 1055.28 113.71C1056.89 114.725 1059.37 115.146 1059.97 116.856C1060.61 118.683 1058.48 120.454 1058.33 122.371C1058.2 123.929 1059.12 125.39 1059.17 126.952C1059.22 128.771 1060.04 131.076 1058.62 132.343C1057.07 133.722 1054.3 132.422 1052.28 133.1C1050.73 133.619 1049.92 135.346 1048.35 135.792C1046.77 136.24 1045.09 135.723 1043.44 135.604C1041.68 135.477 1039.7 135.938 1038.22 135.061C1036.73 134.18 1036.65 132.139 1035.48 130.907C1034.24 129.596 1031.79 129.242 1031.16 127.6C1030.55 125.983 1032.23 124.324 1032.32 122.612C1032.42 120.844 1031.11 119.051 1031.73 117.376C1032.35 115.728 1034.29 114.86 1035.67 113.666C1037.05 112.468 1038.07 110.564 1039.93 110.267C1041.92 109.95 1043.58 111.934 1045.59 112.085Z" fill="#006400" fill-opacity="0.8"/>
</svg>
