<svg width="1080" height="200" viewBox="0 0 1080 200" fill="none" xmlns="http://www.w3.org/2000/svg">
<path fill-rule="evenodd" clip-rule="evenodd" d="M28.3016 121.001C29.858 121.013 31.5048 121.164 32.822 121.956C34.1271 122.741 34.4579 124.468 35.6394 125.415C36.878 126.408 39.254 126.174 39.8678 127.603C40.5042 129.085 38.6409 130.599 38.5527 132.199C38.4785 133.544 39.5473 134.784 39.3978 136.124C39.2448 137.494 38.7213 138.918 37.6946 139.885C36.6638 140.857 35.0716 140.972 33.7218 141.472C32.5417 141.909 31.3841 142.321 30.1725 142.671C28.8673 143.047 27.5967 143.473 26.2432 143.629C24.6442 143.814 22.9088 144.335 21.4526 143.677C20.0237 143.032 19.112 141.559 18.5407 140.151C17.9908 138.795 18.6936 137.231 18.2706 135.834C17.8452 134.43 16.303 133.47 16.0786 132.024C15.8526 130.567 16.0987 128.921 17.0141 127.736C17.9475 126.528 19.923 126.553 21.0862 125.543C22.2469 124.536 22.4436 122.711 23.753 121.887C25.0563 121.066 26.741 120.989 28.3016 121.001Z" fill="#228B22" fill-opacity="0.8"/>
<path fill-rule="evenodd" clip-rule="evenodd" d="M36.8974 128.349C38.3953 128.048 39.871 126.545 41.2626 127.136C42.7031 127.748 42.1068 130.076 43.2786 131.059C44.4491 132.042 46.8343 131.329 47.7074 132.545C48.5303 133.692 47.3669 135.24 47.2639 136.61C47.1741 137.804 47.473 139.013 47.1341 140.17C46.7938 141.331 45.9637 142.288 45.2964 143.322C44.5754 144.439 44.259 145.958 43.0085 146.564C41.7355 147.18 40.1443 146.26 38.7296 146.501C37.3178 146.741 36.1992 147.867 34.7674 147.965C33.2824 148.067 31.5418 147.995 30.4471 147.067C29.2963 146.092 29.885 144.163 28.9331 143.02C27.9727 141.868 25.4223 142.001 25.0495 140.591C24.6686 139.149 26.5882 138.022 27.2555 136.671C27.7444 135.682 28.1538 134.686 28.4823 133.641C28.8701 132.408 28.453 130.874 29.3808 129.914C30.2822 128.982 31.8895 129.027 33.2128 128.751C34.4294 128.497 35.6786 128.593 36.8974 128.349Z" fill="#7CFC00" fill-opacity="0.5"/>
<path fill-rule="evenodd" clip-rule="evenodd" d="M46.5894 121.085C48.376 121.22 50.0492 119.789 51.8124 120.085C53.5654 120.379 54.8083 121.783 56.2781 122.71C57.8881 123.725 60.3668 124.146 60.9689 125.856C61.6118 127.683 59.4785 129.454 59.3265 131.371C59.2029 132.929 60.1227 134.39 60.1683 135.952C60.2213 137.771 61.0379 140.076 59.6172 141.343C58.0715 142.722 55.2963 141.422 53.2757 142.1C51.7306 142.619 50.9219 144.346 49.3501 144.792C47.7691 145.24 46.0853 144.723 44.4374 144.604C42.6768 144.477 40.7039 144.938 39.218 144.061C37.7252 143.18 37.646 141.139 36.4813 139.907C35.2409 138.596 32.7873 138.242 32.162 136.6C31.5464 134.983 33.2271 133.324 33.3229 131.612C33.4218 129.844 32.1084 128.051 32.734 126.376C33.3496 124.728 35.2872 123.86 36.6652 122.666C38.0468 121.468 39.0668 119.564 40.9348 119.267C42.9208 118.95 44.5816 120.934 46.5894 121.085Z" fill="#006400" fill-opacity="0.8"/>
</svg>
