<svg width="1080" height="200" viewBox="0 0 1080 200" fill="none" xmlns="http://www.w3.org/2000/svg">
<path fill-rule="evenodd" clip-rule="evenodd" d="M449.302 110.001C450.858 110.013 452.505 110.164 453.822 110.956C455.127 111.741 455.458 113.468 456.639 114.415C457.878 115.408 460.254 115.174 460.868 116.603C461.504 118.085 459.641 119.599 459.553 121.199C459.478 122.544 460.547 123.784 460.398 125.124C460.245 126.494 459.721 127.918 458.695 128.885C457.664 129.857 456.072 129.972 454.722 130.472C453.542 130.909 452.384 131.321 451.172 131.671C449.867 132.047 448.597 132.473 447.243 132.629C445.644 132.814 443.909 133.335 442.453 132.677C441.024 132.032 440.112 130.559 439.541 129.151C438.991 127.795 439.694 126.231 439.271 124.834C438.845 123.43 437.303 122.47 437.079 121.024C436.853 119.567 437.099 117.921 438.014 116.736C438.947 115.528 440.923 115.553 442.086 114.543C443.247 113.536 443.444 111.711 444.753 110.887C446.056 110.066 447.741 109.989 449.302 110.001Z" fill="#228B22" fill-opacity="0.8"/>
<path fill-rule="evenodd" clip-rule="evenodd" d="M457.897 117.349C459.395 117.048 460.871 115.545 462.263 116.136C463.703 116.748 463.107 119.076 464.279 120.059C465.449 121.042 467.834 120.329 468.707 121.545C469.53 122.692 468.367 124.24 468.264 125.61C468.174 126.804 468.473 128.013 468.134 129.17C467.794 130.331 466.964 131.288 466.296 132.322C465.575 133.439 465.259 134.958 464.008 135.564C462.736 136.18 461.144 135.26 459.73 135.501C458.318 135.741 457.199 136.867 455.767 136.965C454.282 137.067 452.542 136.995 451.447 136.067C450.296 135.092 450.885 133.163 449.933 132.02C448.973 130.868 446.422 131.001 446.05 129.591C445.669 128.149 447.588 127.022 448.255 125.671C448.744 124.682 449.154 123.686 449.482 122.641C449.87 121.408 449.453 119.874 450.381 118.914C451.282 117.982 452.89 118.027 454.213 117.751C455.429 117.497 456.679 117.593 457.897 117.349Z" fill="#7CFC00" fill-opacity="0.5"/>
<path fill-rule="evenodd" clip-rule="evenodd" d="M467.589 110.085C469.376 110.22 471.049 108.789 472.812 109.085C474.565 109.379 475.808 110.783 477.278 111.71C478.888 112.725 481.367 113.146 481.969 114.856C482.612 116.683 480.478 118.454 480.326 120.371C480.203 121.929 481.123 123.39 481.168 124.952C481.221 126.771 482.038 129.076 480.617 130.343C479.071 131.722 476.296 130.422 474.276 131.1C472.731 131.619 471.922 133.346 470.35 133.792C468.769 134.24 467.085 133.723 465.437 133.604C463.677 133.477 461.704 133.938 460.218 133.061C458.725 132.18 458.646 130.139 457.481 128.907C456.241 127.596 453.787 127.242 453.162 125.6C452.546 123.983 454.227 122.324 454.323 120.612C454.422 118.844 453.108 117.051 453.734 115.376C454.35 113.728 456.287 112.86 457.665 111.666C459.047 110.468 460.067 108.564 461.935 108.267C463.921 107.95 465.582 109.934 467.589 110.085Z" fill="#006400" fill-opacity="0.8"/>
</svg>
