<svg width="1080" height="200" viewBox="0 0 1080 200" fill="none" xmlns="http://www.w3.org/2000/svg">
<path fill-rule="evenodd" clip-rule="evenodd" d="M136.302 73.001C137.858 73.0129 139.505 73.1636 140.822 73.9559C142.127 74.7409 142.458 76.4678 143.639 77.4148C144.878 78.4075 147.254 78.1738 147.868 79.603C148.504 81.085 146.641 82.5993 146.553 84.199C146.478 85.5443 147.547 86.7842 147.398 88.1238C147.245 89.4939 146.721 90.9178 145.695 91.8853C144.664 92.8566 143.072 92.9724 141.722 93.4722C140.542 93.9093 139.384 94.3214 138.172 94.6709C136.867 95.0474 135.597 95.4731 134.243 95.6293C132.644 95.8138 130.909 96.335 129.453 95.6773C128.024 95.032 127.112 93.5588 126.541 92.1507C125.991 90.7952 126.694 89.2306 126.271 87.8341C125.845 86.4301 124.303 85.4702 124.079 84.0244C123.853 82.5675 124.099 80.9205 125.014 79.7357C125.947 78.5276 127.923 78.5527 129.086 77.5431C130.247 76.5357 130.444 74.711 131.753 73.8867C133.056 73.0663 134.741 72.9891 136.302 73.001Z" fill="#228B22" fill-opacity="0.8"/>
<path fill-rule="evenodd" clip-rule="evenodd" d="M144.897 80.3486C146.395 80.0482 147.871 78.5453 149.263 79.1364C150.703 79.7483 150.107 82.0757 151.279 83.0592C152.449 84.0415 154.834 83.3295 155.707 84.5454C156.53 85.6916 155.367 87.2397 155.264 88.6097C155.174 89.8043 155.473 91.0133 155.134 92.1695C154.794 93.3305 153.964 94.2878 153.296 95.322C152.575 96.4393 152.259 97.9583 151.008 98.5637C149.736 99.1799 148.144 98.2601 146.73 98.5007C145.318 98.7408 144.199 99.8673 142.767 99.9652C141.282 100.067 139.542 99.9952 138.447 99.0673C137.296 98.092 137.885 96.1625 136.933 95.0203C135.973 93.8679 133.422 94.0014 133.05 92.5908C132.669 91.1492 134.588 90.0223 135.255 88.6714C135.744 87.6817 136.154 86.6856 136.482 85.6414C136.87 84.4085 136.453 82.8735 137.381 81.9144C138.282 80.9824 139.89 81.0265 141.213 80.7509C142.429 80.4975 143.679 80.5931 144.897 80.3486Z" fill="#7CFC00" fill-opacity="0.5"/>
<path fill-rule="evenodd" clip-rule="evenodd" d="M154.589 73.0854C156.376 73.2198 158.049 71.7892 159.812 72.0849C161.565 72.3788 162.808 73.7834 164.278 74.7098C165.888 75.7246 168.367 76.1459 168.969 77.8563C169.612 79.683 167.478 81.454 167.326 83.3706C167.203 84.9293 168.123 86.3899 168.168 87.9519C168.221 89.7714 169.038 92.076 167.617 93.3433C166.071 94.7221 163.296 93.4215 161.276 94.1002C159.731 94.6192 158.922 96.3465 157.35 96.7918C155.769 97.2398 154.085 96.7232 152.437 96.6044C150.677 96.4774 148.704 96.9384 147.218 96.0611C145.725 95.1798 145.646 93.1388 144.481 91.9072C143.241 90.5957 140.787 90.2424 140.162 88.6002C139.546 86.9834 141.227 85.3245 141.323 83.6122C141.422 81.8443 140.108 80.051 140.734 78.3764C141.35 76.7285 143.287 75.8603 144.665 74.6656C146.047 73.4678 147.067 71.5641 148.935 71.2666C150.921 70.9504 152.582 72.9343 154.589 73.0854Z" fill="#006400" fill-opacity="0.8"/>
</svg>
