<svg width="1080" height="200" viewBox="0 0 1080 200" fill="none" xmlns="http://www.w3.org/2000/svg">
<path fill-rule="evenodd" clip-rule="evenodd" d="M676.302 87.001C677.858 87.0129 679.505 87.1636 680.822 87.9559C682.127 88.7409 682.458 90.4678 683.639 91.4148C684.878 92.4075 687.254 92.1738 687.868 93.603C688.504 95.085 686.641 96.5993 686.553 98.199C686.478 99.5443 687.547 100.784 687.398 102.124C687.245 103.494 686.721 104.918 685.695 105.885C684.664 106.857 683.072 106.972 681.722 107.472C680.542 107.909 679.384 108.321 678.172 108.671C676.867 109.047 675.597 109.473 674.243 109.629C672.644 109.814 670.909 110.335 669.453 109.677C668.024 109.032 667.112 107.559 666.541 106.151C665.991 104.795 666.694 103.231 666.271 101.834C665.845 100.43 664.303 99.4702 664.079 98.0244C663.853 96.5675 664.099 94.9205 665.014 93.7357C665.947 92.5276 667.923 92.5527 669.086 91.5431C670.247 90.5357 670.444 88.711 671.753 87.8867C673.056 87.0663 674.741 86.9891 676.302 87.001Z" fill="#228B22" fill-opacity="0.8"/>
<path fill-rule="evenodd" clip-rule="evenodd" d="M684.897 94.3486C686.395 94.0482 687.871 92.5453 689.263 93.1364C690.703 93.7483 690.107 96.0757 691.279 97.0592C692.449 98.0415 694.834 97.3295 695.707 98.5454C696.53 99.6916 695.367 101.24 695.264 102.61C695.174 103.804 695.473 105.013 695.134 106.17C694.794 107.331 693.964 108.288 693.296 109.322C692.575 110.439 692.259 111.958 691.008 112.564C689.736 113.18 688.144 112.26 686.73 112.501C685.318 112.741 684.199 113.867 682.767 113.965C681.282 114.067 679.542 113.995 678.447 113.067C677.296 112.092 677.885 110.163 676.933 109.02C675.973 107.868 673.422 108.001 673.05 106.591C672.669 105.149 674.588 104.022 675.255 102.671C675.744 101.682 676.154 100.686 676.482 99.6414C676.87 98.4085 676.453 96.8735 677.381 95.9144C678.282 94.9824 679.89 95.0265 681.213 94.7509C682.429 94.4975 683.679 94.5931 684.897 94.3486Z" fill="#7CFC00" fill-opacity="0.5"/>
<path fill-rule="evenodd" clip-rule="evenodd" d="M694.589 87.0854C696.376 87.2198 698.049 85.7892 699.812 86.0849C701.565 86.3788 702.808 87.7834 704.278 88.7098C705.888 89.7246 708.367 90.1459 708.969 91.8563C709.612 93.683 707.478 95.454 707.326 97.3706C707.203 98.9293 708.123 100.39 708.168 101.952C708.221 103.771 709.038 106.076 707.617 107.343C706.071 108.722 703.296 107.422 701.276 108.1C699.731 108.619 698.922 110.346 697.35 110.792C695.769 111.24 694.085 110.723 692.437 110.604C690.677 110.477 688.704 110.938 687.218 110.061C685.725 109.18 685.646 107.139 684.481 105.907C683.241 104.596 680.787 104.242 680.162 102.6C679.546 100.983 681.227 99.3245 681.323 97.6122C681.422 95.8443 680.108 94.051 680.734 92.3764C681.35 90.7285 683.287 89.8603 684.665 88.6656C686.047 87.4678 687.067 85.5641 688.935 85.2666C690.921 84.9504 692.582 86.9343 694.589 87.0854Z" fill="#006400" fill-opacity="0.8"/>
</svg>
