<svg width="1080" height="200" viewBox="0 0 1080 200" fill="none" xmlns="http://www.w3.org/2000/svg">
<path fill-rule="evenodd" clip-rule="evenodd" d="M877.302 102.001C878.858 102.013 880.505 102.164 881.822 102.956C883.127 103.741 883.458 105.468 884.639 106.415C885.878 107.408 888.254 107.174 888.868 108.603C889.504 110.085 887.641 111.6 887.553 113.199C887.478 114.544 888.547 115.784 888.398 117.124C888.245 118.494 887.721 119.918 886.695 120.886C885.664 121.857 884.072 121.973 882.722 122.472C881.542 122.91 880.384 123.322 879.172 123.671C877.867 124.048 876.597 124.473 875.243 124.63C873.644 124.814 871.909 125.335 870.453 124.678C869.024 124.032 868.112 122.559 867.541 121.151C866.991 119.795 867.694 118.231 867.271 116.834C866.845 115.43 865.303 114.47 865.079 113.025C864.853 111.568 865.099 109.921 866.014 108.736C866.947 107.528 868.923 107.553 870.086 106.543C871.247 105.536 871.444 103.711 872.753 102.887C874.056 102.067 875.741 101.989 877.302 102.001Z" fill="#228B22" fill-opacity="0.8"/>
<path fill-rule="evenodd" clip-rule="evenodd" d="M885.897 109.349C887.395 109.048 888.871 107.546 890.263 108.137C891.703 108.749 891.107 111.076 892.279 112.059C893.449 113.042 895.834 112.33 896.707 113.546C897.53 114.692 896.367 116.24 896.264 117.61C896.174 118.805 896.473 120.014 896.134 121.17C895.794 122.331 894.964 123.288 894.296 124.322C893.575 125.44 893.259 126.959 892.008 127.564C890.736 128.18 889.144 127.26 887.73 127.501C886.318 127.741 885.199 128.868 883.767 128.965C882.282 129.067 880.542 128.995 879.447 128.068C878.296 127.092 878.885 125.163 877.933 124.021C876.973 122.868 874.422 123.002 874.05 121.591C873.669 120.149 875.588 119.023 876.255 117.672C876.744 116.682 877.154 115.686 877.482 114.642C877.87 113.409 877.453 111.874 878.381 110.915C879.282 109.983 880.89 110.027 882.213 109.751C883.429 109.498 884.679 109.593 885.897 109.349Z" fill="#7CFC00" fill-opacity="0.5"/>
<path fill-rule="evenodd" clip-rule="evenodd" d="M895.589 102.086C897.376 102.22 899.049 100.789 900.812 101.085C902.565 101.379 903.808 102.784 905.278 103.71C906.888 104.725 909.367 105.146 909.969 106.857C910.612 108.683 908.478 110.454 908.326 112.371C908.203 113.93 909.123 115.39 909.168 116.952C909.221 118.772 910.038 121.076 908.617 122.344C907.071 123.722 904.296 122.422 902.276 123.1C900.731 123.619 899.922 125.347 898.35 125.792C896.769 126.24 895.085 125.723 893.437 125.605C891.677 125.478 889.704 125.939 888.218 125.061C886.725 124.18 886.646 122.139 885.481 120.907C884.241 119.596 881.787 119.243 881.162 117.6C880.546 115.984 882.227 114.325 882.323 112.612C882.422 110.845 881.108 109.051 881.734 107.377C882.35 105.729 884.287 104.86 885.665 103.666C887.047 102.468 888.067 100.564 889.935 100.267C891.921 99.9506 893.582 101.935 895.589 102.086Z" fill="#006400" fill-opacity="0.8"/>
</svg>
