<svg width="600" height="500" viewBox="0 0 600 500" fill="none" xmlns="http://www.w3.org/2000/svg">
<path d="M284.071 197.339L330.222 242.339H237.222L284.071 197.339Z" fill="#F6E2AE"/>
<rect x="234.222" y="242.339" width="101" height="56" fill="#F6E2AE"/>
<path d="M284.538 192.385L287.731 195.445L234.242 249.076L234.183 241.313L284.538 192.385Z" fill="#E3AA93"/>
<path d="M283.827 197.824L287.021 194.765L335.227 241.613L335.197 248.382L283.827 197.824Z" fill="#E3AA93"/>
<path d="M284.888 180.737L346.722 241.784L335.223 241.784L278.846 186.951L284.888 180.737Z" fill="#864136"/>
<path d="M222.061 241.696L284.397 180.028L290.581 186.443L234.187 241.696L222.061 241.696Z" fill="#864136"/>
<rect x="266.12" y="230.399" width="38.5" height="43.5" fill="#94CEF4" stroke="black" stroke-width="1.5"/>
<path d="M266.87 267.649H303.87V273.163H266.87V267.649Z" fill="#48A4DA"/>
<path d="M291.87 231.149L303.87 231.054L303.87 237.649L266.87 267.649L266.87 251.649L291.87 231.149Z" fill="#BDE3FD"/>
<path d="M303.87 243.649L303.863 246.155L303.849 250.667L274.807 273.161L270.792 273.173L266.877 273.174L266.877 272.5L303.87 243.649Z" fill="#BDE3FD"/>
<path d="M266.259 252.149H304.37" stroke="black" stroke-width="1.5"/>
</svg>
