<svg width="600" height="500" viewBox="0 0 600 500" fill="none" xmlns="http://www.w3.org/2000/svg">
<path d="M374.071 197.339L420.222 242.339H327.222L374.071 197.339Z" fill="#F6E2AE"/>
<rect x="324.222" y="242.339" width="101" height="56" fill="#F6E2AE"/>
<path d="M374.538 192.385L377.731 195.445L324.242 249.076L324.183 241.313L374.538 192.385Z" fill="#E3AA93"/>
<path d="M373.827 197.824L377.021 194.765L425.227 241.613L425.197 248.382L373.827 197.824Z" fill="#E3AA93"/>
<path d="M374.888 180.737L436.722 241.784L425.223 241.784L368.846 186.951L374.888 180.737Z" fill="#864136"/>
<path d="M312.061 241.696L374.397 180.028L380.581 186.443L324.187 241.696L312.061 241.696Z" fill="#864136"/>
<rect x="356.12" y="230.399" width="38.5" height="43.5" fill="#94CEF4" stroke="black" stroke-width="1.5"/>
<path d="M356.87 267.649H393.87V273.163H356.87V267.649Z" fill="#48A4DA"/>
<path d="M381.87 231.149L393.87 231.054L393.87 237.649L356.87 267.649L356.87 251.649L381.87 231.149Z" fill="#BDE3FD"/>
<path d="M393.87 243.649L393.863 246.155L393.849 250.667L364.807 273.161L360.792 273.173L356.877 273.174L356.877 272.5L393.87 243.649Z" fill="#BDE3FD"/>
<path d="M356.259 252.149H394.37" stroke="black" stroke-width="1.5"/>
</svg>
