<svg width="1080" height="213" viewBox="0 0 1080 213" fill="none" xmlns="http://www.w3.org/2000/svg">
<path d="M655 185C651.8 176.6 647.667 171.833 646 170.5M655 185C655 173.4 658.667 166.167 660.5 164M655 185C653.4 171.4 651 165.333 650 164M655 185C656.773 173.4 661.405 170.5 663.5 170.5" stroke="#4E342E" stroke-opacity="0.3"/>
<path d="M916 153C912.8 144.6 908.667 139.833 907 138.5M916 153C916 141.4 919.667 134.167 921.5 132M916 153C914.4 139.4 912 133.333 911 132M916 153C917.773 141.4 922.405 138.5 924.5 138.5" stroke="#4E342E" stroke-opacity="0.3"/>
<path d="M720 132C716.8 123.6 712.667 118.833 711 117.5M720 132C720 120.4 723.667 113.167 725.5 111M720 132C718.4 118.4 716 112.333 715 111M720 132C721.773 120.4 726.405 117.5 728.5 117.5" stroke="#4E342E" stroke-opacity="0.3"/>
<path d="M273 30C269.8 21.6 265.667 16.8333 264 15.5M273 30C273 18.4 276.667 11.1667 278.5 9M273 30C271.4 16.4 269 10.3333 268 9M273 30C274.773 18.4 279.405 15.5 281.5 15.5" stroke="#4E342E" stroke-opacity="0.3"/>
<path d="M593 153C589.8 144.6 585.667 139.833 584 138.5M593 153C593 141.4 596.667 134.167 598.5 132M593 153C591.4 139.4 589 133.333 588 132M593 153C594.773 141.4 599.405 138.5 601.5 138.5" stroke="#4E342E" stroke-opacity="0.3"/>
<path d="M178.5 190.5C176.5 182.1 172.667 176.333 171 174.5M178.5 190.5C178.5 182.5 180.833 176.5 182 174.5M178.5 190.5C176.1 177.7 179.833 172.5 182 171.5M178.5 190.5C176.5 176.5 172.667 167.667 171 165" stroke="#4E342E" stroke-opacity="0.3"/>
<path d="M854 201.5C852 193.1 848.167 187.333 846.5 185.5M854 201.5C854 193.5 856.333 187.5 857.5 185.5M854 201.5C851.6 188.7 855.333 183.5 857.5 182.5M854 201.5C852 187.5 848.167 178.667 846.5 176" stroke="#4E342E" stroke-opacity="0.3"/>
<path d="M1001.5 163.5C999.5 155.1 995.667 149.333 994 147.5M1001.5 163.5C1001.5 155.5 1003.83 149.5 1005 147.5M1001.5 163.5C999.1 150.7 1002.83 145.5 1005 144.5M1001.5 163.5C999.5 149.5 995.667 140.667 994 138" stroke="#4E342E" stroke-opacity="0.3"/>
<path d="M680.5 188.5C678.5 180.1 674.667 174.333 673 172.5M680.5 188.5C680.5 180.5 682.833 174.5 684 172.5M680.5 188.5C678.1 175.7 681.833 170.5 684 169.5M680.5 188.5C678.5 174.5 674.667 165.667 673 163" stroke="#4E342E" stroke-opacity="0.3"/>
<path d="M465 212.5C463 204.1 459.167 198.333 457.5 196.5M465 212.5C465 204.5 467.333 198.5 468.5 196.5M465 212.5C462.6 199.7 466.333 194.5 468.5 193.5M465 212.5C463 198.5 459.167 189.667 457.5 187" stroke="#4E342E" stroke-opacity="0.3"/>
<path d="M1028.5 106.5C1026.5 98.1 1022.67 92.3333 1021 90.5M1028.5 106.5C1028.5 98.5 1030.83 92.5 1032 90.5M1028.5 106.5C1026.1 93.7 1029.83 88.5 1032 87.5M1028.5 106.5C1026.5 92.5 1022.67 83.6667 1021 81" stroke="#4E342E" stroke-opacity="0.3"/>
<path d="M1048.5 43.5C1046.5 35.1 1042.67 29.3333 1041 27.5M1048.5 43.5C1048.5 35.5 1050.83 29.5 1052 27.5M1048.5 43.5C1046.1 30.7 1049.83 25.5 1052 24.5M1048.5 43.5C1046.5 29.5 1042.67 20.6667 1041 18" stroke="#4E342E" stroke-opacity="0.3"/>
</svg>
