<svg width="1080" height="200" viewBox="0 0 1080 200" fill="none" xmlns="http://www.w3.org/2000/svg">
<g filter="url(#filter0_f_113_33)">
<path d="M243.773 87.2358C241.967 82.5463 238.505 79.327 237 78.3035M243.773 87.2358C243.773 82.7696 245.88 79.4201 246.934 78.3035M243.773 87.2358C241.606 80.09 244.977 77.187 246.934 76.6287M243.773 87.2358C241.967 79.4201 238.505 74.4887 237 73" stroke="#4E342E" stroke-opacity="0.3" stroke-width="0.5"/>
</g>
<g filter="url(#filter1_f_113_33)">
<path d="M840.998 109.469C836.302 99.1967 829.709 96.6287 827 96.6287M840.998 109.469C840.998 102.77 844.008 98.1174 845.513 96.6287M840.998 109.469C840.998 99.1967 844.008 94.2096 845.513 93M840.998 109.469C839.191 98.5268 834.526 93.9304 832.418 93" stroke="#4E342E" stroke-opacity="0.3" stroke-width="0.5"/>
</g>
<g filter="url(#filter2_f_113_33)">
<path d="M981.128 47.6101C977.877 41.3575 974.355 39.2361 973 38.957M981.128 47.6101C981.128 42.4741 983.536 39.7013 984.74 38.957M981.128 47.6101C981.128 40.6876 978.418 38.957 977.064 38.957M981.128 47.6101C981.128 38.9012 983.536 36.91 984.74 37.0031M981.128 47.6101C977.877 39.1245 974.355 37.0031 973 37.0031" stroke="#4E342E" stroke-opacity="0.3" stroke-width="0.5"/>
</g>
<g filter="url(#filter3_f_113_33)">
<path d="M70.1276 32.6101C66.8766 26.3575 63.3546 24.2361 62 23.957M70.1276 32.6101C70.1276 27.4741 72.5358 24.7013 73.7399 23.957M70.1276 32.6101C70.1276 25.6876 67.4184 23.957 66.0638 23.957M70.1276 32.6101C70.1276 23.9012 72.5358 21.91 73.7399 22.0031M70.1276 32.6101C66.8766 24.1245 63.3546 22.0031 62 22.0031" stroke="#4E342E" stroke-opacity="0.3" stroke-width="0.5"/>
</g>
<g filter="url(#filter4_f_113_33)">
<path d="M624.707 95.2358C622.178 85.6336 615.827 81.7444 612.967 81M624.707 95.2358C624.707 87.6434 627.115 84.0705 628.319 83.2331M624.707 95.2358C615.315 88.3133 609.656 86.2105 608 86.0244M624.707 95.2358C627.597 89.8764 632.533 88.1644 634.641 87.9783" stroke="#4E342E" stroke-opacity="0.3" stroke-width="0.5"/>
</g>
<g filter="url(#filter5_f_113_33)">
<path d="M976.707 115.236C974.178 105.634 967.827 101.744 964.967 101M976.707 115.236C976.707 107.643 979.115 104.07 980.319 103.233M976.707 115.236C967.315 108.313 961.656 106.21 960 106.024M976.707 115.236C979.597 109.876 984.533 108.164 986.641 107.978" stroke="#4E342E" stroke-opacity="0.3" stroke-width="0.5"/>
</g>
<g filter="url(#filter6_f_113_33)">
<path d="M440.707 73.2358C438.178 63.6336 431.827 59.7444 428.967 59M440.707 73.2358C440.707 65.6434 443.115 62.0705 444.319 61.2331M440.707 73.2358C431.315 66.3133 425.656 64.2105 424 64.0244M440.707 73.2358C443.597 67.8764 448.533 66.1644 450.641 65.9783" stroke="#4E342E" stroke-opacity="0.3" stroke-width="0.5"/>
</g>
<g filter="url(#filter7_f_113_33)">
<path d="M862.707 62.2358C860.178 52.6336 853.827 48.7444 850.967 48M862.707 62.2358C862.707 54.6434 865.115 51.0705 866.319 50.2331M862.707 62.2358C853.315 55.3133 847.656 53.2105 846 53.0244M862.707 62.2358C865.597 56.8764 870.533 55.1644 872.641 54.9783" stroke="#4E342E" stroke-opacity="0.3" stroke-width="0.5"/>
</g>
<g filter="url(#filter8_f_113_33)">
<path d="M543.707 115.236C541.178 105.634 534.827 101.744 531.967 101M543.707 115.236C543.707 107.643 546.115 104.07 547.319 103.233M543.707 115.236C534.315 108.313 528.656 106.21 527 106.024M543.707 115.236C546.597 109.876 551.533 108.164 553.641 107.978" stroke="#4E342E" stroke-opacity="0.3" stroke-width="0.5"/>
</g>
<g filter="url(#filter9_f_113_33)">
<path d="M225.998 139.469C221.302 129.197 214.709 126.629 212 126.629M225.998 139.469C225.998 132.77 229.008 128.117 230.513 126.629M225.998 139.469C225.998 129.197 229.008 124.21 230.513 123M225.998 139.469C224.191 128.527 219.526 123.93 217.418 123" stroke="#4E342E" stroke-opacity="0.3" stroke-width="0.5"/>
</g>
<g filter="url(#filter10_f_113_33)">
<path d="M365.998 64.4688C361.302 54.1967 354.709 51.6287 352 51.6287M365.998 64.4688C365.998 57.7696 369.008 53.1174 370.513 51.6287M365.998 64.4688C365.998 54.1967 369.008 49.2096 370.513 48M365.998 64.4688C364.191 53.5268 359.526 48.9304 357.418 48" stroke="#4E342E" stroke-opacity="0.3" stroke-width="0.5"/>
</g>
<g filter="url(#filter11_f_113_33)">
<path d="M921.998 96.4688C917.302 86.1967 910.709 83.6287 908 83.6287M921.998 96.4688C921.998 89.7696 925.008 85.1174 926.513 83.6287M921.998 96.4688C921.998 86.1967 925.008 81.2096 926.513 80M921.998 96.4688C920.191 85.5268 915.526 80.9304 913.418 80" stroke="#4E342E" stroke-opacity="0.3" stroke-width="0.5"/>
</g>
<g filter="url(#filter12_f_113_33)">
<path d="M787.998 48.4688C783.302 38.1967 776.709 35.6287 774 35.6287M787.998 48.4688C787.998 41.7696 791.008 37.1174 792.513 35.6287M787.998 48.4688C787.998 38.1967 791.008 33.2096 792.513 32M787.998 48.4688C786.191 37.5268 781.526 32.9304 779.418 32" stroke="#4E342E" stroke-opacity="0.3" stroke-width="0.5"/>
</g>
<g filter="url(#filter13_f_113_33)">
<path d="M656.998 129.469C652.302 119.197 645.709 116.629 643 116.629M656.998 129.469C656.998 122.77 660.008 118.117 661.513 116.629M656.998 129.469C656.998 119.197 660.008 114.21 661.513 113M656.998 129.469C655.191 118.527 650.526 113.93 648.418 113" stroke="#4E342E" stroke-opacity="0.3" stroke-width="0.5"/>
</g>
<g filter="url(#filter14_f_113_33)">
<path d="M29.9976 73.4688C25.3016 63.1967 18.7092 60.6287 16 60.6287M29.9976 73.4688C29.9976 66.7696 33.0078 62.1174 34.5129 60.6287M29.9976 73.4688C29.9976 63.1967 33.0078 58.2096 34.5129 57M29.9976 73.4688C28.1914 62.5268 23.5256 57.9304 21.4184 57" stroke="#4E342E" stroke-opacity="0.3" stroke-width="0.5"/>
</g>
<g filter="url(#filter15_f_113_33)">
<path d="M498.998 89.4688C494.302 79.1967 487.709 76.6287 485 76.6287M498.998 89.4688C498.998 82.7696 502.008 78.1174 503.513 76.6287M498.998 89.4688C498.998 79.1967 502.008 74.2096 503.513 73M498.998 89.4688C497.191 78.5268 492.526 73.9304 490.418 73" stroke="#4E342E" stroke-opacity="0.3" stroke-width="0.5"/>
</g>
<path d="M57.7068 120.509C55.1782 110.907 48.8266 107.018 45.9669 106.274M57.7068 120.509C57.7068 112.917 60.115 109.344 61.319 108.507M57.7068 120.509C48.3149 113.587 42.6556 111.484 41 111.298M57.7068 120.509C60.5966 115.15 65.5334 113.438 67.6405 113.252" stroke="#4E342E" stroke-opacity="0.3"/>
<path d="M141.692 41.2358C139.164 31.6336 132.812 27.7444 129.952 27M141.692 41.2358C141.692 33.6434 144.1 30.0705 145.304 29.2331M141.692 41.2358C132.3 34.3133 126.641 32.2105 124.985 32.0244M141.692 41.2358C144.582 35.8764 149.519 34.1644 151.626 33.9783" stroke="#4E342E" stroke-opacity="0.3"/>
<path d="M117.309 129.163C114.419 124.473 110.687 121.812 109.182 121.068M117.309 129.163C117.309 122.687 120.621 118.649 122.276 117.439M117.309 129.163C115.864 121.57 113.697 118.183 112.794 117.439M117.309 129.163C118.91 122.687 123.094 121.068 124.985 121.068" stroke="#4E342E" stroke-opacity="0.3"/>
<defs>
<filter id="filter0_f_113_33" x="235.824" y="71.8223" width="12.2913" height="16.5034" filterUnits="userSpaceOnUse" color-interpolation-filters="sRGB">
<feFlood flood-opacity="0" result="BackgroundImageFix"/>
<feBlend mode="normal" in="SourceGraphic" in2="BackgroundImageFix" result="shape"/>
<feGaussianBlur stdDeviation="0.5" result="effect1_foregroundBlur_113_33"/>
</filter>
<filter id="filter1_f_113_33" x="826" y="91.7712" width="20.6887" height="18.8015" filterUnits="userSpaceOnUse" color-interpolation-filters="sRGB">
<feFlood flood-opacity="0" result="BackgroundImageFix"/>
<feBlend mode="normal" in="SourceGraphic" in2="BackgroundImageFix" result="shape"/>
<feGaussianBlur stdDeviation="0.5" result="effect1_foregroundBlur_113_33"/>
</filter>
<filter id="filter2_f_113_33" x="971.949" y="35.75" width="13.9219" height="12.9753" filterUnits="userSpaceOnUse" color-interpolation-filters="sRGB">
<feFlood flood-opacity="0" result="BackgroundImageFix"/>
<feBlend mode="normal" in="SourceGraphic" in2="BackgroundImageFix" result="shape"/>
<feGaussianBlur stdDeviation="0.5" result="effect1_foregroundBlur_113_33"/>
</filter>
<filter id="filter3_f_113_33" x="60.9495" y="20.75" width="13.9219" height="12.9753" filterUnits="userSpaceOnUse" color-interpolation-filters="sRGB">
<feFlood flood-opacity="0" result="BackgroundImageFix"/>
<feBlend mode="normal" in="SourceGraphic" in2="BackgroundImageFix" result="shape"/>
<feGaussianBlur stdDeviation="0.5" result="effect1_foregroundBlur_113_33"/>
</filter>
<filter id="filter4_f_113_33" x="606.972" y="79.7581" width="28.6904" height="16.8499" filterUnits="userSpaceOnUse" color-interpolation-filters="sRGB">
<feFlood flood-opacity="0" result="BackgroundImageFix"/>
<feBlend mode="normal" in="SourceGraphic" in2="BackgroundImageFix" result="shape"/>
<feGaussianBlur stdDeviation="0.5" result="effect1_foregroundBlur_113_33"/>
</filter>
<filter id="filter5_f_113_33" x="958.972" y="99.7581" width="28.6904" height="16.8499" filterUnits="userSpaceOnUse" color-interpolation-filters="sRGB">
<feFlood flood-opacity="0" result="BackgroundImageFix"/>
<feBlend mode="normal" in="SourceGraphic" in2="BackgroundImageFix" result="shape"/>
<feGaussianBlur stdDeviation="0.5" result="effect1_foregroundBlur_113_33"/>
</filter>
<filter id="filter6_f_113_33" x="422.972" y="57.7581" width="28.6904" height="16.8499" filterUnits="userSpaceOnUse" color-interpolation-filters="sRGB">
<feFlood flood-opacity="0" result="BackgroundImageFix"/>
<feBlend mode="normal" in="SourceGraphic" in2="BackgroundImageFix" result="shape"/>
<feGaussianBlur stdDeviation="0.5" result="effect1_foregroundBlur_113_33"/>
</filter>
<filter id="filter7_f_113_33" x="844.972" y="46.7581" width="28.6904" height="16.8499" filterUnits="userSpaceOnUse" color-interpolation-filters="sRGB">
<feFlood flood-opacity="0" result="BackgroundImageFix"/>
<feBlend mode="normal" in="SourceGraphic" in2="BackgroundImageFix" result="shape"/>
<feGaussianBlur stdDeviation="0.5" result="effect1_foregroundBlur_113_33"/>
</filter>
<filter id="filter8_f_113_33" x="525.972" y="99.7581" width="28.6904" height="16.8499" filterUnits="userSpaceOnUse" color-interpolation-filters="sRGB">
<feFlood flood-opacity="0" result="BackgroundImageFix"/>
<feBlend mode="normal" in="SourceGraphic" in2="BackgroundImageFix" result="shape"/>
<feGaussianBlur stdDeviation="0.5" result="effect1_foregroundBlur_113_33"/>
</filter>
<filter id="filter9_f_113_33" x="211" y="121.771" width="20.6887" height="18.8015" filterUnits="userSpaceOnUse" color-interpolation-filters="sRGB">
<feFlood flood-opacity="0" result="BackgroundImageFix"/>
<feBlend mode="normal" in="SourceGraphic" in2="BackgroundImageFix" result="shape"/>
<feGaussianBlur stdDeviation="0.5" result="effect1_foregroundBlur_113_33"/>
</filter>
<filter id="filter10_f_113_33" x="351" y="46.7712" width="20.6887" height="18.8015" filterUnits="userSpaceOnUse" color-interpolation-filters="sRGB">
<feFlood flood-opacity="0" result="BackgroundImageFix"/>
<feBlend mode="normal" in="SourceGraphic" in2="BackgroundImageFix" result="shape"/>
<feGaussianBlur stdDeviation="0.5" result="effect1_foregroundBlur_113_33"/>
</filter>
<filter id="filter11_f_113_33" x="907" y="78.7712" width="20.6887" height="18.8015" filterUnits="userSpaceOnUse" color-interpolation-filters="sRGB">
<feFlood flood-opacity="0" result="BackgroundImageFix"/>
<feBlend mode="normal" in="SourceGraphic" in2="BackgroundImageFix" result="shape"/>
<feGaussianBlur stdDeviation="0.5" result="effect1_foregroundBlur_113_33"/>
</filter>
<filter id="filter12_f_113_33" x="773" y="30.7712" width="20.6887" height="18.8015" filterUnits="userSpaceOnUse" color-interpolation-filters="sRGB">
<feFlood flood-opacity="0" result="BackgroundImageFix"/>
<feBlend mode="normal" in="SourceGraphic" in2="BackgroundImageFix" result="shape"/>
<feGaussianBlur stdDeviation="0.5" result="effect1_foregroundBlur_113_33"/>
</filter>
<filter id="filter13_f_113_33" x="642" y="111.771" width="20.6887" height="18.8015" filterUnits="userSpaceOnUse" color-interpolation-filters="sRGB">
<feFlood flood-opacity="0" result="BackgroundImageFix"/>
<feBlend mode="normal" in="SourceGraphic" in2="BackgroundImageFix" result="shape"/>
<feGaussianBlur stdDeviation="0.5" result="effect1_foregroundBlur_113_33"/>
</filter>
<filter id="filter14_f_113_33" x="15" y="55.7712" width="20.6887" height="18.8015" filterUnits="userSpaceOnUse" color-interpolation-filters="sRGB">
<feFlood flood-opacity="0" result="BackgroundImageFix"/>
<feBlend mode="normal" in="SourceGraphic" in2="BackgroundImageFix" result="shape"/>
<feGaussianBlur stdDeviation="0.5" result="effect1_foregroundBlur_113_33"/>
</filter>
<filter id="filter15_f_113_33" x="484" y="71.7712" width="20.6887" height="18.8015" filterUnits="userSpaceOnUse" color-interpolation-filters="sRGB">
<feFlood flood-opacity="0" result="BackgroundImageFix"/>
<feBlend mode="normal" in="SourceGraphic" in2="BackgroundImageFix" result="shape"/>
<feGaussianBlur stdDeviation="0.5" result="effect1_foregroundBlur_113_33"/>
</filter>
</defs>
</svg>
