<svg width="1080" height="201" viewBox="0 0 1080 201" fill="none" xmlns="http://www.w3.org/2000/svg">
<path d="M770.5 105.5C768.5 97.1 764.667 91.3333 763 89.5M770.5 105.5C770.5 97.5 772.833 91.5 774 89.5M770.5 105.5C768.1 92.7 771.833 87.5 774 86.5M770.5 105.5C768.5 91.5 764.667 82.6667 763 80" stroke="#4E342E" stroke-opacity="0.3"/>
<path d="M358.5 127.5C356.5 119.1 352.667 113.333 351 111.5M358.5 127.5C358.5 119.5 360.833 113.5 362 111.5M358.5 127.5C356.1 114.7 359.833 109.5 362 108.5M358.5 127.5C356.5 113.5 352.667 104.667 351 102" stroke="#4E342E" stroke-opacity="0.3"/>
<path d="M423.5 187.5C421.5 179.1 417.667 173.333 416 171.5M423.5 187.5C423.5 179.5 425.833 173.5 427 171.5M423.5 187.5C421.1 174.7 424.833 169.5 427 168.5M423.5 187.5C421.5 173.5 417.667 164.667 416 162" stroke="#4E342E" stroke-opacity="0.3"/>
<path d="M218.5 50.5C216.5 42.1 212.667 36.3333 211 34.5M218.5 50.5C218.5 42.5 220.833 36.5 222 34.5M218.5 50.5C216.1 37.7 219.833 32.5 222 31.5M218.5 50.5C216.5 36.5 212.667 27.6667 211 25" stroke="#4E342E" stroke-opacity="0.3"/>
<path d="M160 90.0055C156.4 78.8055 152.5 75.0055 151 74.5055M160 90.0055C160 80.8055 162.667 75.8388 164 74.5055M160 90.0055C160 77.6055 157 74.5055 155.5 74.5055M160 90.0055C160 74.4055 162.667 70.8388 164 71.0055M160 90.0055C156.4 74.8055 152.5 71.0055 151 71.0055" stroke="#4E342E" stroke-opacity="0.3"/>
<path d="M828 151.005C824.4 139.805 820.5 136.005 819 135.505M828 151.005C828 141.805 830.667 136.839 832 135.505M828 151.005C828 138.605 825 135.505 823.5 135.505M828 151.005C828 135.405 830.667 131.839 832 132.005M828 151.005C824.4 135.805 820.5 132.005 819 132.005" stroke="#4E342E" stroke-opacity="0.3"/>
<path d="M491 147.005C487.4 135.805 483.5 132.005 482 131.505M491 147.005C491 137.805 493.667 132.839 495 131.505M491 147.005C491 134.605 488 131.505 486.5 131.505M491 147.005C491 131.405 493.667 127.839 495 128.005M491 147.005C487.4 131.805 483.5 128.005 482 128.005" stroke="#4E342E" stroke-opacity="0.3"/>
<path d="M170 156C164 140 157.5 134 155 133M170 156C166.8 137.6 168.667 129.667 170 128M170 156C170 141.2 176 134.5 179 133M170 156C171.2 137.6 173.833 129.667 175 128M170 156C164.4 144.414 159.333 140.839 157.5 140.5M170 156C174 147.2 177.667 142 179 140.5M171.5 158C165.9 138 159.833 128.333 157.5 126" stroke="#4E342E" stroke-opacity="0.3"/>
<path d="M784 198C778 182 771.5 176 769 175M784 198C780.8 179.6 782.667 171.667 784 170M784 198C784 183.2 790 176.5 793 175M784 198C785.2 179.6 787.833 171.667 789 170M784 198C778.4 186.414 773.333 182.839 771.5 182.5M784 198C788 189.2 791.667 184 793 182.5M785.5 200C779.9 180 773.833 170.333 771.5 168" stroke="#4E342E" stroke-opacity="0.3"/>
<path d="M1053 189C1047 173 1040.5 167 1038 166M1053 189C1049.8 170.6 1051.67 162.667 1053 161M1053 189C1053 174.2 1059 167.5 1062 166M1053 189C1054.2 170.6 1056.83 162.667 1058 161M1053 189C1047.4 177.414 1042.33 173.839 1040.5 173.5M1053 189C1057 180.2 1060.67 175 1062 173.5M1054.5 191C1048.9 171 1042.83 161.333 1040.5 159" stroke="#4E342E" stroke-opacity="0.3"/>
<path d="M926 36C920 20 913.5 14 911 13M926 36C922.8 17.6 924.667 9.66667 926 8M926 36C926 21.2 932 14.5 935 13M926 36C927.2 17.6 929.833 9.66667 931 8M926 36C920.4 24.4135 915.333 20.839 913.5 20.5M926 36C930 27.2 933.667 22 935 20.5M927.5 38C921.9 18 915.833 8.33333 913.5 6" stroke="#4E342E" stroke-opacity="0.3"/>
<path d="M425 136C419 120 412.5 114 410 113M425 136C421.8 117.6 423.667 109.667 425 108M425 136C425 121.2 431 114.5 434 113M425 136C426.2 117.6 428.833 109.667 430 108M425 136C419.4 124.414 414.333 120.839 412.5 120.5M425 136C429 127.2 432.667 122 434 120.5M426.5 138C420.9 118 414.833 108.333 412.5 106" stroke="#4E342E" stroke-opacity="0.3"/>
</svg>
