<svg width="600" height="500" viewBox="0 0 600 500" fill="none" xmlns="http://www.w3.org/2000/svg">
<path d="M390 242L377.5 237H372L372.5 242L386 245L391.5 257.5L403.5 262.5L393.5 256L390 242Z" fill="#4E342E" fill-opacity="0.5"/>
<path d="M521 429L528.5 441V448H519L518.5 434L501 427.5L498 415L502.5 425L521 429Z" fill="#E3AA93" fill-opacity="0.4"/>
<path fill-rule="evenodd" clip-rule="evenodd" d="M486.311 316.896C488.026 314.464 487.707 308.554 490.517 309.027C493.143 309.469 488.391 314.626 489.114 317.368C489.44 318.608 491.516 316.972 492.687 317.26C494.511 317.71 498.891 317.86 497.839 319.518C496.277 321.979 490.694 318.907 489.844 321.741C489.024 324.472 496.897 325.637 495.31 327.948C493.728 330.25 490.854 323.366 488.263 324.042C486.481 324.507 489.558 328.998 487.918 329.877C486.496 330.64 487.05 325.517 485.46 325.545C483.391 325.581 482.988 330.041 480.919 330C479.48 329.971 481.45 326.505 480.406 325.444C479.073 324.091 475.745 325.925 475.094 324.085C474.481 322.348 477.006 320.925 478.439 319.881C479.627 319.017 482.288 320.169 482.553 318.657C482.933 316.485 477.963 314.092 479.671 312.854C481.482 311.541 483.055 315.757 484.957 316.914C485.353 317.155 486.037 317.286 486.311 316.896Z" fill="#864136" fill-opacity="0.51"/>
</svg>
