<svg width="600" height="500" viewBox="0 0 600 500" fill="none" xmlns="http://www.w3.org/2000/svg">
<path d="M186 349.5L183 355H187.5V351L195.5 347.5L196.5 341L194 347L186 349.5Z" fill="#F3D497"/>
<path d="M303.5 438.5L297.5 448H303.5L305 440.5L316 437.5L319 429L326.5 425.5L318.5 428L314.5 436.5L303.5 438.5Z" fill="#EAA86C" fill-opacity="0.4"/>
<path d="M227 253H229.5L232 255.5L227 254L224.5 255H221L224.5 254.5L227 253Z" fill="#864136" fill-opacity="0.4"/>
<path d="M316.5 324L309.5 322H298L307.5 323L315.5 324.5L319 330L327.5 329.5L319.5 329L316.5 324Z" fill="#864136" fill-opacity="0.4"/>
</svg>
