<svg width="600" height="500" viewBox="0 0 600 500" fill="none" xmlns="http://www.w3.org/2000/svg">
<path d="M346.636 367.538L354.615 359.769L338.116 359.689L337.238 360.713L339.162 363.473L336.854 365.644L337.862 369.047L335.957 372.58L340.225 372.046L342.13 368.513L346.636 367.538Z" fill="black" fill-opacity="0.4"/>
<path d="M123.5 313.506L122 312H117.5V314.009L119 314.511L120 315.515H121.5L122.5 316.519H124.5L123.5 315.515V313.506Z" fill="black" fill-opacity="0.4"/>
<path d="M177 395.861L183.5 391.844H191V400.883L189 402.39L185.5 400.883L180 403.896H173L177 400.883V395.861Z" fill="black" fill-opacity="0.4"/>
<path d="M97.5 419.519L99.5 422.532V428.056H89V425.043L91 422.03L90 420.524L91 418.515V415L93.5 417.511L97.5 419.519Z" fill="black" fill-opacity="0.4"/>
<path d="M227.5 401.887L225.5 402.892V412.935H230V410.926L232 408.918V405.905L236 402.892V400.381L237.5 396.866L232.5 397.368L231.5 400.381L227.5 401.887Z" fill="black" fill-opacity="0.4"/>
<path d="M340.5 390.338L336.5 395.861L335 393.853L333.31 390.84L332.5 393.853V395.359V396.364V397.368L330.534 396.464L328 397.368H323L326 399.377H328L330 400.883V401.887L328.5 403.394L326.5 405.865L330 404.9L332.5 404.418V405.403L331.5 407.411L328.5 411.429L332.5 409.42L334.069 407.411L335.5 406.407L336 408.918L337 412.433L338 408.918L338.621 407.311L340.138 408.918L345 412.433L342 408.416V406.588L344 406.909L349 408.416L344.5 405.403L343.172 404.418L346.5 403.896H348.5L351.5 402.39H347L346 400.883L346.5 399.377L349 398.874L352 397.87L348.5 397.368H344.5L346.5 393.572L347.5 390.84L346 392.346L342 395.359L340.138 396.464V392.346L340.5 390.338Z" fill="black" fill-opacity="0.4"/>
</svg>
