<svg width="600" height="500" viewBox="0 0 600 500" fill="none" xmlns="http://www.w3.org/2000/svg">
<path d="M437.636 367.538L445.615 359.769L429.116 359.689L428.238 360.713L430.162 363.473L427.854 365.644L428.862 369.047L426.957 372.58L431.225 372.046L433.13 368.513L437.636 367.538Z" fill="black" fill-opacity="0.4"/>
<path d="M214.5 313.506L213 312H208.5V314.009L210 314.511L211 315.515H212.5L213.5 316.519H215.5L214.5 315.515V313.506Z" fill="black" fill-opacity="0.4"/>
<path d="M268 395.861L274.5 391.844H282V400.883L280 402.39L276.5 400.883L271 403.896H264L268 400.883V395.861Z" fill="black" fill-opacity="0.4"/>
<path d="M188.5 419.519L190.5 422.532V428.056H180V425.043L182 422.03L181 420.524L182 418.515V415L184.5 417.511L188.5 419.519Z" fill="black" fill-opacity="0.4"/>
<path d="M318.5 401.887L316.5 402.892V412.935H321V410.926L323 408.918V405.905L327 402.892V400.381L328.5 396.866L323.5 397.368L322.5 400.381L318.5 401.887Z" fill="black" fill-opacity="0.4"/>
<path d="M431.5 390.338L427.5 395.861L426 393.853L424.31 390.84L423.5 393.853V395.359V396.364V397.368L421.534 396.464L419 397.368H414L417 399.377H419L421 400.883V401.887L419.5 403.394L417.5 405.865L421 404.9L423.5 404.418V405.403L422.5 407.411L419.5 411.429L423.5 409.42L425.069 407.411L426.5 406.407L427 408.918L428 412.433L429 408.918L429.621 407.311L431.138 408.918L436 412.433L433 408.416V406.588L435 406.909L440 408.416L435.5 405.403L434.172 404.418L437.5 403.896H439.5L442.5 402.39H438L437 400.883L437.5 399.377L440 398.874L443 397.87L439.5 397.368H435.5L437.5 393.572L438.5 390.84L437 392.346L433 395.359L431.138 396.464V392.346L431.5 390.338Z" fill="black" fill-opacity="0.4"/>
</svg>
