<svg width="600" height="500" viewBox="0 0 600 500" fill="none" xmlns="http://www.w3.org/2000/svg">
<path d="M96 349.5L93 355H97.5V351L105.5 347.5L106.5 341L104 347L96 349.5Z" fill="#F3D497"/>
<path d="M213.5 438.5L207.5 448H213.5L215 440.5L226 437.5L229 429L236.5 425.5L228.5 428L224.5 436.5L213.5 438.5Z" fill="#EAA86C" fill-opacity="0.4"/>
<path d="M137 253H139.5L142 255.5L137 254L134.5 255H131L134.5 254.5L137 253Z" fill="#864136" fill-opacity="0.4"/>
<path d="M226.5 324L219.5 322H208L217.5 323L225.5 324.5L229 330L237.5 329.5L229.5 329L226.5 324Z" fill="#864136" fill-opacity="0.4"/>
</svg>
