<svg width="600" height="500" viewBox="0 0 600 500" fill="none" xmlns="http://www.w3.org/2000/svg">
<path fill-rule="evenodd" clip-rule="evenodd" d="M324.785 278.971C325.784 279.174 326.087 280.835 326.679 281.842C327.068 282.503 327.054 283.719 327.698 283.92C329.079 284.352 331.327 281.893 331.921 283.482C332.526 285.099 328.364 285.755 328.986 287.363C329.973 289.912 335.321 288.609 334.985 291.401C334.667 294.041 330.688 291.211 328.514 291.295C327.907 291.318 327.028 291.061 326.742 291.717C326.086 293.217 327.124 295.527 326.139 296.726C325.492 297.512 324.122 296.449 323.614 295.522C322.943 294.297 323.939 292.236 323.1 291.178C322.505 290.427 321.283 292.344 320.599 291.718C320.037 291.203 321.457 289.751 320.926 289.187C319.585 287.764 316.279 288.993 316.009 286.843C315.774 284.96 320.029 287.019 320.423 285.176C320.942 282.753 316.692 280.55 317.807 278.451C318.772 276.634 320.866 280.887 322.631 281.019C323.545 281.087 323.881 278.787 324.785 278.971Z" fill="#C4C4C4" fill-opacity="0.7"/>
<path d="M282 268.5L283.5 273.5H304V252.5H294.5L292 253.5L290.5 256.5L285.5 259.5V263.5L282 268.5Z" fill="black" fill-opacity="0.4"/>
<path d="M272.5 237L271.5 233.5L269.25 232L266 230L267 236.5L268 237L270.5 238.5L273 240L274.5 242.5L274 239L272.5 237Z" fill="black" fill-opacity="0.4"/>
</svg>
