<svg width="600" height="500" viewBox="0 0 600 500" fill="none" xmlns="http://www.w3.org/2000/svg">
<path fill-rule="evenodd" clip-rule="evenodd" d="M414.785 278.971C415.784 279.174 416.087 280.835 416.679 281.842C417.068 282.503 417.054 283.719 417.698 283.92C419.079 284.352 421.327 281.893 421.921 283.482C422.526 285.099 418.364 285.755 418.986 287.363C419.973 289.912 425.321 288.609 424.985 291.401C424.667 294.041 420.688 291.211 418.514 291.295C417.907 291.318 417.028 291.061 416.742 291.717C416.086 293.217 417.124 295.527 416.139 296.726C415.492 297.512 414.122 296.449 413.614 295.522C412.943 294.297 413.939 292.236 413.1 291.178C412.505 290.427 411.283 292.344 410.599 291.718C410.037 291.203 411.457 289.751 410.926 289.187C409.585 287.764 406.279 288.993 406.009 286.843C405.774 284.96 410.029 287.019 410.423 285.176C410.942 282.753 406.692 280.55 407.807 278.451C408.772 276.634 410.866 280.887 412.631 281.019C413.545 281.087 413.881 278.787 414.785 278.971Z" fill="#C4C4C4" fill-opacity="0.7"/>
<path d="M372 268.5L373.5 273.5H394V252.5H384.5L382 253.5L380.5 256.5L375.5 259.5V263.5L372 268.5Z" fill="black" fill-opacity="0.4"/>
<path d="M362.5 237L361.5 233.5L359.25 232L356 230L357 236.5L358 237L360.5 238.5L363 240L364.5 242.5L364 239L362.5 237Z" fill="black" fill-opacity="0.4"/>
</svg>
