<svg width="600" height="500" viewBox="0 0 600 500" fill="none" xmlns="http://www.w3.org/2000/svg">
<g filter="url(#filter0_f_136_261)">
<path fill-rule="evenodd" clip-rule="evenodd" d="M274.655 358.433C275.411 358.215 275.723 357.164 276.497 357.02C277.143 356.9 277.798 357.342 278.303 357.753C278.812 358.166 279.681 358.788 279.377 359.361C278.796 360.457 276.096 360.286 276.316 361.501C276.558 362.828 279.799 361.829 280.066 363.151C280.288 364.251 277.341 362.222 276.642 363.113C275.948 363.997 278.741 366.184 277.603 366.289C276.24 366.414 276.312 363.031 274.965 363.267C273.627 363.502 274.959 366.703 273.631 366.986C272.486 367.23 274.4 364.22 273.418 363.597C272.463 362.991 271.295 365.383 270.288 364.864C269.51 364.463 271.654 363.373 271.395 362.554C271.128 361.71 268.761 361.965 269.114 361.151C269.538 360.173 271.428 361.157 272.286 360.502C272.727 360.165 271.888 359.407 272.073 358.892C272.235 358.44 272.708 358.059 273.192 357.973C273.7 357.882 274.159 358.575 274.655 358.433Z" fill="#864136" fill-opacity="0.5"/>
</g>
<g filter="url(#filter1_f_136_261)">
<path fill-rule="evenodd" clip-rule="evenodd" d="M229.547 317.49C230.025 317.34 230.472 316.916 230.961 317.014C231.429 317.108 231.616 317.773 232.047 317.991C232.662 318.303 233.691 317.904 234.001 318.555C234.308 319.201 233.621 319.945 233.272 320.567C233.006 321.041 232.433 321.253 232.208 321.751C232.031 322.146 232.496 322.816 232.153 323.053C231.721 323.351 230.914 322.368 230.64 322.834C230.111 323.734 231.405 325.83 230.426 325.992C229.434 326.157 230.035 323.634 229.175 323.078C228.645 322.735 228.196 324.545 227.664 324.206C227.138 323.87 228.16 322.867 227.907 322.269C227.723 321.835 227.037 322.063 226.654 321.822C226.074 321.457 225.161 321.211 225.082 320.493C225.013 319.869 225.813 319.427 226.37 319.238C226.977 319.032 227.721 319.787 228.255 319.415C228.679 319.121 228.125 318.252 228.42 317.812C228.649 317.47 229.171 317.608 229.547 317.49Z" fill="#4E342E" fill-opacity="0.5"/>
</g>
<path d="M214.078 307.761L216.573 307.612L216.983 306.085L218.644 305.384L219.188 302.747L221.683 302.598L223.203 301.205" stroke="black" stroke-opacity="0.2" stroke-width="0.5" stroke-linecap="round"/>
<path d="M161.441 374.937L162.946 372.362L164.727 372.809L166.342 371.443L169.328 372.389L170.832 369.814L173.078 369" stroke="black" stroke-opacity="0.2" stroke-width="0.5" stroke-linecap="round"/>
<path d="M352.078 360.5L354.078 362L353.578 363.5L354.578 365L353.578 367.5L355.578 369L356.078 371" stroke="black" stroke-opacity="0.2" stroke-width="0.5" stroke-linecap="round"/>
<defs>
<filter id="filter0_f_136_261" x="268.078" y="356" width="13" height="12" filterUnits="userSpaceOnUse" color-interpolation-filters="sRGB">
<feFlood flood-opacity="0" result="BackgroundImageFix"/>
<feBlend mode="normal" in="SourceGraphic" in2="BackgroundImageFix" result="shape"/>
<feGaussianBlur stdDeviation="0.5" result="effect1_foregroundBlur_136_261"/>
</filter>
<filter id="filter1_f_136_261" x="224.078" y="316" width="11" height="11" filterUnits="userSpaceOnUse" color-interpolation-filters="sRGB">
<feFlood flood-opacity="0" result="BackgroundImageFix"/>
<feBlend mode="normal" in="SourceGraphic" in2="BackgroundImageFix" result="shape"/>
<feGaussianBlur stdDeviation="0.5" result="effect1_foregroundBlur_136_261"/>
</filter>
</defs>
</svg>
