<svg width="600" height="500" viewBox="0 0 600 500" fill="none" xmlns="http://www.w3.org/2000/svg">
<g filter="url(#filter0_f_113_13)">
<path fill-rule="evenodd" clip-rule="evenodd" d="M169.232 232.081C172.211 233.102 168.057 239.016 170.882 240.335C173.358 241.491 175.552 234.309 177.605 235.991C179.665 237.678 173.065 239.836 173.289 242.307C173.427 243.82 176.996 242.332 178.274 243.349C179.136 244.036 179.287 245.71 178.42 246.392C177.205 247.35 174.253 245.686 173.624 247.011C172.739 248.876 177.231 251.645 175.368 252.823C173.568 253.961 172.508 249.24 170.298 249.115C168.737 249.026 168.921 251.85 167.475 252.374C166.374 252.773 164.36 252.381 164.13 251.351C163.728 249.553 167.494 247.532 166.091 246.179C164.525 244.669 161.323 247.438 159.204 246.603C158.009 246.132 157.534 243.922 158.57 243.217C160.4 241.972 164.608 244.318 165.384 242.398C166.275 240.193 160.287 238.59 161.313 236.43C162.144 234.684 165.175 240.005 166.998 239.004C169.328 237.724 166.674 231.204 169.232 232.081Z" fill="#4E342E" fill-opacity="0.3"/>
</g>
<g filter="url(#filter1_f_113_13)">
<path fill-rule="evenodd" clip-rule="evenodd" d="M72.5386 334.063C73.7014 334.403 74.259 335.726 74.8761 336.745C75.3383 337.508 74.8234 338.98 75.6863 339.26C77.3112 339.786 79.495 337.5 80.7404 338.645C81.7286 339.553 79.6407 341.076 78.7371 342.064C78.0613 342.804 76.3939 342.666 76.1799 343.633C75.9454 344.694 77.948 345.398 77.7634 346.468C77.6297 347.244 76.0352 346.726 75.5395 347.346C74.7139 348.379 75.4805 351.133 74.1446 350.995C72.5357 350.829 73.2393 347.461 71.7084 346.951C70.4529 346.533 69.5862 349.724 68.429 349.091C67.3028 348.475 69.5205 346.418 68.8112 345.367C68.1651 344.409 66.2178 345.428 65.4013 344.603C64.7743 343.969 64.9493 342.708 65.4648 341.985C66.0744 341.131 67.8341 341.504 68.2848 340.56C68.7531 339.58 67.3986 338.455 67.654 337.403C67.8842 336.454 68.7671 335.758 69.586 335.198C70.4595 334.6 71.5165 333.764 72.5386 334.063Z" fill="#C4C4C4" fill-opacity="0.7"/>
</g>
<g filter="url(#filter2_f_113_13)">
<path fill-rule="evenodd" clip-rule="evenodd" d="M366.766 433.333C367.746 433.497 368.428 432.186 369.392 431.941C370.62 431.63 372.307 430.742 373.148 431.713C374.049 432.753 373.15 434.501 372.769 435.838C372.485 436.836 370.83 437.528 371.219 438.487C371.824 439.978 374.779 439.719 374.992 441.318C375.152 442.522 372.869 442.31 371.796 442.818C371.096 443.149 370.149 443.158 369.719 443.816C368.92 445.039 369.833 447.769 368.416 447.989C366.967 448.215 367.157 444.896 365.762 444.432C364.604 444.047 363.639 446.421 362.487 446.018C361.494 445.671 361.995 443.937 361.553 442.96C361.201 442.18 360.55 441.603 360.15 440.847C359.696 439.987 358.844 439.136 359.025 438.174C359.212 437.176 360.649 436.915 361.061 435.991C361.491 435.026 360.89 433.779 361.396 432.854C361.889 431.953 362.785 430.916 363.787 431.005C365.04 431.117 365.524 433.126 366.766 433.333Z" fill="#C9C7C7" fill-opacity="0.7"/>
</g>
<defs>
<filter id="filter0_f_113_13" x="157" y="231" width="23" height="23" filterUnits="userSpaceOnUse" color-interpolation-filters="sRGB">
<feFlood flood-opacity="0" result="BackgroundImageFix"/>
<feBlend mode="normal" in="SourceGraphic" in2="BackgroundImageFix" result="shape"/>
<feGaussianBlur stdDeviation="0.5" result="effect1_foregroundBlur_113_13"/>
</filter>
<filter id="filter1_f_113_13" x="64" y="333" width="18" height="19" filterUnits="userSpaceOnUse" color-interpolation-filters="sRGB">
<feFlood flood-opacity="0" result="BackgroundImageFix"/>
<feBlend mode="normal" in="SourceGraphic" in2="BackgroundImageFix" result="shape"/>
<feGaussianBlur stdDeviation="0.5" result="effect1_foregroundBlur_113_13"/>
</filter>
<filter id="filter2_f_113_13" x="358" y="430" width="18" height="19" filterUnits="userSpaceOnUse" color-interpolation-filters="sRGB">
<feFlood flood-opacity="0" result="BackgroundImageFix"/>
<feBlend mode="normal" in="SourceGraphic" in2="BackgroundImageFix" result="shape"/>
<feGaussianBlur stdDeviation="0.5" result="effect1_foregroundBlur_113_13"/>
</filter>
</defs>
</svg>
