<svg width="600" height="500" viewBox="0 0 600 500" fill="none" xmlns="http://www.w3.org/2000/svg">
<g filter="url(#filter0_f_136_269)">
<path fill-rule="evenodd" clip-rule="evenodd" d="M259.232 231.081C262.211 232.102 258.057 238.016 260.882 239.335C263.358 240.491 265.552 233.309 267.605 234.991C269.665 236.678 263.065 238.836 263.289 241.307C263.427 242.82 266.996 241.332 268.274 242.349C269.136 243.036 269.287 244.71 268.42 245.392C267.205 246.35 264.253 244.686 263.624 246.011C262.739 247.876 267.231 250.645 265.368 251.823C263.568 252.961 262.508 248.24 260.298 248.115C258.737 248.026 258.921 250.85 257.475 251.374C256.374 251.773 254.36 251.381 254.13 250.351C253.728 248.553 257.494 246.532 256.091 245.179C254.525 243.669 251.323 246.438 249.204 245.603C248.009 245.132 247.534 242.922 248.57 242.217C250.4 240.972 254.608 243.318 255.384 241.398C256.275 239.193 250.287 237.59 251.313 235.43C252.144 233.684 255.175 239.005 256.998 238.004C259.328 236.724 256.674 230.204 259.232 231.081Z" fill="#4E342E" fill-opacity="0.3"/>
</g>
<g filter="url(#filter1_f_136_269)">
<path fill-rule="evenodd" clip-rule="evenodd" d="M162.539 333.063C163.701 333.403 164.259 334.726 164.876 335.745C165.338 336.508 164.823 337.98 165.686 338.26C167.311 338.786 169.495 336.5 170.74 337.645C171.729 338.553 169.641 340.076 168.737 341.064C168.061 341.804 166.394 341.666 166.18 342.633C165.945 343.694 167.948 344.398 167.763 345.468C167.63 346.244 166.035 345.726 165.54 346.346C164.714 347.379 165.481 350.133 164.145 349.995C162.536 349.829 163.239 346.461 161.708 345.951C160.453 345.533 159.586 348.724 158.429 348.091C157.303 347.475 159.521 345.418 158.811 344.367C158.165 343.409 156.218 344.428 155.401 343.603C154.774 342.969 154.949 341.708 155.465 340.985C156.074 340.131 157.834 340.504 158.285 339.56C158.753 338.58 157.399 337.455 157.654 336.403C157.884 335.454 158.767 334.758 159.586 334.198C160.459 333.6 161.517 332.764 162.539 333.063Z" fill="#C4C4C4" fill-opacity="0.7"/>
</g>
<g filter="url(#filter2_f_136_269)">
<path fill-rule="evenodd" clip-rule="evenodd" d="M456.766 432.333C457.746 432.497 458.428 431.186 459.392 430.941C460.62 430.63 462.307 429.742 463.148 430.713C464.049 431.753 463.15 433.501 462.769 434.838C462.485 435.836 460.83 436.528 461.219 437.487C461.824 438.978 464.779 438.719 464.992 440.318C465.152 441.522 462.869 441.31 461.796 441.818C461.096 442.149 460.149 442.158 459.719 442.816C458.92 444.039 459.833 446.769 458.416 446.989C456.967 447.215 457.157 443.896 455.762 443.432C454.604 443.047 453.639 445.421 452.487 445.018C451.494 444.671 451.995 442.937 451.553 441.96C451.201 441.18 450.55 440.603 450.15 439.847C449.696 438.987 448.844 438.136 449.025 437.174C449.212 436.176 450.649 435.915 451.061 434.991C451.491 434.026 450.89 432.779 451.396 431.854C451.889 430.953 452.785 429.916 453.787 430.005C455.04 430.117 455.524 432.126 456.766 432.333Z" fill="#C9C7C7" fill-opacity="0.7"/>
</g>
<defs>
<filter id="filter0_f_136_269" x="247" y="230" width="23" height="23" filterUnits="userSpaceOnUse" color-interpolation-filters="sRGB">
<feFlood flood-opacity="0" result="BackgroundImageFix"/>
<feBlend mode="normal" in="SourceGraphic" in2="BackgroundImageFix" result="shape"/>
<feGaussianBlur stdDeviation="0.5" result="effect1_foregroundBlur_136_269"/>
</filter>
<filter id="filter1_f_136_269" x="154" y="332" width="18" height="19" filterUnits="userSpaceOnUse" color-interpolation-filters="sRGB">
<feFlood flood-opacity="0" result="BackgroundImageFix"/>
<feBlend mode="normal" in="SourceGraphic" in2="BackgroundImageFix" result="shape"/>
<feGaussianBlur stdDeviation="0.5" result="effect1_foregroundBlur_136_269"/>
</filter>
<filter id="filter2_f_136_269" x="448" y="429" width="18" height="19" filterUnits="userSpaceOnUse" color-interpolation-filters="sRGB">
<feFlood flood-opacity="0" result="BackgroundImageFix"/>
<feBlend mode="normal" in="SourceGraphic" in2="BackgroundImageFix" result="shape"/>
<feGaussianBlur stdDeviation="0.5" result="effect1_foregroundBlur_136_269"/>
</filter>
</defs>
</svg>
