<svg width="600" height="500" viewBox="0 0 600 500" fill="none" xmlns="http://www.w3.org/2000/svg">
<g filter="url(#filter0_f_113_10)">
<path fill-rule="evenodd" clip-rule="evenodd" d="M183.655 358.433C184.411 358.215 184.723 357.164 185.497 357.02C186.143 356.9 186.798 357.342 187.303 357.753C187.812 358.166 188.681 358.788 188.377 359.361C187.796 360.457 185.096 360.286 185.316 361.501C185.558 362.828 188.799 361.829 189.066 363.151C189.288 364.251 186.341 362.222 185.642 363.113C184.948 363.997 187.741 366.184 186.603 366.289C185.24 366.414 185.312 363.031 183.965 363.267C182.627 363.502 183.959 366.703 182.631 366.986C181.486 367.23 183.4 364.22 182.418 363.597C181.463 362.991 180.295 365.383 179.288 364.864C178.51 364.463 180.654 363.373 180.395 362.554C180.128 361.71 177.761 361.965 178.114 361.151C178.538 360.173 180.428 361.157 181.286 360.502C181.727 360.165 180.888 359.407 181.073 358.892C181.235 358.44 181.708 358.059 182.192 357.973C182.7 357.882 183.159 358.575 183.655 358.433Z" fill="#864136" fill-opacity="0.5"/>
</g>
<g filter="url(#filter1_f_113_10)">
<path fill-rule="evenodd" clip-rule="evenodd" d="M138.547 317.49C139.025 317.34 139.472 316.916 139.961 317.014C140.429 317.108 140.616 317.773 141.047 317.991C141.662 318.303 142.691 317.904 143.001 318.555C143.308 319.201 142.621 319.945 142.272 320.567C142.006 321.041 141.433 321.253 141.208 321.751C141.031 322.146 141.496 322.816 141.153 323.053C140.721 323.351 139.914 322.368 139.64 322.834C139.111 323.734 140.405 325.83 139.426 325.992C138.434 326.157 139.035 323.634 138.175 323.078C137.645 322.735 137.196 324.545 136.664 324.206C136.138 323.87 137.16 322.867 136.907 322.269C136.723 321.835 136.037 322.063 135.654 321.822C135.074 321.457 134.161 321.211 134.082 320.493C134.013 319.869 134.813 319.427 135.37 319.238C135.977 319.032 136.721 319.787 137.255 319.415C137.679 319.121 137.125 318.252 137.42 317.812C137.649 317.47 138.171 317.608 138.547 317.49Z" fill="#4E342E" fill-opacity="0.5"/>
</g>
<path d="M123.078 307.761L125.573 307.612L125.983 306.085L127.644 305.384L128.188 302.747L130.683 302.598L132.203 301.205" stroke="black" stroke-opacity="0.2" stroke-width="0.5" stroke-linecap="round"/>
<path d="M70.4412 374.937L71.946 372.362L73.7265 372.809L75.3417 371.443L78.3276 372.389L79.8325 369.814L82.0779 369" stroke="black" stroke-opacity="0.2" stroke-width="0.5" stroke-linecap="round"/>
<path d="M261.078 360.5L263.078 362L262.578 363.5L263.578 365L262.578 367.5L264.578 369L265.078 371" stroke="black" stroke-opacity="0.2" stroke-width="0.5" stroke-linecap="round"/>
<defs>
<filter id="filter0_f_113_10" x="177.078" y="356" width="13" height="12" filterUnits="userSpaceOnUse" color-interpolation-filters="sRGB">
<feFlood flood-opacity="0" result="BackgroundImageFix"/>
<feBlend mode="normal" in="SourceGraphic" in2="BackgroundImageFix" result="shape"/>
<feGaussianBlur stdDeviation="0.5" result="effect1_foregroundBlur_113_10"/>
</filter>
<filter id="filter1_f_113_10" x="133.078" y="316" width="11" height="11" filterUnits="userSpaceOnUse" color-interpolation-filters="sRGB">
<feFlood flood-opacity="0" result="BackgroundImageFix"/>
<feBlend mode="normal" in="SourceGraphic" in2="BackgroundImageFix" result="shape"/>
<feGaussianBlur stdDeviation="0.5" result="effect1_foregroundBlur_113_10"/>
</filter>
</defs>
</svg>
