<svg width="600" height="507" viewBox="0 0 600 500" fill="none" xmlns="http://www.w3.org/2000/svg">
<g filter="url(#filter0_d_133_59)">
<rect x="209" y="482.125" width="30" height="16.875" rx="4" fill="url(#paint0_linear_133_59)"/>
</g>
<g filter="url(#filter1_d_133_59)">
<rect x="209" y="445" width="30" height="16.875" rx="4" fill="url(#paint1_linear_133_59)"/>
</g>
<g filter="url(#filter2_d_133_59)">
<rect x="209" y="463.562" width="30" height="16.875" rx="4" fill="url(#paint2_linear_133_59)"/>
</g>
<rect x="166.287" y="202" width="215" height="120" fill="#9D5141"/>
<path d="M145.252 322.001L166.287 202L236.79 241.606L145.252 322.001Z" fill="#9D5141"/>
<path d="M145.251 322.003L163.31 305.95L166.32 303.442L166.326 308.967L166.339 322.011L148.766 322.006L145.251 322.003Z" fill="#9D5141"/>
<path d="M459 202H217.766V322L462 321.5L459 202Z" fill="#9D5141"/>
<path d="M470 321.5L459 202L376 235.847L470 321.5Z" fill="#9D5141"/>
<path d="M297 314H469.432L471 322H297V314Z" fill="#864136"/>
<path d="M225 236L306.642 318.725L299.882 325.329L218.5 242.5L225 236Z" fill="#864136"/>
<path d="M232 243L153.238 322.002L145.255 321.986L146.5 315L225 236L232 243Z" fill="#864136"/>
<rect x="297" y="322" width="172" height="133" fill="#FBD07C"/>
<rect x="297" y="322" width="172" height="10" fill="#EAA86C"/>
<path d="M225.348 256.069L291.348 322.069H158.348L225.348 256.069Z" fill="#F6E2AE"/>
<rect x="153.348" y="322.069" width="144" height="133" fill="#F6E2AE"/>
<path d="M225.348 249.069L229.848 253.569L153.348 333.569L153.348 322.069L225.348 249.069Z" fill="#E3AA93"/>
<path d="M224.347 257.069L228.847 252.569L297.347 322.069L297.347 332.069L224.347 257.069Z" fill="#E3AA93"/>
<rect x="153" y="448" width="316" height="7" fill="#F9E9E9"/>
<rect x="153" y="455" width="316" height="7" fill="#E2D8DA"/>
<rect x="315.721" y="360.057" width="129.5" height="53.5" fill="#94CEF4" stroke="black" stroke-width="1.5"/>
<path d="M316.471 406.307H444.471V412.807H316.471V406.307Z" fill="#48A4DA"/>
<path d="M386.971 360.807L402.471 360.807L412.471 360.807L333.471 412.807L316.471 412.807L316.471 405.807L386.971 360.807Z" fill="#BDE3FD"/>
<path d="M430.971 360.831L435.448 360.831L439.971 360.831L366.971 412.807L363.471 412.807L361.971 412.807L356.471 412.807L430.971 360.831Z" fill="#BDE3FD"/>
<path d="M315.971 386.307L444.971 386.307" stroke="black" stroke-width="1.5"/>
<rect x="253.355" y="355.846" width="28.5" height="72.5" fill="#94CEF4" stroke="black" stroke-width="1.5"/>
<path d="M254.105 420.096H281.105V427.596H254.105L254.105 423.596V420.096Z" fill="#48A4DA"/>
<path d="M281.105 365.096L281.105 372.096L281.105 379.096L254.105 405.096L254.105 391.107L281.105 365.096Z" fill="#BDE3FD"/>
<path d="M281.039 386.596L281.039 388.096L281.039 391.596L281.039 396.096L254.105 422.096L254.105 417.096L254.105 412.596L281.039 386.596Z" fill="#BDE3FD"/>
<path d="M252.605 392.096L281.605 392.096" stroke="black" stroke-width="1.5"/>
<rect x="161.355" y="355.846" width="28.5" height="72.5" fill="#94CEF4" stroke="black" stroke-width="1.5"/>
<path d="M162.105 420.096H189.105V427.596H162.105L162.105 423.596V420.096Z" fill="#48A4DA"/>
<path d="M189.105 365.096L189.105 372.096L189.105 379.096L162.105 405.096L162.105 391.107L189.105 365.096Z" fill="#BDE3FD"/>
<path d="M189.039 386.596L189.039 388.096L189.039 391.596L189.039 396.096L162.105 422.096L162.105 417.096L162.105 412.596L189.039 386.596Z" fill="#BDE3FD"/>
<path d="M160.605 392.096L189.605 392.096" stroke="black" stroke-width="1.5"/>
<circle cx="223" cy="312" r="15.25" fill="#94CEF4" stroke="black" stroke-width="1.5"/>
<path d="M208 312H238" stroke="black" stroke-width="1.5"/>
<path d="M223 297V327" stroke="black" stroke-width="1.5"/>
<rect x="205" y="356" width="38" height="91" fill="#CB7E2E" stroke="#533A1F" stroke-width="2"/>
<rect x="207.75" y="358.75" width="32.5" height="85.5" fill="#CB7E2E" stroke="#B56819" stroke-width="3.5"/>
<path d="M224.5 357L224.5 446M206 399L242 399" stroke="#B56819" stroke-width="3.5"/>
<circle cx="237.5" cy="401.5" r="2.25" fill="#63360C" stroke="#965E24" stroke-width="0.5"/>
<defs>
<filter id="filter0_d_133_59" x="205" y="482.125" width="38" height="24.875" filterUnits="userSpaceOnUse" color-interpolation-filters="sRGB">
<feFlood flood-opacity="0" result="BackgroundImageFix"/>
<feColorMatrix in="SourceAlpha" type="matrix" values="0 0 0 0 0 0 0 0 0 0 0 0 0 0 0 0 0 0 127 0" result="hardAlpha"/>
<feOffset dy="4"/>
<feGaussianBlur stdDeviation="2"/>
<feComposite in2="hardAlpha" operator="out"/>
<feColorMatrix type="matrix" values="0 0 0 0 0 0 0 0 0 0 0 0 0 0 0 0 0 0 0.25 0"/>
<feBlend mode="normal" in2="BackgroundImageFix" result="effect1_dropShadow_133_59"/>
<feBlend mode="normal" in="SourceGraphic" in2="effect1_dropShadow_133_59" result="shape"/>
</filter>
<filter id="filter1_d_133_59" x="205" y="445" width="38" height="24.875" filterUnits="userSpaceOnUse" color-interpolation-filters="sRGB">
<feFlood flood-opacity="0" result="BackgroundImageFix"/>
<feColorMatrix in="SourceAlpha" type="matrix" values="0 0 0 0 0 0 0 0 0 0 0 0 0 0 0 0 0 0 127 0" result="hardAlpha"/>
<feOffset dy="4"/>
<feGaussianBlur stdDeviation="2"/>
<feComposite in2="hardAlpha" operator="out"/>
<feColorMatrix type="matrix" values="0 0 0 0 0 0 0 0 0 0 0 0 0 0 0 0 0 0 0.25 0"/>
<feBlend mode="normal" in2="BackgroundImageFix" result="effect1_dropShadow_133_59"/>
<feBlend mode="normal" in="SourceGraphic" in2="effect1_dropShadow_133_59" result="shape"/>
</filter>
<filter id="filter2_d_133_59" x="205" y="463.562" width="38" height="24.875" filterUnits="userSpaceOnUse" color-interpolation-filters="sRGB">
<feFlood flood-opacity="0" result="BackgroundImageFix"/>
<feColorMatrix in="SourceAlpha" type="matrix" values="0 0 0 0 0 0 0 0 0 0 0 0 0 0 0 0 0 0 127 0" result="hardAlpha"/>
<feOffset dy="4"/>
<feGaussianBlur stdDeviation="2"/>
<feComposite in2="hardAlpha" operator="out"/>
<feColorMatrix type="matrix" values="0 0 0 0 0 0 0 0 0 0 0 0 0 0 0 0 0 0 0.25 0"/>
<feBlend mode="normal" in2="BackgroundImageFix" result="effect1_dropShadow_133_59"/>
<feBlend mode="normal" in="SourceGraphic" in2="effect1_dropShadow_133_59" result="shape"/>
</filter>
<linearGradient id="paint0_linear_133_59" x1="224" y1="482.125" x2="224" y2="499" gradientUnits="userSpaceOnUse">
<stop stop-color="#E0E0E0"/>
<stop offset="1" stop-color="#B0B0B0"/>
</linearGradient>
<linearGradient id="paint1_linear_133_59" x1="224" y1="445" x2="224" y2="461.875" gradientUnits="userSpaceOnUse">
<stop stop-color="#E0E0E0"/>
<stop offset="1" stop-color="#B0B0B0"/>
</linearGradient>
<linearGradient id="paint2_linear_133_59" x1="224" y1="463.562" x2="224" y2="480.437" gradientUnits="userSpaceOnUse">
<stop stop-color="#E0E0E0"/>
<stop offset="1" stop-color="#B0B0B0"/>
</linearGradient>
</defs>
</svg>
