<svg width="600" height="500" viewBox="0 0 600 500" fill="none" xmlns="http://www.w3.org/2000/svg">
<g filter="url(#filter0_d_114_38)">
<rect x="119" y="482.125" width="30" height="16.875" rx="4" fill="url(#paint0_linear_114_38)"/>
</g>
<g filter="url(#filter1_d_114_38)">
<rect x="119" y="445" width="30" height="16.875" rx="4" fill="url(#paint1_linear_114_38)"/>
</g>
<g filter="url(#filter2_d_114_38)">
<rect x="119" y="463.562" width="30" height="16.875" rx="4" fill="url(#paint2_linear_114_38)"/>
</g>
<rect x="76.2873" y="202" width="215" height="120" fill="#9D5141"/>
<path d="M55.2515 322.001L76.2873 202L146.79 241.606L55.2515 322.001Z" fill="#9D5141"/>
<path d="M55.2511 322.003L73.31 305.95L76.32 303.442L76.326 308.967L76.3392 322.011L58.766 322.006L55.2511 322.003Z" fill="#9D5141"/>
<path d="M369 202H127.766V322L372 321.5L369 202Z" fill="#9D5141"/>
<path d="M380 321.5L369 202L286 235.847L380 321.5Z" fill="#9D5141"/>
<path d="M207 314H379.432L381 322H207V314Z" fill="#864136"/>
<path d="M135 236L216.642 318.725L209.882 325.329L128.5 242.5L135 236Z" fill="#864136"/>
<path d="M142 243L63.2385 322.002L55.2555 321.986L56.4999 315L135 236L142 243Z" fill="#864136"/>
<rect x="207" y="322" width="172" height="133" fill="#FBD07C"/>
<rect x="207" y="322" width="172" height="10" fill="#EAA86C"/>
<path d="M135.348 256.069L201.348 322.069H68.3475L135.348 256.069Z" fill="#F6E2AE"/>
<rect x="63.3475" y="322.069" width="144" height="133" fill="#F6E2AE"/>
<path d="M135.348 249.069L139.848 253.569L63.3476 333.569L63.3476 322.069L135.348 249.069Z" fill="#E3AA93"/>
<path d="M134.347 257.069L138.847 252.569L207.347 322.069L207.347 332.069L134.347 257.069Z" fill="#E3AA93"/>
<rect x="63" y="448" width="316" height="7" fill="#F9E9E9"/>
<rect x="63" y="455" width="316" height="7" fill="#E2D8DA"/>
<rect x="225.721" y="360.057" width="129.5" height="53.5" fill="#94CEF4" stroke="black" stroke-width="1.5"/>
<path d="M226.471 406.307H354.471V412.807H226.471V406.307Z" fill="#48A4DA"/>
<path d="M296.971 360.807L312.471 360.807L322.471 360.807L243.471 412.807L226.471 412.807L226.471 405.807L296.971 360.807Z" fill="#BDE3FD"/>
<path d="M340.971 360.831L345.448 360.831L349.971 360.831L276.971 412.807L273.471 412.807L271.971 412.807L266.471 412.807L340.971 360.831Z" fill="#BDE3FD"/>
<path d="M225.971 386.307L354.971 386.307" stroke="black" stroke-width="1.5"/>
<rect x="163.355" y="355.846" width="28.5" height="72.5" fill="#94CEF4" stroke="black" stroke-width="1.5"/>
<path d="M164.105 420.096H191.105V427.596H164.105L164.105 423.596V420.096Z" fill="#48A4DA"/>
<path d="M191.105 365.096L191.105 372.096L191.105 379.096L164.105 405.096L164.105 391.107L191.105 365.096Z" fill="#BDE3FD"/>
<path d="M191.039 386.596L191.039 388.096L191.039 391.596L191.039 396.096L164.105 422.096L164.105 417.096L164.105 412.596L191.039 386.596Z" fill="#BDE3FD"/>
<path d="M162.605 392.096L191.605 392.096" stroke="black" stroke-width="1.5"/>
<rect x="71.3546" y="355.846" width="28.5" height="72.5" fill="#94CEF4" stroke="black" stroke-width="1.5"/>
<path d="M72.1046 420.096H99.1046V427.596H72.1046L72.1046 423.596V420.096Z" fill="#48A4DA"/>
<path d="M99.1046 365.096L99.1045 372.096L99.1046 379.096L72.1046 405.096L72.1046 391.107L99.1046 365.096Z" fill="#BDE3FD"/>
<path d="M99.0389 386.596L99.0389 388.096L99.0389 391.596L99.0389 396.096L72.1046 422.096L72.1046 417.096L72.1046 412.596L99.0389 386.596Z" fill="#BDE3FD"/>
<path d="M70.6046 392.096L99.6046 392.096" stroke="black" stroke-width="1.5"/>
<circle cx="133" cy="312" r="15.25" fill="#94CEF4" stroke="black" stroke-width="1.5"/>
<path d="M118 312H148" stroke="black" stroke-width="1.5"/>
<path d="M133 297V327" stroke="black" stroke-width="1.5"/>
<rect x="115" y="356" width="38" height="91" fill="#CB7E2E" stroke="#533A1F" stroke-width="2"/>
<rect x="117.75" y="358.75" width="32.5" height="85.5" fill="#CB7E2E" stroke="#B56819" stroke-width="3.5"/>
<path d="M134.5 357L134.5 446M116 399L152 399" stroke="#B56819" stroke-width="3.5"/>
<circle cx="147.5" cy="401.5" r="2.25" fill="#63360C" stroke="#965E24" stroke-width="0.5"/>
<defs>
<filter id="filter0_d_114_38" x="115" y="482.125" width="38" height="24.875" filterUnits="userSpaceOnUse" color-interpolation-filters="sRGB">
<feFlood flood-opacity="0" result="BackgroundImageFix"/>
<feColorMatrix in="SourceAlpha" type="matrix" values="0 0 0 0 0 0 0 0 0 0 0 0 0 0 0 0 0 0 127 0" result="hardAlpha"/>
<feOffset dy="4"/>
<feGaussianBlur stdDeviation="2"/>
<feComposite in2="hardAlpha" operator="out"/>
<feColorMatrix type="matrix" values="0 0 0 0 0 0 0 0 0 0 0 0 0 0 0 0 0 0 0.25 0"/>
<feBlend mode="normal" in2="BackgroundImageFix" result="effect1_dropShadow_114_38"/>
<feBlend mode="normal" in="SourceGraphic" in2="effect1_dropShadow_114_38" result="shape"/>
</filter>
<filter id="filter1_d_114_38" x="115" y="445" width="38" height="24.875" filterUnits="userSpaceOnUse" color-interpolation-filters="sRGB">
<feFlood flood-opacity="0" result="BackgroundImageFix"/>
<feColorMatrix in="SourceAlpha" type="matrix" values="0 0 0 0 0 0 0 0 0 0 0 0 0 0 0 0 0 0 127 0" result="hardAlpha"/>
<feOffset dy="4"/>
<feGaussianBlur stdDeviation="2"/>
<feComposite in2="hardAlpha" operator="out"/>
<feColorMatrix type="matrix" values="0 0 0 0 0 0 0 0 0 0 0 0 0 0 0 0 0 0 0.25 0"/>
<feBlend mode="normal" in2="BackgroundImageFix" result="effect1_dropShadow_114_38"/>
<feBlend mode="normal" in="SourceGraphic" in2="effect1_dropShadow_114_38" result="shape"/>
</filter>
<filter id="filter2_d_114_38" x="115" y="463.562" width="38" height="24.875" filterUnits="userSpaceOnUse" color-interpolation-filters="sRGB">
<feFlood flood-opacity="0" result="BackgroundImageFix"/>
<feColorMatrix in="SourceAlpha" type="matrix" values="0 0 0 0 0 0 0 0 0 0 0 0 0 0 0 0 0 0 127 0" result="hardAlpha"/>
<feOffset dy="4"/>
<feGaussianBlur stdDeviation="2"/>
<feComposite in2="hardAlpha" operator="out"/>
<feColorMatrix type="matrix" values="0 0 0 0 0 0 0 0 0 0 0 0 0 0 0 0 0 0 0.25 0"/>
<feBlend mode="normal" in2="BackgroundImageFix" result="effect1_dropShadow_114_38"/>
<feBlend mode="normal" in="SourceGraphic" in2="effect1_dropShadow_114_38" result="shape"/>
</filter>
<linearGradient id="paint0_linear_114_38" x1="134" y1="482.125" x2="134" y2="499" gradientUnits="userSpaceOnUse">
<stop stop-color="#E0E0E0"/>
<stop offset="1" stop-color="#B0B0B0"/>
</linearGradient>
<linearGradient id="paint1_linear_114_38" x1="134" y1="445" x2="134" y2="461.875" gradientUnits="userSpaceOnUse">
<stop stop-color="#E0E0E0"/>
<stop offset="1" stop-color="#B0B0B0"/>
</linearGradient>
<linearGradient id="paint2_linear_114_38" x1="134" y1="463.562" x2="134" y2="480.437" gradientUnits="userSpaceOnUse">
<stop stop-color="#E0E0E0"/>
<stop offset="1" stop-color="#B0B0B0"/>
</linearGradient>
</defs>
</svg>
