<svg width="116" height="227" viewBox="0 0 116 227" fill="none" xmlns="http://www.w3.org/2000/svg">
<g filter="url(#filter0_f_239_16)">
<ellipse cx="58" cy="199.75" rx="40" ry="8.5" fill="black" fill-opacity="0.7"/>
</g>
<g filter="url(#filter1_f_239_16)">
<ellipse cx="59" cy="196.25" rx="35" ry="9" fill="black"/>
</g>
<g filter="url(#filter2_d_239_16)">
<rect x="40.866" y="90.5195" width="38.1443" height="107.73" rx="12" fill="url(#paint0_linear_239_16)"/>
</g>
<g filter="url(#filter3_d_239_16)">
<rect x="43.9587" y="90.5195" width="31.9588" height="107.73" rx="12" fill="#C48A55" fill-opacity="0.3" shape-rendering="crispEdges"/>
</g>
<g filter="url(#filter4_f_239_16)">
<rect x="41" y="97.25" width="38" height="15" rx="7.5" fill="black"/>
</g>
<g filter="url(#filter5_d_239_16)">
<path fill-rule="evenodd" clip-rule="evenodd" d="M78.6008 64.8108C81.3236 64.4239 84.3077 63.7119 86.7782 64.9325C89.2764 66.1668 90.3265 69.1737 91.9908 71.4264C93.4489 73.3998 94.7599 75.4061 96.0571 77.4912C97.4495 79.7293 99.7739 81.6431 99.9867 84.2787C100.2 86.9187 97.7818 89.0532 97.1994 91.6357C96.5842 94.3632 97.7318 97.4398 96.4583 99.9233C95.1934 102.39 92.7468 104.177 90.2151 105.256C87.7347 106.313 84.8862 105.477 82.2413 105.982C79.5919 106.488 77.2372 108.288 74.5412 108.249C71.7715 108.21 68.8049 107.555 66.6782 105.76C64.5388 103.954 64.4495 100.624 62.8088 98.3456C61.1974 96.108 57.7615 95.1568 57.1068 92.4689C56.4451 89.7524 59.0603 87.2589 59.433 84.4866C59.7892 81.8374 58.4224 79.0759 59.2487 76.5364C60.0823 73.9745 61.9785 71.8303 64.0879 70.1805C66.1584 68.5612 68.8096 68.0461 71.2676 67.1366C73.6941 66.2388 76.0422 65.1744 78.6008 64.8108Z" fill="url(#paint1_linear_239_16)" shape-rendering="crispEdges"/>
<path fill-rule="evenodd" clip-rule="evenodd" d="M78.6008 64.8108C81.3236 64.4239 84.3077 63.7119 86.7782 64.9325C89.2764 66.1668 90.3265 69.1737 91.9908 71.4264C93.4489 73.3998 94.7599 75.4061 96.0571 77.4912C97.4495 79.7293 99.7739 81.6431 99.9867 84.2787C100.2 86.9187 97.7818 89.0532 97.1994 91.6357C96.5842 94.3632 97.7318 97.4398 96.4583 99.9233C95.1934 102.39 92.7468 104.177 90.2151 105.256C87.7347 106.313 84.8862 105.477 82.2413 105.982C79.5919 106.488 77.2372 108.288 74.5412 108.249C71.7715 108.21 68.8049 107.555 66.6782 105.76C64.5388 103.954 64.4495 100.624 62.8088 98.3456C61.1974 96.108 57.7615 95.1568 57.1068 92.4689C56.4451 89.7524 59.0603 87.2589 59.433 84.4866C59.7892 81.8374 58.4224 79.0759 59.2487 76.5364C60.0823 73.9745 61.9785 71.8303 64.0879 70.1805C66.1584 68.5612 68.8096 68.0461 71.2676 67.1366C73.6941 66.2388 76.0422 65.1744 78.6008 64.8108Z" stroke="#4F8A3A" stroke-opacity="0.35" stroke-width="0.5" shape-rendering="crispEdges"/>
</g>
<g filter="url(#filter6_d_239_16)">
<path fill-rule="evenodd" clip-rule="evenodd" d="M50.797 2.42955C53.8085 1.94257 56.8216 -0.571109 59.6678 0.523256C62.5127 1.61715 63.1078 5.44698 64.9465 7.87003C66.5209 9.94474 68.3619 11.7362 69.8158 13.8963C71.3876 16.2316 73.4852 18.4159 73.9148 21.1945C74.3451 23.9774 73.0479 26.7064 72.2124 29.3963C71.3878 32.0512 70.791 34.8871 68.9999 37.0181C67.2214 39.1339 64.3835 39.9419 62.0709 41.4616C59.7045 43.0167 57.8739 45.6652 55.0832 46.1636C52.2906 46.6623 49.6338 44.8704 46.8843 44.1739C44.265 43.5104 41.6312 43.1002 39.1147 42.1185C36.3305 41.0324 33.062 40.3969 31.2096 38.0593C29.3617 35.7272 29.6354 32.3989 29.0974 29.4768C28.592 26.732 27.6827 23.9922 28.1118 21.2344C28.5356 18.5099 30.4676 16.32 31.5397 13.7781C32.6712 11.0956 32.5205 7.67996 34.6632 5.70223C36.803 3.72721 40.1174 3.80228 42.9762 3.22239C45.5659 2.69707 48.1882 2.8514 50.797 2.42955Z" fill="url(#paint2_linear_239_16)" shape-rendering="crispEdges"/>
<path fill-rule="evenodd" clip-rule="evenodd" d="M50.797 2.42955C53.8085 1.94257 56.8216 -0.571109 59.6678 0.523256C62.5127 1.61715 63.1078 5.44698 64.9465 7.87003C66.5209 9.94474 68.3619 11.7362 69.8158 13.8963C71.3876 16.2316 73.4852 18.4159 73.9148 21.1945C74.3451 23.9774 73.0479 26.7064 72.2124 29.3963C71.3878 32.0512 70.791 34.8871 68.9999 37.0181C67.2214 39.1339 64.3835 39.9419 62.0709 41.4616C59.7045 43.0167 57.8739 45.6652 55.0832 46.1636C52.2906 46.6623 49.6338 44.8704 46.8843 44.1739C44.265 43.5104 41.6312 43.1002 39.1147 42.1185C36.3305 41.0324 33.062 40.3969 31.2096 38.0593C29.3617 35.7272 29.6354 32.3989 29.0974 29.4768C28.592 26.732 27.6827 23.9922 28.1118 21.2344C28.5356 18.5099 30.4676 16.32 31.5397 13.7781C32.6712 11.0956 32.5205 7.67996 34.6632 5.70223C36.803 3.72721 40.1174 3.80228 42.9762 3.22239C45.5659 2.69707 48.1882 2.8514 50.797 2.42955Z" stroke="#4F8A3A" stroke-opacity="0.35" stroke-width="0.5" shape-rendering="crispEdges"/>
</g>
<g filter="url(#filter7_d_239_16)">
<path fill-rule="evenodd" clip-rule="evenodd" d="M86.6008 25.8108C89.3236 25.4239 92.3077 24.7119 94.7782 25.9325C97.2764 27.1668 98.3265 30.1737 99.9908 32.4264C101.449 34.3998 102.76 36.4061 104.057 38.4912C105.45 40.7293 107.774 42.6431 107.987 45.2787C108.2 47.9187 105.782 50.0532 105.199 52.6357C104.584 55.3632 105.732 58.4398 104.458 60.9233C103.193 63.3901 100.747 65.1773 98.2151 66.2562C95.7347 67.3133 92.8862 66.4768 90.2413 66.9818C87.5919 67.4878 85.2372 69.2879 82.5412 69.2494C79.7715 69.2099 76.8049 68.555 74.6782 66.7598C72.5388 64.9538 72.4495 61.6238 70.8088 59.3456C69.1974 57.108 65.7615 56.1568 65.1068 53.4689C64.4451 50.7524 67.0603 48.2589 67.433 45.4866C67.7892 42.8374 66.4224 40.0759 67.2487 37.5364C68.0823 34.9745 69.9785 32.8303 72.0879 31.1805C74.1584 29.5612 76.8096 29.0461 79.2676 28.1366C81.6941 27.2388 84.0422 26.1744 86.6008 25.8108Z" fill="url(#paint3_linear_239_16)" shape-rendering="crispEdges"/>
<path fill-rule="evenodd" clip-rule="evenodd" d="M86.6008 25.8108C89.3236 25.4239 92.3077 24.7119 94.7782 25.9325C97.2764 27.1668 98.3265 30.1737 99.9908 32.4264C101.449 34.3998 102.76 36.4061 104.057 38.4912C105.45 40.7293 107.774 42.6431 107.987 45.2787C108.2 47.9187 105.782 50.0532 105.199 52.6357C104.584 55.3632 105.732 58.4398 104.458 60.9233C103.193 63.3901 100.747 65.1773 98.2151 66.2562C95.7347 67.3133 92.8862 66.4768 90.2413 66.9818C87.5919 67.4878 85.2372 69.2879 82.5412 69.2494C79.7715 69.2099 76.8049 68.555 74.6782 66.7598C72.5388 64.9538 72.4495 61.6238 70.8088 59.3456C69.1974 57.108 65.7615 56.1568 65.1068 53.4689C64.4451 50.7524 67.0603 48.2589 67.433 45.4866C67.7892 42.8374 66.4224 40.0759 67.2487 37.5364C68.0823 34.9745 69.9785 32.8303 72.0879 31.1805C74.1584 29.5612 76.8096 29.0461 79.2676 28.1366C81.6941 27.2388 84.0422 26.1744 86.6008 25.8108Z" stroke="#4F8A3A" stroke-opacity="0.35" stroke-width="0.5" shape-rendering="crispEdges"/>
</g>
<g filter="url(#filter8_d_239_16)">
<path fill-rule="evenodd" clip-rule="evenodd" d="M56.9198 72.7381C59.2032 72.6268 61.7003 71.6904 63.72 72.7502C65.7903 73.8366 66.2061 76.6273 67.7139 78.4022C69.0409 79.9642 71.0384 80.8903 72.1143 82.6312C73.214 84.4106 73.87 86.4694 73.9866 88.5519C74.102 90.6151 73.4546 92.6251 72.7829 94.5818C72.1278 96.4902 71.0539 98.1773 70.0754 99.9451C68.9905 101.905 68.5535 104.461 66.6492 105.662C64.7498 106.861 62.1909 105.884 59.9805 106.315C57.7492 106.75 55.7591 108.466 53.4978 108.227C51.246 107.989 49.467 106.276 47.6013 105.006C45.7861 103.77 43.8965 102.577 42.603 100.813C41.3163 99.0572 40.5407 96.9709 40.1475 94.8377C39.7669 92.7727 40.2286 90.693 40.3519 88.5976C40.4783 86.4496 40.0632 84.2099 40.89 82.2198C41.7247 80.2107 43.4658 78.7395 45.0656 77.2519C46.6783 75.7523 48.3089 74.1873 50.3743 73.4008C52.4387 72.6147 54.7104 72.8458 56.9198 72.7381Z" fill="url(#paint4_linear_239_16)" shape-rendering="crispEdges"/>
<path fill-rule="evenodd" clip-rule="evenodd" d="M56.9198 72.7381C59.2032 72.6268 61.7003 71.6904 63.72 72.7502C65.7903 73.8366 66.2061 76.6273 67.7139 78.4022C69.0409 79.9642 71.0384 80.8903 72.1143 82.6312C73.214 84.4106 73.87 86.4694 73.9866 88.5519C74.102 90.6151 73.4546 92.6251 72.7829 94.5818C72.1278 96.4902 71.0539 98.1773 70.0754 99.9451C68.9905 101.905 68.5535 104.461 66.6492 105.662C64.7498 106.861 62.1909 105.884 59.9805 106.315C57.7492 106.75 55.7591 108.466 53.4978 108.227C51.246 107.989 49.467 106.276 47.6013 105.006C45.7861 103.77 43.8965 102.577 42.603 100.813C41.3163 99.0572 40.5407 96.9709 40.1475 94.8377C39.7669 92.7727 40.2286 90.693 40.3519 88.5976C40.4783 86.4496 40.0632 84.2099 40.89 82.2198C41.7247 80.2107 43.4658 78.7395 45.0656 77.2519C46.6783 75.7523 48.3089 74.1873 50.3743 73.4008C52.4387 72.6147 54.7104 72.8458 56.9198 72.7381Z" stroke="#4F8A3A" stroke-opacity="0.35" stroke-width="0.5" shape-rendering="crispEdges"/>
</g>
<g filter="url(#filter9_d_239_16)">
<path fill-rule="evenodd" clip-rule="evenodd" d="M20.3985 31.3398C21.9043 31.0963 23.4108 29.8394 24.8339 30.3866C26.2564 30.9336 26.5539 32.8485 27.4732 34.06C28.2604 35.0974 29.181 35.9931 29.9079 37.0732C30.6938 38.2408 31.7426 39.3329 31.9574 40.7223C32.1725 42.1137 31.524 43.4782 31.1062 44.8231C30.6939 46.1506 30.3955 47.5686 29.4999 48.634C28.6107 49.692 27.1917 50.0959 26.0354 50.8558C24.8522 51.6334 23.9369 52.9576 22.5416 53.2068C21.1453 53.4561 19.8169 52.5602 18.4421 52.2119C17.1325 51.8802 15.8156 51.6751 14.5573 51.1843C13.1653 50.6412 11.531 50.3235 10.6048 49.1546C9.68085 47.9886 9.8177 46.3244 9.54869 44.8634C9.29599 43.491 8.84137 42.1211 9.05588 40.7422C9.26782 39.3799 10.2338 38.285 10.7699 37.014C11.3356 35.6728 11.2602 33.965 12.3316 32.9761C13.4015 31.9886 15.0587 32.0261 16.4881 31.7362C17.7829 31.4735 19.0941 31.5507 20.3985 31.3398Z" fill="url(#paint5_linear_239_16)" shape-rendering="crispEdges"/>
<path fill-rule="evenodd" clip-rule="evenodd" d="M20.3985 31.3398C21.9043 31.0963 23.4108 29.8394 24.8339 30.3866C26.2564 30.9336 26.5539 32.8485 27.4732 34.06C28.2604 35.0974 29.181 35.9931 29.9079 37.0732C30.6938 38.2408 31.7426 39.3329 31.9574 40.7223C32.1725 42.1137 31.524 43.4782 31.1062 44.8231C30.6939 46.1506 30.3955 47.5686 29.4999 48.634C28.6107 49.692 27.1917 50.0959 26.0354 50.8558C24.8522 51.6334 23.9369 52.9576 22.5416 53.2068C21.1453 53.4561 19.8169 52.5602 18.4421 52.2119C17.1325 51.8802 15.8156 51.6751 14.5573 51.1843C13.1653 50.6412 11.531 50.3235 10.6048 49.1546C9.68085 47.9886 9.8177 46.3244 9.54869 44.8634C9.29599 43.491 8.84137 42.1211 9.05588 40.7422C9.26782 39.3799 10.2338 38.285 10.7699 37.014C11.3356 35.6728 11.2602 33.965 12.3316 32.9761C13.4015 31.9886 15.0587 32.0261 16.4881 31.7362C17.7829 31.4735 19.0941 31.5507 20.3985 31.3398Z" stroke="#4F8A3A" stroke-opacity="0.35" stroke-width="0.5" shape-rendering="crispEdges"/>
</g>
<g filter="url(#filter10_d_239_16)">
<path fill-rule="evenodd" clip-rule="evenodd" d="M41.0891 64.7471C43.4952 64.4041 46.1324 63.7731 48.3156 64.855C50.5233 65.949 51.4513 68.6142 52.9221 70.6109C54.2106 72.36 55.3692 74.1383 56.5156 75.9865C57.7461 77.9703 59.8002 79.6666 59.9883 82.0027C60.1767 84.3427 58.0397 86.2347 57.525 88.5236C56.9814 90.9413 57.9955 93.6683 56.8701 95.8695C55.7523 98.056 53.5902 99.6401 51.3529 100.596C49.1609 101.533 46.6436 100.792 44.3063 101.24C41.9649 101.688 39.884 103.284 37.5015 103.249C35.0539 103.214 32.4323 102.634 30.5529 101.043C28.6622 99.442 28.5833 96.4905 27.1334 94.4711C25.7094 92.4878 22.6729 91.6447 22.0944 89.2622C21.5096 86.8544 23.8208 84.6442 24.1501 82.187C24.4649 79.8389 23.257 77.3912 23.9873 75.1402C24.7239 72.8695 26.3996 70.9689 28.2637 69.5066C30.0935 68.0713 32.4364 67.6147 34.6085 66.8086C36.7529 66.0128 38.828 65.0693 41.0891 64.7471Z" fill="url(#paint6_linear_239_16)" shape-rendering="crispEdges"/>
<path fill-rule="evenodd" clip-rule="evenodd" d="M41.0891 64.7471C43.4952 64.4041 46.1324 63.7731 48.3156 64.855C50.5233 65.949 51.4513 68.6142 52.9221 70.6109C54.2106 72.36 55.3692 74.1383 56.5156 75.9865C57.7461 77.9703 59.8002 79.6666 59.9883 82.0027C60.1767 84.3427 58.0397 86.2347 57.525 88.5236C56.9814 90.9413 57.9955 93.6683 56.8701 95.8695C55.7523 98.056 53.5902 99.6401 51.3529 100.596C49.1609 101.533 46.6436 100.792 44.3063 101.24C41.9649 101.688 39.884 103.284 37.5015 103.249C35.0539 103.214 32.4323 102.634 30.5529 101.043C28.6622 99.442 28.5833 96.4905 27.1334 94.4711C25.7094 92.4878 22.6729 91.6447 22.0944 89.2622C21.5096 86.8544 23.8208 84.6442 24.1501 82.187C24.4649 79.8389 23.257 77.3912 23.9873 75.1402C24.7239 72.8695 26.3996 70.9689 28.2637 69.5066C30.0935 68.0713 32.4364 67.6147 34.6085 66.8086C36.7529 66.0128 38.828 65.0693 41.0891 64.7471Z" stroke="#4F8A3A" stroke-opacity="0.35" stroke-width="0.5" shape-rendering="crispEdges"/>
</g>
<g filter="url(#filter11_d_239_16)">
<path fill-rule="evenodd" clip-rule="evenodd" d="M32.0891 9.74705C34.4952 9.40411 37.1324 8.77307 39.3156 9.85498C41.5233 10.949 42.4513 13.6142 43.9221 15.6109C45.2106 17.36 46.3692 19.1383 47.5156 20.9865C48.7461 22.9703 50.8002 24.6666 50.9883 27.0027C51.1767 29.3427 49.0397 31.2347 48.525 33.5236C47.9814 35.9413 48.9955 38.6683 47.8701 40.8695C46.7523 43.056 44.5902 44.6401 42.3529 45.5964C40.1609 46.5333 37.6436 45.7919 35.3063 46.2396C32.9649 46.688 30.884 48.2836 28.5015 48.2495C26.0539 48.2144 23.4323 47.634 21.5529 46.0428C19.6622 44.442 19.5833 41.4905 18.1334 39.4711C16.7094 37.4878 13.6729 36.6447 13.0944 34.2622C12.5096 31.8544 14.8208 29.6442 15.1501 27.187C15.4649 24.8389 14.257 22.3912 14.9873 20.1402C15.7239 17.8695 17.3996 15.9689 19.2637 14.5066C21.0935 13.0713 23.4364 12.6147 25.6085 11.8086C27.7529 11.0128 29.828 10.0693 32.0891 9.74705Z" fill="url(#paint7_linear_239_16)" shape-rendering="crispEdges"/>
<path fill-rule="evenodd" clip-rule="evenodd" d="M32.0891 9.74705C34.4952 9.40411 37.1324 8.77307 39.3156 9.85498C41.5233 10.949 42.4513 13.6142 43.9221 15.6109C45.2106 17.36 46.3692 19.1383 47.5156 20.9865C48.7461 22.9703 50.8002 24.6666 50.9883 27.0027C51.1767 29.3427 49.0397 31.2347 48.525 33.5236C47.9814 35.9413 48.9955 38.6683 47.8701 40.8695C46.7523 43.056 44.5902 44.6401 42.3529 45.5964C40.1609 46.5333 37.6436 45.7919 35.3063 46.2396C32.9649 46.688 30.884 48.2836 28.5015 48.2495C26.0539 48.2144 23.4323 47.634 21.5529 46.0428C19.6622 44.442 19.5833 41.4905 18.1334 39.4711C16.7094 37.4878 13.6729 36.6447 13.0944 34.2622C12.5096 31.8544 14.8208 29.6442 15.1501 27.187C15.4649 24.8389 14.257 22.3912 14.9873 20.1402C15.7239 17.8695 17.3996 15.9689 19.2637 14.5066C21.0935 13.0713 23.4364 12.6147 25.6085 11.8086C27.7529 11.0128 29.828 10.0693 32.0891 9.74705Z" stroke="#4F8A3A" stroke-opacity="0.35" stroke-width="0.5" shape-rendering="crispEdges"/>
</g>
<g filter="url(#filter12_d_239_16)">
<path fill-rule="evenodd" clip-rule="evenodd" d="M60.9528 60.5347C62.296 60.4698 63.7649 59.9236 64.953 60.5418C66.1708 61.1755 66.4154 62.8034 67.3023 63.8388C68.0829 64.75 69.2579 65.2902 69.8908 66.3057C70.5376 67.3437 70.9236 68.5447 70.9921 69.7594C71.06 70.963 70.6792 72.1355 70.2841 73.2769C69.8987 74.3901 69.267 75.3743 68.6914 76.4055C68.0532 77.5487 67.7962 79.0396 66.676 79.7406C65.5587 80.4398 64.0535 79.87 62.7532 80.1214C61.4407 80.3753 60.2701 81.3763 58.9399 81.2367C57.6153 81.0978 56.5688 80.0982 55.4713 79.3575C54.4036 78.6369 53.2921 77.9408 52.5312 76.9115C51.7743 75.8875 51.318 74.6705 51.0868 73.4261C50.8629 72.2216 51.1344 71.0084 51.207 69.7861C51.2813 68.5331 51.0372 67.2266 51.5235 66.0657C52.0145 64.8937 53.0387 64.0355 53.9798 63.1677C54.9284 62.293 55.8876 61.3801 57.1025 60.9213C58.3169 60.4628 59.6532 60.5975 60.9528 60.5347Z" fill="url(#paint8_linear_239_16)" shape-rendering="crispEdges"/>
<path fill-rule="evenodd" clip-rule="evenodd" d="M60.9528 60.5347C62.296 60.4698 63.7649 59.9236 64.953 60.5418C66.1708 61.1755 66.4154 62.8034 67.3023 63.8388C68.0829 64.75 69.2579 65.2902 69.8908 66.3057C70.5376 67.3437 70.9236 68.5447 70.9921 69.7594C71.06 70.963 70.6792 72.1355 70.2841 73.2769C69.8987 74.3901 69.267 75.3743 68.6914 76.4055C68.0532 77.5487 67.7962 79.0396 66.676 79.7406C65.5587 80.4398 64.0535 79.87 62.7532 80.1214C61.4407 80.3753 60.2701 81.3763 58.9399 81.2367C57.6153 81.0978 56.5688 80.0982 55.4713 79.3575C54.4036 78.6369 53.2921 77.9408 52.5312 76.9115C51.7743 75.8875 51.318 74.6705 51.0868 73.4261C50.8629 72.2216 51.1344 71.0084 51.207 69.7861C51.2813 68.5331 51.0372 67.2266 51.5235 66.0657C52.0145 64.8937 53.0387 64.0355 53.9798 63.1677C54.9284 62.293 55.8876 61.3801 57.1025 60.9213C58.3169 60.4628 59.6532 60.5975 60.9528 60.5347Z" stroke="#4F8A3A" stroke-opacity="0.35" stroke-width="0.5" shape-rendering="crispEdges"/>
</g>
<g filter="url(#filter13_d_239_16)">
<path fill-rule="evenodd" clip-rule="evenodd" d="M68.9181 20.5425C67.7213 20.3802 66.333 20.6304 65.3877 19.8788C64.4186 19.1084 64.4754 17.6033 63.8657 16.5258C63.3291 15.5776 62.3823 14.8984 61.9936 13.8805C61.5963 12.8402 61.4568 11.696 61.5997 10.5916C61.7414 9.49737 62.274 8.50478 62.8139 7.54261C63.3407 6.60412 64.0632 5.82228 64.7441 4.9889C65.499 4.06494 65.9757 2.76558 67.082 2.31885C68.1856 1.87325 69.419 2.63332 70.6091 2.62069C71.8104 2.60793 73.0116 1.89951 74.1626 2.24367C75.3087 2.58636 76.0653 3.65779 76.9101 4.50468C77.7321 5.32863 78.5969 6.13769 79.0962 7.18897C79.593 8.23482 79.792 9.40495 79.7877 10.5628C79.7836 11.6835 79.3407 12.7306 79.0719 13.8187C78.7964 14.934 78.7931 16.1499 78.1693 17.1146C77.5395 18.0886 76.4916 18.6926 75.5154 19.3188C74.5314 19.9501 73.5317 20.6141 72.3822 20.8273C71.2332 21.0404 70.076 20.6995 68.9181 20.5425Z" fill="url(#paint9_linear_239_16)" shape-rendering="crispEdges"/>
<path fill-rule="evenodd" clip-rule="evenodd" d="M68.9181 20.5425C67.7213 20.3802 66.333 20.6304 65.3877 19.8788C64.4186 19.1084 64.4754 17.6033 63.8657 16.5258C63.3291 15.5776 62.3823 14.8984 61.9936 13.8805C61.5963 12.8402 61.4568 11.696 61.5997 10.5916C61.7414 9.49737 62.274 8.50478 62.8139 7.54261C63.3407 6.60412 64.0632 5.82228 64.7441 4.9889C65.499 4.06494 65.9757 2.76558 67.082 2.31885C68.1856 1.87325 69.419 2.63332 70.6091 2.62069C71.8104 2.60793 73.0116 1.89951 74.1626 2.24367C75.3087 2.58636 76.0653 3.65779 76.9101 4.50468C77.7321 5.32863 78.5969 6.13769 79.0962 7.18897C79.593 8.23482 79.792 9.40495 79.7877 10.5628C79.7836 11.6835 79.3407 12.7306 79.0719 13.8187C78.7964 14.934 78.7931 16.1499 78.1693 17.1146C77.5395 18.0886 76.4916 18.6926 75.5154 19.3188C74.5314 19.9501 73.5317 20.6141 72.3822 20.8273C71.2332 21.0404 70.076 20.6995 68.9181 20.5425Z" stroke="#4F8A3A" stroke-opacity="0.35" stroke-width="0.5" shape-rendering="crispEdges"/>
</g>
<g filter="url(#filter14_d_239_16)">
<path fill-rule="evenodd" clip-rule="evenodd" d="M56.9198 9.73807C59.2032 9.62675 61.7003 8.69041 63.72 9.75023C65.7903 10.8366 66.2061 13.6273 67.7139 15.4022C69.0409 16.9642 71.0384 17.8903 72.1143 19.6312C73.214 21.4106 73.87 23.4694 73.9866 25.5519C74.102 27.6151 73.4546 29.6251 72.7829 31.5818C72.1278 33.4902 71.0539 35.1773 70.0754 36.9451C68.9905 38.905 68.5535 41.4607 66.6492 42.6624C64.7498 43.861 62.1909 42.8842 59.9805 43.3153C57.7492 43.7505 55.7591 45.4665 53.4978 45.2272C51.246 44.989 49.467 43.2756 47.6013 42.0058C45.7861 40.7704 43.8965 39.5771 42.603 37.8126C41.3163 36.0572 40.5407 33.9709 40.1475 31.8377C39.7669 29.7727 40.2286 27.693 40.3519 25.5976C40.4783 23.4496 40.0632 21.2099 40.89 19.2198C41.7247 17.2107 43.4658 15.7395 45.0656 14.2519C46.6783 12.7523 48.3089 11.1873 50.3743 10.4008C52.4387 9.61474 54.7104 9.84578 56.9198 9.73807Z" fill="url(#paint10_linear_239_16)" shape-rendering="crispEdges"/>
<path fill-rule="evenodd" clip-rule="evenodd" d="M56.9198 9.73807C59.2032 9.62675 61.7003 8.69041 63.72 9.75023C65.7903 10.8366 66.2061 13.6273 67.7139 15.4022C69.0409 16.9642 71.0384 17.8903 72.1143 19.6312C73.214 21.4106 73.87 23.4694 73.9866 25.5519C74.102 27.6151 73.4546 29.6251 72.7829 31.5818C72.1278 33.4902 71.0539 35.1773 70.0754 36.9451C68.9905 38.905 68.5535 41.4607 66.6492 42.6624C64.7498 43.861 62.1909 42.8842 59.9805 43.3153C57.7492 43.7505 55.7591 45.4665 53.4978 45.2272C51.246 44.989 49.467 43.2756 47.6013 42.0058C45.7861 40.7704 43.8965 39.5771 42.603 37.8126C41.3163 36.0572 40.5407 33.9709 40.1475 31.8377C39.7669 29.7727 40.2286 27.693 40.3519 25.5976C40.4783 23.4496 40.0632 21.2099 40.89 19.2198C41.7247 17.2107 43.4658 15.7395 45.0656 14.2519C46.6783 12.7523 48.3089 11.1873 50.3743 10.4008C52.4387 9.61474 54.7104 9.84578 56.9198 9.73807Z" stroke="#4F8A3A" stroke-opacity="0.35" stroke-width="0.5" shape-rendering="crispEdges"/>
</g>
<g filter="url(#filter15_d_239_16)">
<path fill-rule="evenodd" clip-rule="evenodd" d="M46.441 27.6025C48.12 27.5221 49.9561 26.8458 51.4412 27.6113C52.9635 28.3959 53.2692 30.4114 54.3779 31.6932C55.3536 32.8214 56.8224 33.4902 57.6134 34.7475C58.422 36.0327 58.9044 37.5196 58.9901 39.0236C59.075 40.5137 58.599 41.9654 58.1051 43.3785C57.6234 44.7568 56.8338 45.9753 56.1142 47.252C55.3165 48.6675 54.9952 50.5133 53.595 51.3812C52.1984 52.2468 50.3168 51.5414 48.6916 51.8527C47.0509 52.167 45.5876 53.4063 43.9248 53.2336C42.2691 53.0615 40.961 51.824 39.5892 50.907C38.2545 50.0147 36.8651 49.1529 35.914 47.8785C34.9678 46.6107 34.3975 45.104 34.1085 43.5633C33.8286 42.072 34.1681 40.57 34.2587 39.0566C34.3517 37.5052 34.0465 35.8877 34.6544 34.4504C35.2682 32.9994 36.5484 31.9369 37.7247 30.8624C38.9105 29.7795 40.1094 28.6492 41.6281 28.0812C43.1461 27.5134 44.8165 27.6803 46.441 27.6025Z" fill="url(#paint11_linear_239_16)" shape-rendering="crispEdges"/>
<path fill-rule="evenodd" clip-rule="evenodd" d="M46.441 27.6025C48.12 27.5221 49.9561 26.8458 51.4412 27.6113C52.9635 28.3959 53.2692 30.4114 54.3779 31.6932C55.3536 32.8214 56.8224 33.4902 57.6134 34.7475C58.422 36.0327 58.9044 37.5196 58.9901 39.0236C59.075 40.5137 58.599 41.9654 58.1051 43.3785C57.6234 44.7568 56.8338 45.9753 56.1142 47.252C55.3165 48.6675 54.9952 50.5133 53.595 51.3812C52.1984 52.2468 50.3168 51.5414 48.6916 51.8527C47.0509 52.167 45.5876 53.4063 43.9248 53.2336C42.2691 53.0615 40.961 51.824 39.5892 50.907C38.2545 50.0147 36.8651 49.1529 35.914 47.8785C34.9678 46.6107 34.3975 45.104 34.1085 43.5633C33.8286 42.072 34.1681 40.57 34.2587 39.0566C34.3517 37.5052 34.0465 35.8877 34.6544 34.4504C35.2682 32.9994 36.5484 31.9369 37.7247 30.8624C38.9105 29.7795 40.1094 28.6492 41.6281 28.0812C43.1461 27.5134 44.8165 27.6803 46.441 27.6025Z" stroke="#4F8A3A" stroke-opacity="0.35" stroke-width="0.5" shape-rendering="crispEdges"/>
</g>
<g filter="url(#filter16_d_239_16)">
<path fill-rule="evenodd" clip-rule="evenodd" d="M21.9528 65.5347C23.296 65.4698 24.7649 64.9236 25.953 65.5418C27.1708 66.1755 27.4154 67.8034 28.3023 68.8388C29.0829 69.75 30.2579 70.2902 30.8908 71.3057C31.5376 72.3437 31.9236 73.5447 31.9921 74.7594C32.06 75.963 31.6792 77.1355 31.2841 78.2769C30.8987 79.3901 30.267 80.3743 29.6914 81.4055C29.0532 82.5487 28.7962 84.0396 27.676 84.7406C26.5587 85.4398 25.0535 84.87 23.7532 85.1214C22.4407 85.3753 21.2701 86.3763 19.9399 86.2367C18.6153 86.0978 17.5688 85.0982 16.4713 84.3575C15.4036 83.6369 14.2921 82.9408 13.5312 81.9115C12.7743 80.8875 12.318 79.6705 12.0868 78.4261C11.8629 77.2216 12.1344 76.0084 12.207 74.7861C12.2813 73.5331 12.0372 72.2266 12.5235 71.0657C13.0145 69.8937 14.0387 69.0355 14.9798 68.1677C15.9284 67.293 16.8876 66.3801 18.1025 65.9213C19.3169 65.4628 20.6532 65.5975 21.9528 65.5347Z" fill="url(#paint12_linear_239_16)" shape-rendering="crispEdges"/>
<path fill-rule="evenodd" clip-rule="evenodd" d="M21.9528 65.5347C23.296 65.4698 24.7649 64.9236 25.953 65.5418C27.1708 66.1755 27.4154 67.8034 28.3023 68.8388C29.0829 69.75 30.2579 70.2902 30.8908 71.3057C31.5376 72.3437 31.9236 73.5447 31.9921 74.7594C32.06 75.963 31.6792 77.1355 31.2841 78.2769C30.8987 79.3901 30.267 80.3743 29.6914 81.4055C29.0532 82.5487 28.7962 84.0396 27.676 84.7406C26.5587 85.4398 25.0535 84.87 23.7532 85.1214C22.4407 85.3753 21.2701 86.3763 19.9399 86.2367C18.6153 86.0978 17.5688 85.0982 16.4713 84.3575C15.4036 83.6369 14.2921 82.9408 13.5312 81.9115C12.7743 80.8875 12.318 79.6705 12.0868 78.4261C11.8629 77.2216 12.1344 76.0084 12.207 74.7861C12.2813 73.5331 12.0372 72.2266 12.5235 71.0657C13.0145 69.8937 14.0387 69.0355 14.9798 68.1677C15.9284 67.293 16.8876 66.3801 18.1025 65.9213C19.3169 65.4628 20.6532 65.5975 21.9528 65.5347Z" stroke="#4F8A3A" stroke-opacity="0.35" stroke-width="0.5" shape-rendering="crispEdges"/>
</g>
<g filter="url(#filter17_d_239_16)">
<path fill-rule="evenodd" clip-rule="evenodd" d="M29.2117 42.4155C31.3643 42.4159 33.5722 41.9671 35.61 42.6622C37.6617 43.3622 39.3343 44.8632 40.872 46.3933C42.3819 47.8957 43.6403 49.6275 44.5478 51.5558C45.4475 53.4676 45.6345 55.5846 46.1609 57.6313C46.7559 59.945 48.4582 62.2066 47.8831 64.5253C47.3124 66.8262 44.6555 67.9169 43.1548 69.7504C41.7056 71.5211 41.02 73.9591 39.1199 75.2321C37.2166 76.5073 34.7493 76.3982 32.5109 76.8818C30.2281 77.375 27.9604 78.6327 25.6783 78.136C23.3929 77.6386 21.675 75.7567 19.9708 74.1525C18.4173 72.6901 17.4654 70.7616 16.1012 69.1206C14.6807 67.4121 12.574 66.2376 11.6936 64.1966C10.8016 62.1289 10.9813 59.7727 11.0983 57.5233C11.2176 55.2294 11.188 52.7711 12.3895 50.8147C13.5892 48.8611 15.9749 48.0558 17.7795 46.644C19.4791 45.3142 20.7893 43.4083 22.8125 42.6599C24.8321 41.9129 27.0587 42.4151 29.2117 42.4155Z" fill="url(#paint13_linear_239_16)" shape-rendering="crispEdges"/>
<path fill-rule="evenodd" clip-rule="evenodd" d="M29.2117 42.4155C31.3643 42.4159 33.5722 41.9671 35.61 42.6622C37.6617 43.3622 39.3343 44.8632 40.872 46.3933C42.3819 47.8957 43.6403 49.6275 44.5478 51.5558C45.4475 53.4676 45.6345 55.5846 46.1609 57.6313C46.7559 59.945 48.4582 62.2066 47.8831 64.5253C47.3124 66.8262 44.6555 67.9169 43.1548 69.7504C41.7056 71.5211 41.02 73.9591 39.1199 75.2321C37.2166 76.5073 34.7493 76.3982 32.5109 76.8818C30.2281 77.375 27.9604 78.6327 25.6783 78.136C23.3929 77.6386 21.675 75.7567 19.9708 74.1525C18.4173 72.6901 17.4654 70.7616 16.1012 69.1206C14.6807 67.4121 12.574 66.2376 11.6936 64.1966C10.8016 62.1289 10.9813 59.7727 11.0983 57.5233C11.2176 55.2294 11.188 52.7711 12.3895 50.8147C13.5892 48.8611 15.9749 48.0558 17.7795 46.644C19.4791 45.3142 20.7893 43.4083 22.8125 42.6599C24.8321 41.9129 27.0587 42.4151 29.2117 42.4155Z" stroke="#4F8A3A" stroke-opacity="0.35" stroke-width="0.5" shape-rendering="crispEdges"/>
</g>
<g filter="url(#filter18_d_239_16)">
<path fill-rule="evenodd" clip-rule="evenodd" d="M82.2117 5.41553C84.3643 5.41591 86.5722 4.96709 88.61 5.66223C90.6617 6.36217 92.3343 7.86325 93.872 9.3933C95.3819 10.8957 96.6403 12.6275 97.5478 14.5558C98.4475 16.4676 98.6345 18.5846 99.1609 20.6313C99.7559 22.945 101.458 25.2066 100.883 27.5253C100.312 29.8262 97.6555 30.9169 96.1548 32.7504C94.7056 34.5211 94.02 36.9591 92.1199 38.2321C90.2166 39.5073 87.7493 39.3982 85.5109 39.8818C83.2281 40.375 80.9604 41.6327 78.6783 41.136C76.3929 40.6386 74.675 38.7567 72.9708 37.1525C71.4173 35.6901 70.4654 33.7616 69.1012 32.1206C67.6807 30.4121 65.574 29.2376 64.6936 27.1966C63.8016 25.1289 63.9813 22.7727 64.0983 20.5233C64.2176 18.2294 64.188 15.7711 65.3895 13.8147C66.5892 11.8611 68.9749 11.0558 70.7795 9.64398C72.4791 8.31421 73.7893 6.40826 75.8125 5.65994C77.8321 4.91293 80.0587 5.41514 82.2117 5.41553Z" fill="url(#paint14_linear_239_16)" shape-rendering="crispEdges"/>
<path fill-rule="evenodd" clip-rule="evenodd" d="M82.2117 5.41553C84.3643 5.41591 86.5722 4.96709 88.61 5.66223C90.6617 6.36217 92.3343 7.86325 93.872 9.3933C95.3819 10.8957 96.6403 12.6275 97.5478 14.5558C98.4475 16.4676 98.6345 18.5846 99.1609 20.6313C99.7559 22.945 101.458 25.2066 100.883 27.5253C100.312 29.8262 97.6555 30.9169 96.1548 32.7504C94.7056 34.5211 94.02 36.9591 92.1199 38.2321C90.2166 39.5073 87.7493 39.3982 85.5109 39.8818C83.2281 40.375 80.9604 41.6327 78.6783 41.136C76.3929 40.6386 74.675 38.7567 72.9708 37.1525C71.4173 35.6901 70.4654 33.7616 69.1012 32.1206C67.6807 30.4121 65.574 29.2376 64.6936 27.1966C63.8016 25.1289 63.9813 22.7727 64.0983 20.5233C64.2176 18.2294 64.188 15.7711 65.3895 13.8147C66.5892 11.8611 68.9749 11.0558 70.7795 9.64398C72.4791 8.31421 73.7893 6.40826 75.8125 5.65994C77.8321 4.91293 80.0587 5.41514 82.2117 5.41553Z" stroke="#4F8A3A" stroke-opacity="0.35" stroke-width="0.5" shape-rendering="crispEdges"/>
</g>
<g filter="url(#filter19_d_239_16)">
<path fill-rule="evenodd" clip-rule="evenodd" d="M92.3808 58.5293C94.1485 58.2435 95.917 56.768 97.5876 57.4104C99.2575 58.0525 99.6067 60.3004 100.686 61.7226C101.61 62.9404 102.691 63.9919 103.544 65.2598C104.467 66.6305 105.698 67.9126 105.95 69.5435C106.203 71.177 105.441 72.7787 104.951 74.3576C104.467 75.9159 104.116 77.5805 103.065 78.8312C102.021 80.0732 100.356 80.5474 98.9981 81.4394C97.6091 82.3522 96.5347 83.9067 94.8967 84.1993C93.2576 84.492 91.6981 83.4402 90.0842 83.0314C88.5468 82.642 87.0009 82.4012 85.5238 81.825C83.8897 81.1875 81.9712 80.8145 80.8839 79.4424C79.7993 78.0736 79.9599 76.12 79.6441 74.4049C79.3475 72.7938 78.8138 71.1856 79.0656 69.5669C79.3144 67.9678 80.4484 66.6824 81.0777 65.1904C81.7418 63.6159 81.6533 61.6111 82.911 60.4502C84.167 59.291 86.1124 59.335 87.7903 58.9947C89.3104 58.6863 90.8496 58.7769 92.3808 58.5293Z" fill="url(#paint15_linear_239_16)" shape-rendering="crispEdges"/>
<path fill-rule="evenodd" clip-rule="evenodd" d="M92.3808 58.5293C94.1485 58.2435 95.917 56.768 97.5876 57.4104C99.2575 58.0525 99.6067 60.3004 100.686 61.7226C101.61 62.9404 102.691 63.9919 103.544 65.2598C104.467 66.6305 105.698 67.9126 105.95 69.5435C106.203 71.177 105.441 72.7787 104.951 74.3576C104.467 75.9159 104.116 77.5805 103.065 78.8312C102.021 80.0732 100.356 80.5474 98.9981 81.4394C97.6091 82.3522 96.5347 83.9067 94.8967 84.1993C93.2576 84.492 91.6981 83.4402 90.0842 83.0314C88.5468 82.642 87.0009 82.4012 85.5238 81.825C83.8897 81.1875 81.9712 80.8145 80.8839 79.4424C79.7993 78.0736 79.9599 76.12 79.6441 74.4049C79.3475 72.7938 78.8138 71.1856 79.0656 69.5669C79.3144 67.9678 80.4484 66.6824 81.0777 65.1904C81.7418 63.6159 81.6533 61.6111 82.911 60.4502C84.167 59.291 86.1124 59.335 87.7903 58.9947C89.3104 58.6863 90.8496 58.7769 92.3808 58.5293Z" stroke="#4F8A3A" stroke-opacity="0.35" stroke-width="0.5" shape-rendering="crispEdges"/>
</g>
<g filter="url(#filter20_d_239_16)">
<path fill-rule="evenodd" clip-rule="evenodd" d="M62.9294 26.0081C63.9769 25.8387 65.0249 24.9644 66.0149 25.345C67.0044 25.7255 67.2114 27.0576 67.8509 27.9004C68.3986 28.6221 69.0389 29.2452 69.5446 29.9965C70.0913 30.8088 70.8209 31.5686 70.9704 32.535C71.12 33.503 70.6688 34.4522 70.3782 35.3878C70.0914 36.3113 69.8838 37.2977 69.2608 38.0389C68.6422 38.7748 67.6551 39.0559 66.8507 39.5845C66.0276 40.1254 65.3909 41.0466 64.4202 41.2199C63.4489 41.3934 62.5248 40.7701 61.5684 40.5279C60.6574 40.2971 59.7413 40.1544 58.866 39.813C57.8976 39.4352 56.7607 39.2142 56.1164 38.4011C55.4736 37.5899 55.5688 36.4322 55.3817 35.4159C55.2059 34.4611 54.8896 33.5081 55.0389 32.5489C55.1863 31.6013 55.8583 30.8396 56.2312 29.9554C56.6248 29.0224 56.5723 27.8343 57.3176 27.1464C58.0619 26.4595 59.2147 26.4856 60.2091 26.2839C61.1099 26.1012 62.022 26.1548 62.9294 26.0081Z" fill="url(#paint16_linear_239_16)" shape-rendering="crispEdges"/>
<path fill-rule="evenodd" clip-rule="evenodd" d="M62.9294 26.0081C63.9769 25.8387 65.0249 24.9644 66.0149 25.345C67.0044 25.7255 67.2114 27.0576 67.8509 27.9004C68.3986 28.6221 69.0389 29.2452 69.5446 29.9965C70.0913 30.8088 70.8209 31.5686 70.9704 32.535C71.12 33.503 70.6688 34.4522 70.3782 35.3878C70.0914 36.3113 69.8838 37.2977 69.2608 38.0389C68.6422 38.7748 67.6551 39.0559 66.8507 39.5845C66.0276 40.1254 65.3909 41.0466 64.4202 41.2199C63.4489 41.3934 62.5248 40.7701 61.5684 40.5279C60.6574 40.2971 59.7413 40.1544 58.866 39.813C57.8976 39.4352 56.7607 39.2142 56.1164 38.4011C55.4736 37.5899 55.5688 36.4322 55.3817 35.4159C55.2059 34.4611 54.8896 33.5081 55.0389 32.5489C55.1863 31.6013 55.8583 30.8396 56.2312 29.9554C56.6248 29.0224 56.5723 27.8343 57.3176 27.1464C58.0619 26.4595 59.2147 26.4856 60.2091 26.2839C61.1099 26.1012 62.022 26.1548 62.9294 26.0081Z" stroke="#4F8A3A" stroke-opacity="0.35" stroke-width="0.5" shape-rendering="crispEdges"/>
</g>
<g filter="url(#filter21_d_239_16)">
<path fill-rule="evenodd" clip-rule="evenodd" d="M78.8676 52.6714C80.8316 52.3538 82.7967 50.7145 84.6529 51.4282C86.5083 52.1416 86.8964 54.6393 88.0955 56.2196C89.1223 57.5727 90.323 58.741 91.2712 60.1498C92.2963 61.6728 93.6642 63.0973 93.9444 64.9095C94.225 66.7244 93.3791 68.5041 92.8342 70.2585C92.2964 71.9899 91.9072 73.8394 90.7391 75.2292C89.5792 76.6091 87.7283 77.136 86.2201 78.1271C84.6768 79.1413 83.483 80.8686 81.663 81.1936C79.8417 81.5189 78.109 80.3502 76.3158 79.896C74.6076 79.4633 72.8899 79.1958 71.2487 78.5556C69.433 77.8472 67.3013 77.4328 66.0932 75.9082C64.8881 74.3873 65.0666 72.2167 64.7157 70.311C64.3861 68.5208 63.7931 66.734 64.0729 64.9355C64.3493 63.1586 65.6093 61.7304 66.3085 60.0727C67.0464 58.3232 66.9481 56.0956 68.3456 54.8058C69.7411 53.5177 71.9026 53.5667 73.7671 53.1885C75.456 52.8459 77.1662 52.9466 78.8676 52.6714Z" fill="url(#paint17_linear_239_16)" shape-rendering="crispEdges"/>
<path fill-rule="evenodd" clip-rule="evenodd" d="M78.8676 52.6714C80.8316 52.3538 82.7967 50.7145 84.6529 51.4282C86.5083 52.1416 86.8964 54.6393 88.0955 56.2196C89.1223 57.5727 90.323 58.741 91.2712 60.1498C92.2963 61.6728 93.6642 63.0973 93.9444 64.9095C94.225 66.7244 93.3791 68.5041 92.8342 70.2585C92.2964 71.9899 91.9072 73.8394 90.7391 75.2292C89.5792 76.6091 87.7283 77.136 86.2201 78.1271C84.6768 79.1413 83.483 80.8686 81.663 81.1936C79.8417 81.5189 78.109 80.3502 76.3158 79.896C74.6076 79.4633 72.8899 79.1958 71.2487 78.5556C69.433 77.8472 67.3013 77.4328 66.0932 75.9082C64.8881 74.3873 65.0666 72.2167 64.7157 70.311C64.3861 68.5208 63.7931 66.734 64.0729 64.9355C64.3493 63.1586 65.6093 61.7304 66.3085 60.0727C67.0464 58.3232 66.9481 56.0956 68.3456 54.8058C69.7411 53.5177 71.9026 53.5667 73.7671 53.1885C75.456 52.8459 77.1662 52.9466 78.8676 52.6714Z" stroke="#4F8A3A" stroke-opacity="0.35" stroke-width="0.5" shape-rendering="crispEdges"/>
</g>
<g filter="url(#filter22_d_239_16)">
<path fill-rule="evenodd" clip-rule="evenodd" d="M67.85 31.861C70.0759 31.501 72.3029 29.6431 74.4066 30.452C76.5094 31.2605 76.9492 34.0912 78.3083 35.8822C79.4719 37.4157 80.8327 38.7398 81.9074 40.3364C83.0691 42.0625 84.6195 43.677 84.937 45.7307C85.2551 47.7877 84.2963 49.8047 83.6787 51.7929C83.0692 53.7552 82.6282 55.8514 81.3043 57.4264C79.9897 58.9903 77.8921 59.5875 76.1828 60.7108C74.4337 61.8602 73.0807 63.8177 71.018 64.1861C68.954 64.5547 66.9902 63.2303 64.9579 62.7155C63.0219 62.2251 61.0752 61.9219 59.2152 61.1963C57.1574 60.3935 54.7415 59.9238 53.3723 58.196C52.0065 56.4723 52.2088 54.0122 51.8111 51.8524C51.4376 49.8236 50.7655 47.7986 51.0826 45.7602C51.3959 43.7464 52.8239 42.1278 53.6163 40.249C54.4526 38.2663 54.3412 35.7417 55.925 34.2799C57.5066 32.8201 59.9563 32.8756 62.0693 32.447C63.9835 32.0587 65.9217 32.1728 67.85 31.861Z" fill="url(#paint18_linear_239_16)" shape-rendering="crispEdges"/>
<path fill-rule="evenodd" clip-rule="evenodd" d="M67.85 31.861C70.0759 31.501 72.3029 29.6431 74.4066 30.452C76.5094 31.2605 76.9492 34.0912 78.3083 35.8822C79.4719 37.4157 80.8327 38.7398 81.9074 40.3364C83.0691 42.0625 84.6195 43.677 84.937 45.7307C85.2551 47.7877 84.2963 49.8047 83.6787 51.7929C83.0692 53.7552 82.6282 55.8514 81.3043 57.4264C79.9897 58.9903 77.8921 59.5875 76.1828 60.7108C74.4337 61.8602 73.0807 63.8177 71.018 64.1861C68.954 64.5547 66.9902 63.2303 64.9579 62.7155C63.0219 62.2251 61.0752 61.9219 59.2152 61.1963C57.1574 60.3935 54.7415 59.9238 53.3723 58.196C52.0065 56.4723 52.2088 54.0122 51.8111 51.8524C51.4376 49.8236 50.7655 47.7986 51.0826 45.7602C51.3959 43.7464 52.8239 42.1278 53.6163 40.249C54.4526 38.2663 54.3412 35.7417 55.925 34.2799C57.5066 32.8201 59.9563 32.8756 62.0693 32.447C63.9835 32.0587 65.9217 32.1728 67.85 31.861Z" stroke="#4F8A3A" stroke-opacity="0.35" stroke-width="0.5" shape-rendering="crispEdges"/>
</g>
<g filter="url(#filter23_d_239_16)">
<path fill-rule="evenodd" clip-rule="evenodd" d="M48.2428 42.3971C50.1628 42.3975 52.132 41.9985 53.9494 42.6164C55.7794 43.2386 57.2712 44.5729 58.6426 45.9329C59.9893 47.2684 61.1116 48.8078 61.921 50.5218C62.7234 52.2212 62.8902 54.1029 63.3597 55.9223C63.8904 57.9788 65.4087 59.9892 64.8957 62.0502C64.3867 64.0955 62.017 65.0651 60.6786 66.6948C59.386 68.2688 58.7746 70.4359 57.0799 71.5674C55.3824 72.701 53.1818 72.604 51.1854 73.0338C49.1494 73.4722 47.1269 74.5902 45.0915 74.1487C43.0531 73.7065 41.521 72.0338 40.001 70.6078C38.6154 69.3079 37.7665 67.5936 36.5497 66.135C35.2828 64.6163 33.4039 63.5723 32.6186 61.7581C31.8231 59.9201 31.9833 57.8257 32.0877 55.8262C32.194 53.7873 32.1677 51.6021 33.2393 49.863C34.3093 48.1266 36.4371 47.4107 38.0466 46.1558C39.5625 44.9737 40.731 43.2796 42.5354 42.6144C44.3367 41.9504 46.3226 42.3968 48.2428 42.3971Z" fill="url(#paint19_linear_239_16)" shape-rendering="crispEdges"/>
<path fill-rule="evenodd" clip-rule="evenodd" d="M48.2428 42.3971C50.1628 42.3975 52.132 41.9985 53.9494 42.6164C55.7794 43.2386 57.2712 44.5729 58.6426 45.9329C59.9893 47.2684 61.1116 48.8078 61.921 50.5218C62.7234 52.2212 62.8902 54.1029 63.3597 55.9223C63.8904 57.9788 65.4087 59.9892 64.8957 62.0502C64.3867 64.0955 62.017 65.0651 60.6786 66.6948C59.386 68.2688 58.7746 70.4359 57.0799 71.5674C55.3824 72.701 53.1818 72.604 51.1854 73.0338C49.1494 73.4722 47.1269 74.5902 45.0915 74.1487C43.0531 73.7065 41.521 72.0338 40.001 70.6078C38.6154 69.3079 37.7665 67.5936 36.5497 66.135C35.2828 64.6163 33.4039 63.5723 32.6186 61.7581C31.8231 59.9201 31.9833 57.8257 32.0877 55.8262C32.194 53.7873 32.1677 51.6021 33.2393 49.863C34.3093 48.1266 36.4371 47.4107 38.0466 46.1558C39.5625 44.9737 40.731 43.2796 42.5354 42.6144C44.3367 41.9504 46.3226 42.3968 48.2428 42.3971Z" stroke="#4F8A3A" stroke-opacity="0.35" stroke-width="0.5" shape-rendering="crispEdges"/>
</g>
<g filter="url(#filter24_f_239_16)">
<rect x="42" y="172.25" width="38" height="20" fill="black" fill-opacity="0.6"/>
</g>
<g filter="url(#filter25_d_239_16)">
<path fill-rule="evenodd" clip-rule="evenodd" d="M44.134 191.823C44.5246 189.707 46.7019 188.485 47.827 186.663C48.8003 185.087 49.2119 183.23 50.3437 181.768C51.5825 180.168 52.8765 178.427 54.751 177.719C56.6323 177.009 58.7683 177.312 60.7015 177.858C62.5286 178.374 63.8265 179.961 65.549 180.769C67.4613 181.665 70.0457 181.279 71.437 182.89C72.8037 184.472 72.2437 186.956 72.6753 189.019C73.1089 191.091 74.3059 193.062 74.0041 195.158C73.6999 197.271 72.3438 199.069 70.9935 200.701C69.6861 202.282 67.9898 203.405 66.2726 204.504C64.508 205.633 61.5682 204.252 59.5 204.504C57.4256 204.756 56.7469 205.133 54.751 204.504C52.7285 203.866 50.4293 204.952 48.8382 203.528C47.2427 202.099 46.5523 199.932 45.7469 197.929C44.9545 195.957 43.7473 193.917 44.134 191.823Z" fill="url(#paint20_linear_239_16)"/>
</g>
<g filter="url(#filter26_d_239_16)">
<path fill-rule="evenodd" clip-rule="evenodd" d="M72 203.149C69.8278 202.575 69.0962 201.817 67.5001 200.25C65.9064 198.686 63.2176 197.614 62.9462 195.457C62.6955 193.465 63.495 191.577 63.7621 189.603C64.0182 187.709 63.5424 185.628 64.4986 183.979C65.4547 182.331 67.6498 181.839 69.0336 180.513C70.6559 178.958 71.1686 176.096 73.3736 175.474C75.5252 174.867 77.6106 176.945 79.8221 177.47C81.9866 177.984 84.6626 177.081 86.3256 178.549C88.0425 180.065 87.2829 182.879 88.2543 184.915C89.1115 186.712 91.1834 187.868 91.6816 189.779C92.1876 191.72 91.4574 193.689 91.0455 195.622C90.6067 197.682 89.811 200.112 88.2543 201.546C86.6781 202.998 84.9836 202.578 82.875 203.149C81.0226 203.651 79.4311 203.749 77.5001 203.872C75.5066 203.999 73.9475 203.664 72 203.149Z" fill="url(#paint21_linear_239_16)"/>
</g>
<g filter="url(#filter27_d_239_16)">
<path fill-rule="evenodd" clip-rule="evenodd" d="M50.878 200.216C49.4492 201.652 47.9708 201.231 46 201.75C44.1059 202.249 41.4706 201.769 39.5 201.75C37.4339 201.73 36.4751 202.405 34.5 201.75C32.4205 201.061 29.2031 200.154 28.1047 198.25C26.9868 196.312 26.0634 195.405 25.5 193.25C24.9459 191.131 26.5363 188.928 26.5 186.75C26.464 184.59 26.5826 182.245 28.1047 180.75C29.5855 179.295 30.8094 178.456 32.5 177.25C34.3012 175.965 35.5876 174.651 37.6731 173.888C39.7194 173.139 42.9978 174.299 45 175.25C46.9402 176.171 47.1237 177.715 48.7371 179.141C50.2899 180.514 51.2783 179.816 52 181.75C52.7422 183.739 51.9841 188.143 52 190.25C52.0149 192.222 53.9075 192.921 53.6312 194.866C53.3442 196.887 52.3049 198.782 50.878 200.216Z" fill="url(#paint22_linear_239_16)"/>
</g>
<defs>
<filter id="filter0_f_239_16" x="0" y="173.25" width="116" height="53" filterUnits="userSpaceOnUse" color-interpolation-filters="sRGB">
<feFlood flood-opacity="0" result="BackgroundImageFix"/>
<feBlend mode="normal" in="SourceGraphic" in2="BackgroundImageFix" result="shape"/>
<feGaussianBlur stdDeviation="9" result="effect1_foregroundBlur_239_16"/>
</filter>
<filter id="filter1_f_239_16" x="6" y="169.25" width="106" height="54" filterUnits="userSpaceOnUse" color-interpolation-filters="sRGB">
<feFlood flood-opacity="0" result="BackgroundImageFix"/>
<feBlend mode="normal" in="SourceGraphic" in2="BackgroundImageFix" result="shape"/>
<feGaussianBlur stdDeviation="9" result="effect1_foregroundBlur_239_16"/>
</filter>
<filter id="filter2_d_239_16" x="35.866" y="88.5195" width="48.1443" height="117.731" filterUnits="userSpaceOnUse" color-interpolation-filters="sRGB">
<feFlood flood-opacity="0" result="BackgroundImageFix"/>
<feColorMatrix in="SourceAlpha" type="matrix" values="0 0 0 0 0 0 0 0 0 0 0 0 0 0 0 0 0 0 127 0" result="hardAlpha"/>
<feOffset dy="3"/>
<feGaussianBlur stdDeviation="2.5"/>
<feComposite in2="hardAlpha" operator="out"/>
<feColorMatrix type="matrix" values="0 0 0 0 0 0 0 0 0 0 0 0 0 0 0 0 0 0 0.2 0"/>
<feBlend mode="normal" in2="BackgroundImageFix" result="effect1_dropShadow_239_16"/>
<feBlend mode="normal" in="SourceGraphic" in2="effect1_dropShadow_239_16" result="shape"/>
</filter>
<filter id="filter3_d_239_16" x="38.9587" y="88.5195" width="41.9587" height="117.731" filterUnits="userSpaceOnUse" color-interpolation-filters="sRGB">
<feFlood flood-opacity="0" result="BackgroundImageFix"/>
<feColorMatrix in="SourceAlpha" type="matrix" values="0 0 0 0 0 0 0 0 0 0 0 0 0 0 0 0 0 0 127 0" result="hardAlpha"/>
<feOffset dy="3"/>
<feGaussianBlur stdDeviation="2.5"/>
<feComposite in2="hardAlpha" operator="out"/>
<feColorMatrix type="matrix" values="0 0 0 0 0 0 0 0 0 0 0 0 0 0 0 0 0 0 0.2 0"/>
<feBlend mode="normal" in2="BackgroundImageFix" result="effect1_dropShadow_239_16"/>
<feBlend mode="normal" in="SourceGraphic" in2="effect1_dropShadow_239_16" result="shape"/>
</filter>
<filter id="filter4_f_239_16" x="31" y="87.25" width="58" height="35" filterUnits="userSpaceOnUse" color-interpolation-filters="sRGB">
<feFlood flood-opacity="0" result="BackgroundImageFix"/>
<feBlend mode="normal" in="SourceGraphic" in2="BackgroundImageFix" result="shape"/>
<feGaussianBlur stdDeviation="5" result="effect1_foregroundBlur_239_16"/>
</filter>
<filter id="filter5_d_239_16" x="55.7501" y="64" width="45.4999" height="47.5" filterUnits="userSpaceOnUse" color-interpolation-filters="sRGB">
<feFlood flood-opacity="0" result="BackgroundImageFix"/>
<feColorMatrix in="SourceAlpha" type="matrix" values="0 0 0 0 0 0 0 0 0 0 0 0 0 0 0 0 0 0 127 0" result="hardAlpha"/>
<feOffset dy="2"/>
<feGaussianBlur stdDeviation="0.5"/>
<feComposite in2="hardAlpha" operator="out"/>
<feColorMatrix type="matrix" values="0 0 0 0 0.14009 0 0 0 0 0.158654 0 0 0 0 0.133483 0 0 0 0.15 0"/>
<feBlend mode="normal" in2="BackgroundImageFix" result="effect1_dropShadow_239_16"/>
<feBlend mode="normal" in="SourceGraphic" in2="effect1_dropShadow_239_16" result="shape"/>
</filter>
<filter id="filter6_d_239_16" x="26.75" y="0" width="48.5" height="49.5" filterUnits="userSpaceOnUse" color-interpolation-filters="sRGB">
<feFlood flood-opacity="0" result="BackgroundImageFix"/>
<feColorMatrix in="SourceAlpha" type="matrix" values="0 0 0 0 0 0 0 0 0 0 0 0 0 0 0 0 0 0 127 0" result="hardAlpha"/>
<feOffset dy="2"/>
<feGaussianBlur stdDeviation="0.5"/>
<feComposite in2="hardAlpha" operator="out"/>
<feColorMatrix type="matrix" values="0 0 0 0 0.14009 0 0 0 0 0.158654 0 0 0 0 0.133483 0 0 0 0.15 0"/>
<feBlend mode="normal" in2="BackgroundImageFix" result="effect1_dropShadow_239_16"/>
<feBlend mode="normal" in="SourceGraphic" in2="effect1_dropShadow_239_16" result="shape"/>
</filter>
<filter id="filter7_d_239_16" x="63.7501" y="25" width="45.4999" height="47.5" filterUnits="userSpaceOnUse" color-interpolation-filters="sRGB">
<feFlood flood-opacity="0" result="BackgroundImageFix"/>
<feColorMatrix in="SourceAlpha" type="matrix" values="0 0 0 0 0 0 0 0 0 0 0 0 0 0 0 0 0 0 127 0" result="hardAlpha"/>
<feOffset dy="2"/>
<feGaussianBlur stdDeviation="0.5"/>
<feComposite in2="hardAlpha" operator="out"/>
<feColorMatrix type="matrix" values="0 0 0 0 0.14009 0 0 0 0 0.158654 0 0 0 0 0.133483 0 0 0 0.15 0"/>
<feBlend mode="normal" in2="BackgroundImageFix" result="effect1_dropShadow_239_16"/>
<feBlend mode="normal" in="SourceGraphic" in2="effect1_dropShadow_239_16" result="shape"/>
</filter>
<filter id="filter8_d_239_16" x="38.75" y="71.9999" width="36.5" height="39.5001" filterUnits="userSpaceOnUse" color-interpolation-filters="sRGB">
<feFlood flood-opacity="0" result="BackgroundImageFix"/>
<feColorMatrix in="SourceAlpha" type="matrix" values="0 0 0 0 0 0 0 0 0 0 0 0 0 0 0 0 0 0 127 0" result="hardAlpha"/>
<feOffset dy="2"/>
<feGaussianBlur stdDeviation="0.5"/>
<feComposite in2="hardAlpha" operator="out"/>
<feColorMatrix type="matrix" values="0 0 0 0 0.14009 0 0 0 0 0.158654 0 0 0 0 0.133483 0 0 0 0.15 0"/>
<feBlend mode="normal" in2="BackgroundImageFix" result="effect1_dropShadow_239_16"/>
<feBlend mode="normal" in="SourceGraphic" in2="effect1_dropShadow_239_16" result="shape"/>
</filter>
<filter id="filter9_d_239_16" x="7.75" y="30" width="25.5" height="26.5" filterUnits="userSpaceOnUse" color-interpolation-filters="sRGB">
<feFlood flood-opacity="0" result="BackgroundImageFix"/>
<feColorMatrix in="SourceAlpha" type="matrix" values="0 0 0 0 0 0 0 0 0 0 0 0 0 0 0 0 0 0 127 0" result="hardAlpha"/>
<feOffset dy="2"/>
<feGaussianBlur stdDeviation="0.5"/>
<feComposite in2="hardAlpha" operator="out"/>
<feColorMatrix type="matrix" values="0 0 0 0 0.14009 0 0 0 0 0.158654 0 0 0 0 0.133483 0 0 0 0.15 0"/>
<feBlend mode="normal" in2="BackgroundImageFix" result="effect1_dropShadow_239_16"/>
<feBlend mode="normal" in="SourceGraphic" in2="effect1_dropShadow_239_16" result="shape"/>
</filter>
<filter id="filter10_d_239_16" x="20.7501" y="64" width="40.4999" height="42.5" filterUnits="userSpaceOnUse" color-interpolation-filters="sRGB">
<feFlood flood-opacity="0" result="BackgroundImageFix"/>
<feColorMatrix in="SourceAlpha" type="matrix" values="0 0 0 0 0 0 0 0 0 0 0 0 0 0 0 0 0 0 127 0" result="hardAlpha"/>
<feOffset dy="2"/>
<feGaussianBlur stdDeviation="0.5"/>
<feComposite in2="hardAlpha" operator="out"/>
<feColorMatrix type="matrix" values="0 0 0 0 0.14009 0 0 0 0 0.158654 0 0 0 0 0.133483 0 0 0 0.15 0"/>
<feBlend mode="normal" in2="BackgroundImageFix" result="effect1_dropShadow_239_16"/>
<feBlend mode="normal" in="SourceGraphic" in2="effect1_dropShadow_239_16" result="shape"/>
</filter>
<filter id="filter11_d_239_16" x="11.7501" y="9" width="40.4999" height="42.5" filterUnits="userSpaceOnUse" color-interpolation-filters="sRGB">
<feFlood flood-opacity="0" result="BackgroundImageFix"/>
<feColorMatrix in="SourceAlpha" type="matrix" values="0 0 0 0 0 0 0 0 0 0 0 0 0 0 0 0 0 0 127 0" result="hardAlpha"/>
<feOffset dy="2"/>
<feGaussianBlur stdDeviation="0.5"/>
<feComposite in2="hardAlpha" operator="out"/>
<feColorMatrix type="matrix" values="0 0 0 0 0.14009 0 0 0 0 0.158654 0 0 0 0 0.133483 0 0 0 0.15 0"/>
<feBlend mode="normal" in2="BackgroundImageFix" result="effect1_dropShadow_239_16"/>
<feBlend mode="normal" in="SourceGraphic" in2="effect1_dropShadow_239_16" result="shape"/>
</filter>
<filter id="filter12_d_239_16" x="49.75" y="59.9999" width="22.5" height="24.5001" filterUnits="userSpaceOnUse" color-interpolation-filters="sRGB">
<feFlood flood-opacity="0" result="BackgroundImageFix"/>
<feColorMatrix in="SourceAlpha" type="matrix" values="0 0 0 0 0 0 0 0 0 0 0 0 0 0 0 0 0 0 127 0" result="hardAlpha"/>
<feOffset dy="2"/>
<feGaussianBlur stdDeviation="0.5"/>
<feComposite in2="hardAlpha" operator="out"/>
<feColorMatrix type="matrix" values="0 0 0 0 0.14009 0 0 0 0 0.158654 0 0 0 0 0.133483 0 0 0 0.15 0"/>
<feBlend mode="normal" in2="BackgroundImageFix" result="effect1_dropShadow_239_16"/>
<feBlend mode="normal" in="SourceGraphic" in2="effect1_dropShadow_239_16" result="shape"/>
</filter>
<filter id="filter13_d_239_16" x="60.295" y="1.89948" width="20.7427" height="22.2459" filterUnits="userSpaceOnUse" color-interpolation-filters="sRGB">
<feFlood flood-opacity="0" result="BackgroundImageFix"/>
<feColorMatrix in="SourceAlpha" type="matrix" values="0 0 0 0 0 0 0 0 0 0 0 0 0 0 0 0 0 0 127 0" result="hardAlpha"/>
<feOffset dy="2"/>
<feGaussianBlur stdDeviation="0.5"/>
<feComposite in2="hardAlpha" operator="out"/>
<feColorMatrix type="matrix" values="0 0 0 0 0.14009 0 0 0 0 0.158654 0 0 0 0 0.133483 0 0 0 0.15 0"/>
<feBlend mode="normal" in2="BackgroundImageFix" result="effect1_dropShadow_239_16"/>
<feBlend mode="normal" in="SourceGraphic" in2="effect1_dropShadow_239_16" result="shape"/>
</filter>
<filter id="filter14_d_239_16" x="38.75" y="8.99994" width="36.5" height="39.5001" filterUnits="userSpaceOnUse" color-interpolation-filters="sRGB">
<feFlood flood-opacity="0" result="BackgroundImageFix"/>
<feColorMatrix in="SourceAlpha" type="matrix" values="0 0 0 0 0 0 0 0 0 0 0 0 0 0 0 0 0 0 127 0" result="hardAlpha"/>
<feOffset dy="2"/>
<feGaussianBlur stdDeviation="0.5"/>
<feComposite in2="hardAlpha" operator="out"/>
<feColorMatrix type="matrix" values="0 0 0 0 0.14009 0 0 0 0 0.158654 0 0 0 0 0.133483 0 0 0 0.15 0"/>
<feBlend mode="normal" in2="BackgroundImageFix" result="effect1_dropShadow_239_16"/>
<feBlend mode="normal" in="SourceGraphic" in2="effect1_dropShadow_239_16" result="shape"/>
</filter>
<filter id="filter15_d_239_16" x="32.75" y="26.9999" width="27.5" height="29.5001" filterUnits="userSpaceOnUse" color-interpolation-filters="sRGB">
<feFlood flood-opacity="0" result="BackgroundImageFix"/>
<feColorMatrix in="SourceAlpha" type="matrix" values="0 0 0 0 0 0 0 0 0 0 0 0 0 0 0 0 0 0 127 0" result="hardAlpha"/>
<feOffset dy="2"/>
<feGaussianBlur stdDeviation="0.5"/>
<feComposite in2="hardAlpha" operator="out"/>
<feColorMatrix type="matrix" values="0 0 0 0 0.14009 0 0 0 0 0.158654 0 0 0 0 0.133483 0 0 0 0.15 0"/>
<feBlend mode="normal" in2="BackgroundImageFix" result="effect1_dropShadow_239_16"/>
<feBlend mode="normal" in="SourceGraphic" in2="effect1_dropShadow_239_16" result="shape"/>
</filter>
<filter id="filter16_d_239_16" x="10.75" y="64.9999" width="22.5" height="24.5001" filterUnits="userSpaceOnUse" color-interpolation-filters="sRGB">
<feFlood flood-opacity="0" result="BackgroundImageFix"/>
<feColorMatrix in="SourceAlpha" type="matrix" values="0 0 0 0 0 0 0 0 0 0 0 0 0 0 0 0 0 0 127 0" result="hardAlpha"/>
<feOffset dy="2"/>
<feGaussianBlur stdDeviation="0.5"/>
<feComposite in2="hardAlpha" operator="out"/>
<feColorMatrix type="matrix" values="0 0 0 0 0.14009 0 0 0 0 0.158654 0 0 0 0 0.133483 0 0 0 0.15 0"/>
<feBlend mode="normal" in2="BackgroundImageFix" result="effect1_dropShadow_239_16"/>
<feBlend mode="normal" in="SourceGraphic" in2="effect1_dropShadow_239_16" result="shape"/>
</filter>
<filter id="filter17_d_239_16" x="9.74976" y="42" width="39.5002" height="39.5" filterUnits="userSpaceOnUse" color-interpolation-filters="sRGB">
<feFlood flood-opacity="0" result="BackgroundImageFix"/>
<feColorMatrix in="SourceAlpha" type="matrix" values="0 0 0 0 0 0 0 0 0 0 0 0 0 0 0 0 0 0 127 0" result="hardAlpha"/>
<feOffset dy="2"/>
<feGaussianBlur stdDeviation="0.5"/>
<feComposite in2="hardAlpha" operator="out"/>
<feColorMatrix type="matrix" values="0 0 0 0 0.14009 0 0 0 0 0.158654 0 0 0 0 0.133483 0 0 0 0.15 0"/>
<feBlend mode="normal" in2="BackgroundImageFix" result="effect1_dropShadow_239_16"/>
<feBlend mode="normal" in="SourceGraphic" in2="effect1_dropShadow_239_16" result="shape"/>
</filter>
<filter id="filter18_d_239_16" x="62.7498" y="5" width="39.5002" height="39.5" filterUnits="userSpaceOnUse" color-interpolation-filters="sRGB">
<feFlood flood-opacity="0" result="BackgroundImageFix"/>
<feColorMatrix in="SourceAlpha" type="matrix" values="0 0 0 0 0 0 0 0 0 0 0 0 0 0 0 0 0 0 127 0" result="hardAlpha"/>
<feOffset dy="2"/>
<feGaussianBlur stdDeviation="0.5"/>
<feComposite in2="hardAlpha" operator="out"/>
<feColorMatrix type="matrix" values="0 0 0 0 0.14009 0 0 0 0 0.158654 0 0 0 0 0.133483 0 0 0 0.15 0"/>
<feBlend mode="normal" in2="BackgroundImageFix" result="effect1_dropShadow_239_16"/>
<feBlend mode="normal" in="SourceGraphic" in2="effect1_dropShadow_239_16" result="shape"/>
</filter>
<filter id="filter19_d_239_16" x="77.75" y="57" width="29.5" height="30.5" filterUnits="userSpaceOnUse" color-interpolation-filters="sRGB">
<feFlood flood-opacity="0" result="BackgroundImageFix"/>
<feColorMatrix in="SourceAlpha" type="matrix" values="0 0 0 0 0 0 0 0 0 0 0 0 0 0 0 0 0 0 127 0" result="hardAlpha"/>
<feOffset dy="2"/>
<feGaussianBlur stdDeviation="0.5"/>
<feComposite in2="hardAlpha" operator="out"/>
<feColorMatrix type="matrix" values="0 0 0 0 0.14009 0 0 0 0 0.158654 0 0 0 0 0.133483 0 0 0 0.15 0"/>
<feBlend mode="normal" in2="BackgroundImageFix" result="effect1_dropShadow_239_16"/>
<feBlend mode="normal" in="SourceGraphic" in2="effect1_dropShadow_239_16" result="shape"/>
</filter>
<filter id="filter20_d_239_16" x="53.75" y="25" width="18.5" height="19.5" filterUnits="userSpaceOnUse" color-interpolation-filters="sRGB">
<feFlood flood-opacity="0" result="BackgroundImageFix"/>
<feColorMatrix in="SourceAlpha" type="matrix" values="0 0 0 0 0 0 0 0 0 0 0 0 0 0 0 0 0 0 127 0" result="hardAlpha"/>
<feOffset dy="2"/>
<feGaussianBlur stdDeviation="0.5"/>
<feComposite in2="hardAlpha" operator="out"/>
<feColorMatrix type="matrix" values="0 0 0 0 0.14009 0 0 0 0 0.158654 0 0 0 0 0.133483 0 0 0 0.15 0"/>
<feBlend mode="normal" in2="BackgroundImageFix" result="effect1_dropShadow_239_16"/>
<feBlend mode="normal" in="SourceGraphic" in2="effect1_dropShadow_239_16" result="shape"/>
</filter>
<filter id="filter21_d_239_16" x="62.75" y="51" width="32.5" height="33.5" filterUnits="userSpaceOnUse" color-interpolation-filters="sRGB">
<feFlood flood-opacity="0" result="BackgroundImageFix"/>
<feColorMatrix in="SourceAlpha" type="matrix" values="0 0 0 0 0 0 0 0 0 0 0 0 0 0 0 0 0 0 127 0" result="hardAlpha"/>
<feOffset dy="2"/>
<feGaussianBlur stdDeviation="0.5"/>
<feComposite in2="hardAlpha" operator="out"/>
<feColorMatrix type="matrix" values="0 0 0 0 0.14009 0 0 0 0 0.158654 0 0 0 0 0.133483 0 0 0 0.15 0"/>
<feBlend mode="normal" in2="BackgroundImageFix" result="effect1_dropShadow_239_16"/>
<feBlend mode="normal" in="SourceGraphic" in2="effect1_dropShadow_239_16" result="shape"/>
</filter>
<filter id="filter22_d_239_16" x="49.75" y="30" width="36.5" height="37.5" filterUnits="userSpaceOnUse" color-interpolation-filters="sRGB">
<feFlood flood-opacity="0" result="BackgroundImageFix"/>
<feColorMatrix in="SourceAlpha" type="matrix" values="0 0 0 0 0 0 0 0 0 0 0 0 0 0 0 0 0 0 127 0" result="hardAlpha"/>
<feOffset dy="2"/>
<feGaussianBlur stdDeviation="0.5"/>
<feComposite in2="hardAlpha" operator="out"/>
<feColorMatrix type="matrix" values="0 0 0 0 0.14009 0 0 0 0 0.158654 0 0 0 0 0.133483 0 0 0 0.15 0"/>
<feBlend mode="normal" in2="BackgroundImageFix" result="effect1_dropShadow_239_16"/>
<feBlend mode="normal" in="SourceGraphic" in2="effect1_dropShadow_239_16" result="shape"/>
</filter>
<filter id="filter23_d_239_16" x="30.7498" y="42" width="35.5002" height="35.5" filterUnits="userSpaceOnUse" color-interpolation-filters="sRGB">
<feFlood flood-opacity="0" result="BackgroundImageFix"/>
<feColorMatrix in="SourceAlpha" type="matrix" values="0 0 0 0 0 0 0 0 0 0 0 0 0 0 0 0 0 0 127 0" result="hardAlpha"/>
<feOffset dy="2"/>
<feGaussianBlur stdDeviation="0.5"/>
<feComposite in2="hardAlpha" operator="out"/>
<feColorMatrix type="matrix" values="0 0 0 0 0.14009 0 0 0 0 0.158654 0 0 0 0 0.133483 0 0 0 0.15 0"/>
<feBlend mode="normal" in2="BackgroundImageFix" result="effect1_dropShadow_239_16"/>
<feBlend mode="normal" in="SourceGraphic" in2="effect1_dropShadow_239_16" result="shape"/>
</filter>
<filter id="filter24_f_239_16" x="27" y="157.25" width="68" height="50" filterUnits="userSpaceOnUse" color-interpolation-filters="sRGB">
<feFlood flood-opacity="0" result="BackgroundImageFix"/>
<feBlend mode="normal" in="SourceGraphic" in2="BackgroundImageFix" result="shape"/>
<feGaussianBlur stdDeviation="7.5" result="effect1_foregroundBlur_239_16"/>
</filter>
<filter id="filter25_d_239_16" x="35.0596" y="170.303" width="47.9927" height="45.6505" filterUnits="userSpaceOnUse" color-interpolation-filters="sRGB">
<feFlood flood-opacity="0" result="BackgroundImageFix"/>
<feColorMatrix in="SourceAlpha" type="matrix" values="0 0 0 0 0 0 0 0 0 0 0 0 0 0 0 0 0 0 127 0" result="hardAlpha"/>
<feOffset dy="2"/>
<feGaussianBlur stdDeviation="4.5"/>
<feComposite in2="hardAlpha" operator="out"/>
<feColorMatrix type="matrix" values="0 0 0 0 0 0 0 0 0 0 0 0 0 0 0 0 0 0 0.2 0"/>
<feBlend mode="normal" in2="BackgroundImageFix" result="effect1_dropShadow_239_16"/>
<feBlend mode="normal" in="SourceGraphic" in2="effect1_dropShadow_239_16" result="shape"/>
</filter>
<filter id="filter26_d_239_16" x="58.8982" y="175.364" width="36.9556" height="36.5352" filterUnits="userSpaceOnUse" color-interpolation-filters="sRGB">
<feFlood flood-opacity="0" result="BackgroundImageFix"/>
<feColorMatrix in="SourceAlpha" type="matrix" values="0 0 0 0 0 0 0 0 0 0 0 0 0 0 0 0 0 0 127 0" result="hardAlpha"/>
<feOffset dy="4"/>
<feGaussianBlur stdDeviation="2"/>
<feComposite in2="hardAlpha" operator="out"/>
<feColorMatrix type="matrix" values="0 0 0 0 0 0 0 0 0 0 0 0 0 0 0 0 0 0 0.2 0"/>
<feBlend mode="normal" in2="BackgroundImageFix" result="effect1_dropShadow_239_16"/>
<feBlend mode="normal" in="SourceGraphic" in2="effect1_dropShadow_239_16" result="shape"/>
</filter>
<filter id="filter27_d_239_16" x="21.3827" y="173.648" width="36.276" height="36.3885" filterUnits="userSpaceOnUse" color-interpolation-filters="sRGB">
<feFlood flood-opacity="0" result="BackgroundImageFix"/>
<feColorMatrix in="SourceAlpha" type="matrix" values="0 0 0 0 0 0 0 0 0 0 0 0 0 0 0 0 0 0 127 0" result="hardAlpha"/>
<feOffset dy="4"/>
<feGaussianBlur stdDeviation="2"/>
<feComposite in2="hardAlpha" operator="out"/>
<feColorMatrix type="matrix" values="0 0 0 0 0 0 0 0 0 0 0 0 0 0 0 0 0 0 0.3 0"/>
<feBlend mode="normal" in2="BackgroundImageFix" result="effect1_dropShadow_239_16"/>
<feBlend mode="normal" in="SourceGraphic" in2="effect1_dropShadow_239_16" result="shape"/>
</filter>
<linearGradient id="paint0_linear_239_16" x1="59.9381" y1="90.5195" x2="59.9381" y2="198.25" gradientUnits="userSpaceOnUse">
<stop stop-color="#B17644"/>
<stop offset="1" stop-color="#8A522D"/>
</linearGradient>
<linearGradient id="paint1_linear_239_16" x1="78.5" y1="64.25" x2="78.5" y2="108.25" gradientUnits="userSpaceOnUse">
<stop stop-color="#7ABC62"/>
<stop offset="1" stop-color="#5C9949"/>
</linearGradient>
<linearGradient id="paint2_linear_239_16" x1="51" y1="0.25" x2="51" y2="46.25" gradientUnits="userSpaceOnUse">
<stop stop-color="#7ABC62"/>
<stop offset="1" stop-color="#5C9949"/>
</linearGradient>
<linearGradient id="paint3_linear_239_16" x1="86.5" y1="25.25" x2="86.5" y2="69.25" gradientUnits="userSpaceOnUse">
<stop stop-color="#7ABC62"/>
<stop offset="1" stop-color="#5C9949"/>
</linearGradient>
<linearGradient id="paint4_linear_239_16" x1="57" y1="72.25" x2="57" y2="108.25" gradientUnits="userSpaceOnUse">
<stop stop-color="#7ABC62"/>
<stop offset="1" stop-color="#5C9949"/>
</linearGradient>
<linearGradient id="paint5_linear_239_16" x1="20.5" y1="30.25" x2="20.5" y2="53.25" gradientUnits="userSpaceOnUse">
<stop stop-color="#7ABC62"/>
<stop offset="1" stop-color="#5C9949"/>
</linearGradient>
<linearGradient id="paint6_linear_239_16" x1="41" y1="64.25" x2="41" y2="103.25" gradientUnits="userSpaceOnUse">
<stop stop-color="#7ABC62"/>
<stop offset="1" stop-color="#5C9949"/>
</linearGradient>
<linearGradient id="paint7_linear_239_16" x1="32" y1="9.25" x2="32" y2="48.25" gradientUnits="userSpaceOnUse">
<stop stop-color="#7ABC62"/>
<stop offset="1" stop-color="#5C9949"/>
</linearGradient>
<linearGradient id="paint8_linear_239_16" x1="61" y1="60.25" x2="61" y2="81.25" gradientUnits="userSpaceOnUse">
<stop stop-color="#7ABC62"/>
<stop offset="1" stop-color="#5C9949"/>
</linearGradient>
<linearGradient id="paint9_linear_239_16" x1="68.8288" y1="20.7909" x2="72.346" y2="1.8932" gradientUnits="userSpaceOnUse">
<stop stop-color="#7ABC62"/>
<stop offset="1" stop-color="#5C9949"/>
</linearGradient>
<linearGradient id="paint10_linear_239_16" x1="57" y1="9.25" x2="57" y2="45.25" gradientUnits="userSpaceOnUse">
<stop stop-color="#7ABC62"/>
<stop offset="1" stop-color="#5C9949"/>
</linearGradient>
<linearGradient id="paint11_linear_239_16" x1="46.5" y1="27.25" x2="46.5" y2="53.25" gradientUnits="userSpaceOnUse">
<stop stop-color="#7ABC62"/>
<stop offset="1" stop-color="#5C9949"/>
</linearGradient>
<linearGradient id="paint12_linear_239_16" x1="22" y1="65.25" x2="22" y2="86.25" gradientUnits="userSpaceOnUse">
<stop stop-color="#7ABC62"/>
<stop offset="1" stop-color="#5C9949"/>
</linearGradient>
<linearGradient id="paint13_linear_239_16" x1="29.5" y1="42.25" x2="29.5" y2="78.25" gradientUnits="userSpaceOnUse">
<stop stop-color="#7ABC62"/>
<stop offset="1" stop-color="#5C9949"/>
</linearGradient>
<linearGradient id="paint14_linear_239_16" x1="82.5" y1="5.25" x2="82.5" y2="41.25" gradientUnits="userSpaceOnUse">
<stop stop-color="#7ABC62"/>
<stop offset="1" stop-color="#5C9949"/>
</linearGradient>
<linearGradient id="paint15_linear_239_16" x1="92.5" y1="57.25" x2="92.5" y2="84.25" gradientUnits="userSpaceOnUse">
<stop stop-color="#7ABC62"/>
<stop offset="1" stop-color="#5C9949"/>
</linearGradient>
<linearGradient id="paint16_linear_239_16" x1="63" y1="25.25" x2="63" y2="41.25" gradientUnits="userSpaceOnUse">
<stop stop-color="#7ABC62"/>
<stop offset="1" stop-color="#5C9949"/>
</linearGradient>
<linearGradient id="paint17_linear_239_16" x1="79" y1="51.25" x2="79" y2="81.25" gradientUnits="userSpaceOnUse">
<stop stop-color="#7ABC62"/>
<stop offset="1" stop-color="#5C9949"/>
</linearGradient>
<linearGradient id="paint18_linear_239_16" x1="68" y1="30.25" x2="68" y2="64.25" gradientUnits="userSpaceOnUse">
<stop stop-color="#7ABC62"/>
<stop offset="1" stop-color="#5C9949"/>
</linearGradient>
<linearGradient id="paint19_linear_239_16" x1="48.5" y1="42.25" x2="48.5" y2="74.25" gradientUnits="userSpaceOnUse">
<stop stop-color="#7ABC62"/>
<stop offset="1" stop-color="#5C9949"/>
</linearGradient>
<linearGradient id="paint20_linear_239_16" x1="58.9999" y1="207.311" x2="59.1219" y2="177.311" gradientUnits="userSpaceOnUse">
<stop stop-color="#6BAE55"/>
<stop offset="1" stop-color="#497C39"/>
</linearGradient>
<linearGradient id="paint21_linear_239_16" x1="91.4994" y1="197.047" x2="64.0313" y2="184.984" gradientUnits="userSpaceOnUse">
<stop stop-color="#6BAE55"/>
<stop offset="1" stop-color="#497C39"/>
</linearGradient>
<linearGradient id="paint22_linear_239_16" x1="50.653" y1="179.689" x2="29.3752" y2="200.837" gradientUnits="userSpaceOnUse">
<stop stop-color="#6BAE55"/>
<stop offset="1" stop-color="#497C39"/>
</linearGradient>
</defs>
</svg>
