<svg width="600" height="513" viewBox="0 0 600 513" fill="none" xmlns="http://www.w3.org/2000/svg">
<g filter="url(#filter0_f_226_4)">
<ellipse cx="535" cy="486.5" rx="40" ry="8.5" fill="black" fill-opacity="0.7"/>
</g>
<g filter="url(#filter1_f_226_4)">
<ellipse cx="536" cy="483" rx="35" ry="9" fill="black"/>
</g>
<g filter="url(#filter2_d_226_4)">
<rect x="517.866" y="377.269" width="38.1443" height="107.73" rx="12" fill="url(#paint0_linear_226_4)"/>
</g>
<g filter="url(#filter3_d_226_4)">
<rect x="520.959" y="377.269" width="31.9588" height="107.73" rx="12" fill="#C48A55" fill-opacity="0.3" shape-rendering="crispEdges"/>
</g>
<g filter="url(#filter4_f_226_4)">
<rect x="518" y="384" width="38" height="15" rx="7.5" fill="black"/>
</g>
<g filter="url(#filter5_d_226_4)">
<path fill-rule="evenodd" clip-rule="evenodd" d="M555.601 351.561C558.324 351.174 561.308 350.462 563.778 351.683C566.276 352.917 567.326 355.924 568.991 358.176C570.449 360.15 571.76 362.156 573.057 364.241C574.45 366.479 576.774 368.393 576.987 371.029C577.2 373.669 574.782 375.803 574.199 378.386C573.584 381.113 574.732 384.19 573.458 386.673C572.193 389.14 569.747 390.927 567.215 392.006C564.735 393.063 561.886 392.227 559.241 392.732C556.592 393.238 554.237 395.038 551.541 394.999C548.771 394.96 545.805 394.305 543.678 392.51C541.539 390.704 541.45 387.374 539.809 385.096C538.197 382.858 534.761 381.907 534.107 379.219C533.445 376.502 536.06 374.009 536.433 371.237C536.789 368.587 535.422 365.826 536.249 363.286C537.082 360.725 538.979 358.58 541.088 356.931C543.158 355.311 545.81 354.796 548.268 353.887C550.694 352.989 553.042 351.924 555.601 351.561Z" fill="url(#paint1_linear_226_4)" shape-rendering="crispEdges"/>
<path fill-rule="evenodd" clip-rule="evenodd" d="M555.601 351.561C558.324 351.174 561.308 350.462 563.778 351.683C566.276 352.917 567.326 355.924 568.991 358.176C570.449 360.15 571.76 362.156 573.057 364.241C574.45 366.479 576.774 368.393 576.987 371.029C577.2 373.669 574.782 375.803 574.199 378.386C573.584 381.113 574.732 384.19 573.458 386.673C572.193 389.14 569.747 390.927 567.215 392.006C564.735 393.063 561.886 392.227 559.241 392.732C556.592 393.238 554.237 395.038 551.541 394.999C548.771 394.96 545.805 394.305 543.678 392.51C541.539 390.704 541.45 387.374 539.809 385.096C538.197 382.858 534.761 381.907 534.107 379.219C533.445 376.502 536.06 374.009 536.433 371.237C536.789 368.587 535.422 365.826 536.249 363.286C537.082 360.725 538.979 358.58 541.088 356.931C543.158 355.311 545.81 354.796 548.268 353.887C550.694 352.989 553.042 351.924 555.601 351.561Z" stroke="#4F8A3A" stroke-opacity="0.35" stroke-width="0.5" shape-rendering="crispEdges"/>
</g>
<g filter="url(#filter6_d_226_4)">
<path fill-rule="evenodd" clip-rule="evenodd" d="M527.797 289.18C530.809 288.693 533.822 286.179 536.668 287.273C539.513 288.367 540.108 292.197 541.946 294.62C543.521 296.695 545.362 298.486 546.816 300.646C548.388 302.982 550.485 305.166 550.915 307.945C551.345 310.727 550.048 313.456 549.212 316.146C548.388 318.801 547.791 321.637 546 323.768C544.221 325.884 541.383 326.692 539.071 328.212C536.704 329.767 534.874 332.415 532.083 332.914C529.291 333.412 526.634 331.62 523.884 330.924C521.265 330.26 518.631 329.85 516.115 328.869C513.331 327.782 510.062 327.147 508.21 324.809C506.362 322.477 506.635 319.149 506.097 316.227C505.592 313.482 504.683 310.742 505.112 307.984C505.536 305.26 507.468 303.07 508.54 300.528C509.671 297.846 509.52 294.43 511.663 292.452C513.803 290.477 517.117 290.552 519.976 289.972C522.566 289.447 525.188 289.601 527.797 289.18Z" fill="url(#paint2_linear_226_4)" shape-rendering="crispEdges"/>
<path fill-rule="evenodd" clip-rule="evenodd" d="M527.797 289.18C530.809 288.693 533.822 286.179 536.668 287.273C539.513 288.367 540.108 292.197 541.946 294.62C543.521 296.695 545.362 298.486 546.816 300.646C548.388 302.982 550.485 305.166 550.915 307.945C551.345 310.727 550.048 313.456 549.212 316.146C548.388 318.801 547.791 321.637 546 323.768C544.221 325.884 541.383 326.692 539.071 328.212C536.704 329.767 534.874 332.415 532.083 332.914C529.291 333.412 526.634 331.62 523.884 330.924C521.265 330.26 518.631 329.85 516.115 328.869C513.331 327.782 510.062 327.147 508.21 324.809C506.362 322.477 506.635 319.149 506.097 316.227C505.592 313.482 504.683 310.742 505.112 307.984C505.536 305.26 507.468 303.07 508.54 300.528C509.671 297.846 509.52 294.43 511.663 292.452C513.803 290.477 517.117 290.552 519.976 289.972C522.566 289.447 525.188 289.601 527.797 289.18Z" stroke="#4F8A3A" stroke-opacity="0.35" stroke-width="0.5" shape-rendering="crispEdges"/>
</g>
<g filter="url(#filter7_d_226_4)">
<path fill-rule="evenodd" clip-rule="evenodd" d="M563.601 312.561C566.324 312.174 569.308 311.462 571.778 312.683C574.276 313.917 575.326 316.924 576.991 319.176C578.449 321.15 579.76 323.156 581.057 325.241C582.45 327.479 584.774 329.393 584.987 332.029C585.2 334.669 582.782 336.803 582.199 339.386C581.584 342.113 582.732 345.19 581.458 347.673C580.193 350.14 577.747 351.927 575.215 353.006C572.735 354.063 569.886 353.227 567.241 353.732C564.592 354.238 562.237 356.038 559.541 355.999C556.771 355.96 553.805 355.305 551.678 353.51C549.539 351.704 549.45 348.374 547.809 346.096C546.197 343.858 542.761 342.907 542.107 340.219C541.445 337.502 544.06 335.009 544.433 332.237C544.789 329.587 543.422 326.826 544.249 324.286C545.082 321.725 546.979 319.58 549.088 317.931C551.158 316.311 553.81 315.796 556.268 314.887C558.694 313.989 561.042 312.924 563.601 312.561Z" fill="url(#paint3_linear_226_4)" shape-rendering="crispEdges"/>
<path fill-rule="evenodd" clip-rule="evenodd" d="M563.601 312.561C566.324 312.174 569.308 311.462 571.778 312.683C574.276 313.917 575.326 316.924 576.991 319.176C578.449 321.15 579.76 323.156 581.057 325.241C582.45 327.479 584.774 329.393 584.987 332.029C585.2 334.669 582.782 336.803 582.199 339.386C581.584 342.113 582.732 345.19 581.458 347.673C580.193 350.14 577.747 351.927 575.215 353.006C572.735 354.063 569.886 353.227 567.241 353.732C564.592 354.238 562.237 356.038 559.541 355.999C556.771 355.96 553.805 355.305 551.678 353.51C549.539 351.704 549.45 348.374 547.809 346.096C546.197 343.858 542.761 342.907 542.107 340.219C541.445 337.502 544.06 335.009 544.433 332.237C544.789 329.587 543.422 326.826 544.249 324.286C545.082 321.725 546.979 319.58 549.088 317.931C551.158 316.311 553.81 315.796 556.268 314.887C558.694 313.989 561.042 312.924 563.601 312.561Z" stroke="#4F8A3A" stroke-opacity="0.35" stroke-width="0.5" shape-rendering="crispEdges"/>
</g>
<g filter="url(#filter8_d_226_4)">
<path fill-rule="evenodd" clip-rule="evenodd" d="M533.92 359.488C536.203 359.377 538.7 358.44 540.72 359.5C542.79 360.587 543.206 363.377 544.714 365.152C546.041 366.714 548.038 367.64 549.114 369.381C550.214 371.161 550.87 373.219 550.987 375.302C551.102 377.365 550.455 379.375 549.783 381.332C549.128 383.24 548.054 384.927 547.075 386.695C545.99 388.655 545.553 391.211 543.649 392.412C541.75 393.611 539.191 392.634 536.981 393.065C534.749 393.5 532.759 395.216 530.498 394.977C528.246 394.739 526.467 393.026 524.601 391.756C522.786 390.52 520.897 389.327 519.603 387.563C518.316 385.807 517.541 383.721 517.148 381.588C516.767 379.523 517.229 377.443 517.352 375.348C517.478 373.2 517.063 370.96 517.89 368.97C518.725 366.961 520.466 365.49 522.066 364.002C523.678 362.502 525.309 360.937 527.374 360.151C529.439 359.365 531.71 359.596 533.92 359.488Z" fill="url(#paint4_linear_226_4)" shape-rendering="crispEdges"/>
<path fill-rule="evenodd" clip-rule="evenodd" d="M533.92 359.488C536.203 359.377 538.7 358.44 540.72 359.5C542.79 360.587 543.206 363.377 544.714 365.152C546.041 366.714 548.038 367.64 549.114 369.381C550.214 371.161 550.87 373.219 550.987 375.302C551.102 377.365 550.455 379.375 549.783 381.332C549.128 383.24 548.054 384.927 547.075 386.695C545.99 388.655 545.553 391.211 543.649 392.412C541.75 393.611 539.191 392.634 536.981 393.065C534.749 393.5 532.759 395.216 530.498 394.977C528.246 394.739 526.467 393.026 524.601 391.756C522.786 390.52 520.897 389.327 519.603 387.563C518.316 385.807 517.541 383.721 517.148 381.588C516.767 379.523 517.229 377.443 517.352 375.348C517.478 373.2 517.063 370.96 517.89 368.97C518.725 366.961 520.466 365.49 522.066 364.002C523.678 362.502 525.309 360.937 527.374 360.151C529.439 359.365 531.71 359.596 533.92 359.488Z" stroke="#4F8A3A" stroke-opacity="0.35" stroke-width="0.5" shape-rendering="crispEdges"/>
</g>
<g filter="url(#filter9_d_226_4)">
<path fill-rule="evenodd" clip-rule="evenodd" d="M497.398 318.09C498.904 317.846 500.411 316.589 501.834 317.137C503.256 317.684 503.554 319.598 504.473 320.81C505.26 321.847 506.181 322.743 506.908 323.823C507.694 324.991 508.743 326.083 508.957 327.472C509.173 328.864 508.524 330.228 508.106 331.573C507.694 332.901 507.396 334.319 506.5 335.384C505.611 336.442 504.192 336.846 503.035 337.606C501.852 338.383 500.937 339.708 499.542 339.957C498.145 340.206 496.817 339.31 495.442 338.962C494.132 338.63 492.816 338.425 491.557 337.934C490.165 337.391 488.531 337.073 487.605 335.905C486.681 334.739 486.818 333.074 486.549 331.613C486.296 330.241 485.841 328.871 486.056 327.492C486.268 326.13 487.234 325.035 487.77 323.764C488.336 322.423 488.26 320.715 489.332 319.726C490.402 318.739 492.059 318.776 493.488 318.486C494.783 318.224 496.094 318.301 497.398 318.09Z" fill="url(#paint5_linear_226_4)" shape-rendering="crispEdges"/>
<path fill-rule="evenodd" clip-rule="evenodd" d="M497.398 318.09C498.904 317.846 500.411 316.589 501.834 317.137C503.256 317.684 503.554 319.598 504.473 320.81C505.26 321.847 506.181 322.743 506.908 323.823C507.694 324.991 508.743 326.083 508.957 327.472C509.173 328.864 508.524 330.228 508.106 331.573C507.694 332.901 507.396 334.319 506.5 335.384C505.611 336.442 504.192 336.846 503.035 337.606C501.852 338.383 500.937 339.708 499.542 339.957C498.145 340.206 496.817 339.31 495.442 338.962C494.132 338.63 492.816 338.425 491.557 337.934C490.165 337.391 488.531 337.073 487.605 335.905C486.681 334.739 486.818 333.074 486.549 331.613C486.296 330.241 485.841 328.871 486.056 327.492C486.268 326.13 487.234 325.035 487.77 323.764C488.336 322.423 488.26 320.715 489.332 319.726C490.402 318.739 492.059 318.776 493.488 318.486C494.783 318.224 496.094 318.301 497.398 318.09Z" stroke="#4F8A3A" stroke-opacity="0.35" stroke-width="0.5" shape-rendering="crispEdges"/>
</g>
<g filter="url(#filter10_d_226_4)">
<path fill-rule="evenodd" clip-rule="evenodd" d="M518.089 351.497C520.495 351.154 523.132 350.523 525.316 351.605C527.523 352.699 528.451 355.364 529.922 357.361C531.211 359.11 532.369 360.888 533.516 362.737C534.746 364.72 536.8 366.417 536.988 368.753C537.177 371.093 535.04 372.985 534.525 375.274C533.981 377.691 534.996 380.418 533.87 382.62C532.752 384.806 530.59 386.39 528.353 387.346C526.161 388.283 523.644 387.542 521.306 387.99C518.965 388.438 516.884 390.034 514.502 389.999C512.054 389.964 509.432 389.384 507.553 387.793C505.662 386.192 505.583 383.24 504.133 381.221C502.709 379.238 499.673 378.395 499.094 376.012C498.51 373.604 500.821 371.394 501.15 368.937C501.465 366.589 500.257 364.141 500.987 361.89C501.724 359.619 503.4 357.719 505.264 356.257C507.093 354.821 509.436 354.365 511.609 353.559C513.753 352.763 515.828 351.819 518.089 351.497Z" fill="url(#paint6_linear_226_4)" shape-rendering="crispEdges"/>
<path fill-rule="evenodd" clip-rule="evenodd" d="M518.089 351.497C520.495 351.154 523.132 350.523 525.316 351.605C527.523 352.699 528.451 355.364 529.922 357.361C531.211 359.11 532.369 360.888 533.516 362.737C534.746 364.72 536.8 366.417 536.988 368.753C537.177 371.093 535.04 372.985 534.525 375.274C533.981 377.691 534.996 380.418 533.87 382.62C532.752 384.806 530.59 386.39 528.353 387.346C526.161 388.283 523.644 387.542 521.306 387.99C518.965 388.438 516.884 390.034 514.502 389.999C512.054 389.964 509.432 389.384 507.553 387.793C505.662 386.192 505.583 383.24 504.133 381.221C502.709 379.238 499.673 378.395 499.094 376.012C498.51 373.604 500.821 371.394 501.15 368.937C501.465 366.589 500.257 364.141 500.987 361.89C501.724 359.619 503.4 357.719 505.264 356.257C507.093 354.821 509.436 354.365 511.609 353.559C513.753 352.763 515.828 351.819 518.089 351.497Z" stroke="#4F8A3A" stroke-opacity="0.35" stroke-width="0.5" shape-rendering="crispEdges"/>
</g>
<g filter="url(#filter11_d_226_4)">
<path fill-rule="evenodd" clip-rule="evenodd" d="M509.089 296.497C511.495 296.154 514.132 295.523 516.316 296.605C518.523 297.699 519.451 300.364 520.922 302.361C522.211 304.11 523.369 305.888 524.516 307.737C525.746 309.72 527.8 311.417 527.988 313.753C528.177 316.093 526.04 317.985 525.525 320.274C524.981 322.691 525.996 325.418 524.87 327.62C523.752 329.806 521.59 331.39 519.353 332.346C517.161 333.283 514.644 332.542 512.306 332.99C509.965 333.438 507.884 335.034 505.502 334.999C503.054 334.964 500.432 334.384 498.553 332.793C496.662 331.192 496.583 328.24 495.133 326.221C493.709 324.238 490.673 323.395 490.094 321.012C489.51 318.604 491.821 316.394 492.15 313.937C492.465 311.589 491.257 309.141 491.987 306.89C492.724 304.619 494.4 302.719 496.264 301.257C498.093 299.821 500.436 299.365 502.609 298.559C504.753 297.763 506.828 296.819 509.089 296.497Z" fill="url(#paint7_linear_226_4)" shape-rendering="crispEdges"/>
<path fill-rule="evenodd" clip-rule="evenodd" d="M509.089 296.497C511.495 296.154 514.132 295.523 516.316 296.605C518.523 297.699 519.451 300.364 520.922 302.361C522.211 304.11 523.369 305.888 524.516 307.737C525.746 309.72 527.8 311.417 527.988 313.753C528.177 316.093 526.04 317.985 525.525 320.274C524.981 322.691 525.996 325.418 524.87 327.62C523.752 329.806 521.59 331.39 519.353 332.346C517.161 333.283 514.644 332.542 512.306 332.99C509.965 333.438 507.884 335.034 505.502 334.999C503.054 334.964 500.432 334.384 498.553 332.793C496.662 331.192 496.583 328.24 495.133 326.221C493.709 324.238 490.673 323.395 490.094 321.012C489.51 318.604 491.821 316.394 492.15 313.937C492.465 311.589 491.257 309.141 491.987 306.89C492.724 304.619 494.4 302.719 496.264 301.257C498.093 299.821 500.436 299.365 502.609 298.559C504.753 297.763 506.828 296.819 509.089 296.497Z" stroke="#4F8A3A" stroke-opacity="0.35" stroke-width="0.5" shape-rendering="crispEdges"/>
</g>
<g filter="url(#filter12_d_226_4)">
<path fill-rule="evenodd" clip-rule="evenodd" d="M537.953 347.285C539.296 347.22 540.765 346.674 541.953 347.292C543.171 347.926 543.415 349.553 544.302 350.589C545.083 351.5 546.258 352.04 546.891 353.056C547.538 354.094 547.924 355.295 547.992 356.509C548.06 357.713 547.679 358.886 547.284 360.027C546.899 361.14 546.267 362.124 545.691 363.155C545.053 364.299 544.796 365.79 543.676 366.491C542.559 367.19 541.053 366.62 539.753 366.871C538.441 367.125 537.27 368.126 535.94 367.987C534.615 367.848 533.569 366.848 532.471 366.108C531.404 365.387 530.292 364.691 529.531 363.662C528.774 362.638 528.318 361.421 528.087 360.176C527.863 358.972 528.134 357.758 528.207 356.536C528.281 355.283 528.037 353.977 528.524 352.816C529.015 351.644 530.039 350.786 530.98 349.918C531.928 349.043 532.888 348.13 534.103 347.671C535.317 347.213 536.653 347.348 537.953 347.285Z" fill="url(#paint8_linear_226_4)" shape-rendering="crispEdges"/>
<path fill-rule="evenodd" clip-rule="evenodd" d="M537.953 347.285C539.296 347.22 540.765 346.674 541.953 347.292C543.171 347.926 543.415 349.553 544.302 350.589C545.083 351.5 546.258 352.04 546.891 353.056C547.538 354.094 547.924 355.295 547.992 356.509C548.06 357.713 547.679 358.886 547.284 360.027C546.899 361.14 546.267 362.124 545.691 363.155C545.053 364.299 544.796 365.79 543.676 366.491C542.559 367.19 541.053 366.62 539.753 366.871C538.441 367.125 537.27 368.126 535.94 367.987C534.615 367.848 533.569 366.848 532.471 366.108C531.404 365.387 530.292 364.691 529.531 363.662C528.774 362.638 528.318 361.421 528.087 360.176C527.863 358.972 528.134 357.758 528.207 356.536C528.281 355.283 528.037 353.977 528.524 352.816C529.015 351.644 530.039 350.786 530.98 349.918C531.928 349.043 532.888 348.13 534.103 347.671C535.317 347.213 536.653 347.348 537.953 347.285Z" stroke="#4F8A3A" stroke-opacity="0.35" stroke-width="0.5" shape-rendering="crispEdges"/>
</g>
<g filter="url(#filter13_d_226_4)">
<path fill-rule="evenodd" clip-rule="evenodd" d="M545.918 307.292C544.721 307.13 543.333 307.38 542.388 306.629C541.419 305.858 541.475 304.353 540.866 303.276C540.329 302.328 539.382 301.648 538.994 300.631C538.596 299.59 538.457 298.446 538.6 297.342C538.741 296.247 539.274 295.255 539.814 294.293C540.341 293.354 541.063 292.572 541.744 291.739C542.499 290.815 542.976 289.516 544.082 289.069C545.186 288.623 546.419 289.383 547.609 289.371C548.81 289.358 550.012 288.65 551.163 288.994C552.309 289.336 553.065 290.408 553.91 291.255C554.732 292.079 555.597 292.888 556.096 293.939C556.593 294.985 556.792 296.155 556.788 297.313C556.784 298.434 556.341 299.481 556.072 300.569C555.796 301.684 555.793 302.9 555.169 303.865C554.54 304.839 553.492 305.443 552.515 306.069C551.531 306.7 550.532 307.364 549.382 307.577C548.233 307.79 547.076 307.45 545.918 307.292Z" fill="url(#paint9_linear_226_4)" shape-rendering="crispEdges"/>
<path fill-rule="evenodd" clip-rule="evenodd" d="M545.918 307.292C544.721 307.13 543.333 307.38 542.388 306.629C541.419 305.858 541.475 304.353 540.866 303.276C540.329 302.328 539.382 301.648 538.994 300.631C538.596 299.59 538.457 298.446 538.6 297.342C538.741 296.247 539.274 295.255 539.814 294.293C540.341 293.354 541.063 292.572 541.744 291.739C542.499 290.815 542.976 289.516 544.082 289.069C545.186 288.623 546.419 289.383 547.609 289.371C548.81 289.358 550.012 288.65 551.163 288.994C552.309 289.336 553.065 290.408 553.91 291.255C554.732 292.079 555.597 292.888 556.096 293.939C556.593 294.985 556.792 296.155 556.788 297.313C556.784 298.434 556.341 299.481 556.072 300.569C555.796 301.684 555.793 302.9 555.169 303.865C554.54 304.839 553.492 305.443 552.515 306.069C551.531 306.7 550.532 307.364 549.382 307.577C548.233 307.79 547.076 307.45 545.918 307.292Z" stroke="#4F8A3A" stroke-opacity="0.35" stroke-width="0.5" shape-rendering="crispEdges"/>
</g>
<g filter="url(#filter14_d_226_4)">
<path fill-rule="evenodd" clip-rule="evenodd" d="M533.92 296.488C536.203 296.377 538.7 295.44 540.72 296.5C542.79 297.587 543.206 300.377 544.714 302.152C546.041 303.714 548.038 304.64 549.114 306.381C550.214 308.161 550.87 310.219 550.987 312.302C551.102 314.365 550.455 316.375 549.783 318.332C549.128 320.24 548.054 321.927 547.075 323.695C545.99 325.655 545.553 328.211 543.649 329.412C541.75 330.611 539.191 329.634 536.981 330.065C534.749 330.5 532.759 332.216 530.498 331.977C528.246 331.739 526.467 330.026 524.601 328.756C522.786 327.52 520.897 326.327 519.603 324.563C518.316 322.807 517.541 320.721 517.148 318.588C516.767 316.523 517.229 314.443 517.352 312.348C517.478 310.2 517.063 307.96 517.89 305.97C518.725 303.961 520.466 302.49 522.066 301.002C523.678 299.502 525.309 297.937 527.374 297.151C529.439 296.365 531.71 296.596 533.92 296.488Z" fill="url(#paint10_linear_226_4)" shape-rendering="crispEdges"/>
<path fill-rule="evenodd" clip-rule="evenodd" d="M533.92 296.488C536.203 296.377 538.7 295.44 540.72 296.5C542.79 297.587 543.206 300.377 544.714 302.152C546.041 303.714 548.038 304.64 549.114 306.381C550.214 308.161 550.87 310.219 550.987 312.302C551.102 314.365 550.455 316.375 549.783 318.332C549.128 320.24 548.054 321.927 547.075 323.695C545.99 325.655 545.553 328.211 543.649 329.412C541.75 330.611 539.191 329.634 536.981 330.065C534.749 330.5 532.759 332.216 530.498 331.977C528.246 331.739 526.467 330.026 524.601 328.756C522.786 327.52 520.897 326.327 519.603 324.563C518.316 322.807 517.541 320.721 517.148 318.588C516.767 316.523 517.229 314.443 517.352 312.348C517.478 310.2 517.063 307.96 517.89 305.97C518.725 303.961 520.466 302.49 522.066 301.002C523.678 299.502 525.309 297.937 527.374 297.151C529.439 296.365 531.71 296.596 533.92 296.488Z" stroke="#4F8A3A" stroke-opacity="0.35" stroke-width="0.5" shape-rendering="crispEdges"/>
</g>
<g filter="url(#filter15_d_226_4)">
<path fill-rule="evenodd" clip-rule="evenodd" d="M523.441 314.352C525.12 314.272 526.956 313.596 528.441 314.361C529.963 315.146 530.269 317.161 531.378 318.443C532.354 319.571 533.822 320.24 534.613 321.498C535.422 322.783 535.904 324.27 535.99 325.774C536.075 327.264 535.599 328.715 535.105 330.128C534.623 331.507 533.834 332.725 533.114 334.002C532.317 335.417 531.995 337.263 530.595 338.131C529.198 338.997 527.317 338.291 525.692 338.603C524.051 338.917 522.588 340.156 520.925 339.984C519.269 339.812 517.961 338.574 516.589 337.657C515.254 336.765 513.865 335.903 512.914 334.629C511.968 333.361 511.398 331.854 511.108 330.313C510.829 328.822 511.168 327.32 511.259 325.807C511.352 324.255 511.046 322.638 511.654 321.2C512.268 319.749 513.548 318.687 514.725 317.612C515.911 316.529 517.109 315.399 518.628 314.831C520.146 314.263 521.816 314.43 523.441 314.352Z" fill="url(#paint11_linear_226_4)" shape-rendering="crispEdges"/>
<path fill-rule="evenodd" clip-rule="evenodd" d="M523.441 314.352C525.12 314.272 526.956 313.596 528.441 314.361C529.963 315.146 530.269 317.161 531.378 318.443C532.354 319.571 533.822 320.24 534.613 321.498C535.422 322.783 535.904 324.27 535.99 325.774C536.075 327.264 535.599 328.715 535.105 330.128C534.623 331.507 533.834 332.725 533.114 334.002C532.317 335.417 531.995 337.263 530.595 338.131C529.198 338.997 527.317 338.291 525.692 338.603C524.051 338.917 522.588 340.156 520.925 339.984C519.269 339.812 517.961 338.574 516.589 337.657C515.254 336.765 513.865 335.903 512.914 334.629C511.968 333.361 511.398 331.854 511.108 330.313C510.829 328.822 511.168 327.32 511.259 325.807C511.352 324.255 511.046 322.638 511.654 321.2C512.268 319.749 513.548 318.687 514.725 317.612C515.911 316.529 517.109 315.399 518.628 314.831C520.146 314.263 521.816 314.43 523.441 314.352Z" stroke="#4F8A3A" stroke-opacity="0.35" stroke-width="0.5" shape-rendering="crispEdges"/>
</g>
<g filter="url(#filter16_d_226_4)">
<path fill-rule="evenodd" clip-rule="evenodd" d="M498.953 352.285C500.296 352.22 501.765 351.674 502.953 352.292C504.171 352.926 504.415 354.553 505.302 355.589C506.083 356.5 507.258 357.04 507.891 358.056C508.538 359.094 508.924 360.295 508.992 361.509C509.06 362.713 508.679 363.886 508.284 365.027C507.899 366.14 507.267 367.124 506.691 368.155C506.053 369.299 505.796 370.79 504.676 371.491C503.559 372.19 502.053 371.62 500.753 371.871C499.441 372.125 498.27 373.126 496.94 372.987C495.615 372.848 494.569 371.848 493.471 371.108C492.404 370.387 491.292 369.691 490.531 368.662C489.774 367.638 489.318 366.421 489.087 365.176C488.863 363.972 489.134 362.758 489.207 361.536C489.281 360.283 489.037 358.977 489.524 357.816C490.015 356.644 491.039 355.786 491.98 354.918C492.928 354.043 493.888 353.13 495.103 352.671C496.317 352.213 497.653 352.348 498.953 352.285Z" fill="url(#paint12_linear_226_4)" shape-rendering="crispEdges"/>
<path fill-rule="evenodd" clip-rule="evenodd" d="M498.953 352.285C500.296 352.22 501.765 351.674 502.953 352.292C504.171 352.926 504.415 354.553 505.302 355.589C506.083 356.5 507.258 357.04 507.891 358.056C508.538 359.094 508.924 360.295 508.992 361.509C509.06 362.713 508.679 363.886 508.284 365.027C507.899 366.14 507.267 367.124 506.691 368.155C506.053 369.299 505.796 370.79 504.676 371.491C503.559 372.19 502.053 371.62 500.753 371.871C499.441 372.125 498.27 373.126 496.94 372.987C495.615 372.848 494.569 371.848 493.471 371.108C492.404 370.387 491.292 369.691 490.531 368.662C489.774 367.638 489.318 366.421 489.087 365.176C488.863 363.972 489.134 362.758 489.207 361.536C489.281 360.283 489.037 358.977 489.524 357.816C490.015 356.644 491.039 355.786 491.98 354.918C492.928 354.043 493.888 353.13 495.103 352.671C496.317 352.213 497.653 352.348 498.953 352.285Z" stroke="#4F8A3A" stroke-opacity="0.35" stroke-width="0.5" shape-rendering="crispEdges"/>
</g>
<g filter="url(#filter17_d_226_4)">
<path fill-rule="evenodd" clip-rule="evenodd" d="M506.212 329.166C508.364 329.166 510.572 328.717 512.61 329.412C514.662 330.112 516.334 331.613 517.872 333.143C519.382 334.646 520.64 336.378 521.548 338.306C522.447 340.218 522.635 342.335 523.161 344.381C523.756 346.695 525.458 348.957 524.883 351.275C524.312 353.576 521.655 354.667 520.155 356.5C518.706 358.271 518.02 360.709 516.12 361.982C514.217 363.257 511.749 363.148 509.511 363.632C507.228 364.125 504.96 365.383 502.678 364.886C500.393 364.389 498.675 362.507 496.971 360.902C495.417 359.44 494.465 357.512 493.101 355.871C491.681 354.162 489.574 352.988 488.694 350.947C487.802 348.879 487.981 346.523 488.098 344.273C488.218 341.979 488.188 339.521 489.39 337.565C490.589 335.611 492.975 334.806 494.779 333.394C496.479 332.064 497.789 330.158 499.812 329.41C501.832 328.663 504.059 329.165 506.212 329.166Z" fill="url(#paint13_linear_226_4)" shape-rendering="crispEdges"/>
<path fill-rule="evenodd" clip-rule="evenodd" d="M506.212 329.166C508.364 329.166 510.572 328.717 512.61 329.412C514.662 330.112 516.334 331.613 517.872 333.143C519.382 334.646 520.64 336.378 521.548 338.306C522.447 340.218 522.635 342.335 523.161 344.381C523.756 346.695 525.458 348.957 524.883 351.275C524.312 353.576 521.655 354.667 520.155 356.5C518.706 358.271 518.02 360.709 516.12 361.982C514.217 363.257 511.749 363.148 509.511 363.632C507.228 364.125 504.96 365.383 502.678 364.886C500.393 364.389 498.675 362.507 496.971 360.902C495.417 359.44 494.465 357.512 493.101 355.871C491.681 354.162 489.574 352.988 488.694 350.947C487.802 348.879 487.981 346.523 488.098 344.273C488.218 341.979 488.188 339.521 489.39 337.565C490.589 335.611 492.975 334.806 494.779 333.394C496.479 332.064 497.789 330.158 499.812 329.41C501.832 328.663 504.059 329.165 506.212 329.166Z" stroke="#4F8A3A" stroke-opacity="0.35" stroke-width="0.5" shape-rendering="crispEdges"/>
</g>
<g filter="url(#filter18_d_226_4)">
<path fill-rule="evenodd" clip-rule="evenodd" d="M559.212 292.166C561.364 292.166 563.572 291.717 565.61 292.412C567.662 293.112 569.334 294.613 570.872 296.143C572.382 297.646 573.64 299.378 574.548 301.306C575.447 303.218 575.635 305.335 576.161 307.381C576.756 309.695 578.458 311.957 577.883 314.275C577.312 316.576 574.655 317.667 573.155 319.5C571.706 321.271 571.02 323.709 569.12 324.982C567.217 326.257 564.749 326.148 562.511 326.632C560.228 327.125 557.96 328.383 555.678 327.886C553.393 327.389 551.675 325.507 549.971 323.902C548.417 322.44 547.465 320.512 546.101 318.871C544.681 317.162 542.574 315.988 541.694 313.947C540.802 311.879 540.981 309.523 541.098 307.273C541.218 304.979 541.188 302.521 542.39 300.565C543.589 298.611 545.975 297.806 547.779 296.394C549.479 295.064 550.789 293.158 552.812 292.41C554.832 291.663 557.059 292.165 559.212 292.166Z" fill="url(#paint14_linear_226_4)" shape-rendering="crispEdges"/>
<path fill-rule="evenodd" clip-rule="evenodd" d="M559.212 292.166C561.364 292.166 563.572 291.717 565.61 292.412C567.662 293.112 569.334 294.613 570.872 296.143C572.382 297.646 573.64 299.378 574.548 301.306C575.447 303.218 575.635 305.335 576.161 307.381C576.756 309.695 578.458 311.957 577.883 314.275C577.312 316.576 574.655 317.667 573.155 319.5C571.706 321.271 571.02 323.709 569.12 324.982C567.217 326.257 564.749 326.148 562.511 326.632C560.228 327.125 557.96 328.383 555.678 327.886C553.393 327.389 551.675 325.507 549.971 323.902C548.417 322.44 547.465 320.512 546.101 318.871C544.681 317.162 542.574 315.988 541.694 313.947C540.802 311.879 540.981 309.523 541.098 307.273C541.218 304.979 541.188 302.521 542.39 300.565C543.589 298.611 545.975 297.806 547.779 296.394C549.479 295.064 550.789 293.158 552.812 292.41C554.832 291.663 557.059 292.165 559.212 292.166Z" stroke="#4F8A3A" stroke-opacity="0.35" stroke-width="0.5" shape-rendering="crispEdges"/>
</g>
<g filter="url(#filter19_d_226_4)">
<path fill-rule="evenodd" clip-rule="evenodd" d="M569.381 345.279C571.148 344.993 572.917 343.518 574.588 344.16C576.257 344.802 576.607 347.05 577.686 348.473C578.61 349.69 579.691 350.742 580.544 352.01C581.467 353.38 582.698 354.663 582.95 356.294C583.203 357.927 582.441 359.529 581.951 361.108C581.467 362.666 581.116 364.33 580.065 365.581C579.021 366.823 577.356 367.297 575.998 368.189C574.609 369.102 573.535 370.657 571.897 370.949C570.258 371.242 568.698 370.19 567.084 369.781C565.547 369.392 564.001 369.151 562.524 368.575C560.89 367.938 558.971 367.565 557.884 366.192C556.799 364.824 556.96 362.87 556.644 361.155C556.347 359.544 555.814 357.936 556.066 356.317C556.314 354.718 557.448 353.432 558.078 351.94C558.742 350.366 558.653 348.361 559.911 347.2C561.167 346.041 563.112 346.085 564.79 345.745C566.31 345.436 567.85 345.527 569.381 345.279Z" fill="url(#paint15_linear_226_4)" shape-rendering="crispEdges"/>
<path fill-rule="evenodd" clip-rule="evenodd" d="M569.381 345.279C571.148 344.993 572.917 343.518 574.588 344.16C576.257 344.802 576.607 347.05 577.686 348.473C578.61 349.69 579.691 350.742 580.544 352.01C581.467 353.38 582.698 354.663 582.95 356.294C583.203 357.927 582.441 359.529 581.951 361.108C581.467 362.666 581.116 364.33 580.065 365.581C579.021 366.823 577.356 367.297 575.998 368.189C574.609 369.102 573.535 370.657 571.897 370.949C570.258 371.242 568.698 370.19 567.084 369.781C565.547 369.392 564.001 369.151 562.524 368.575C560.89 367.938 558.971 367.565 557.884 366.192C556.799 364.824 556.96 362.87 556.644 361.155C556.347 359.544 555.814 357.936 556.066 356.317C556.314 354.718 557.448 353.432 558.078 351.94C558.742 350.366 558.653 348.361 559.911 347.2C561.167 346.041 563.112 346.085 564.79 345.745C566.31 345.436 567.85 345.527 569.381 345.279Z" stroke="#4F8A3A" stroke-opacity="0.35" stroke-width="0.5" shape-rendering="crispEdges"/>
</g>
<g filter="url(#filter20_d_226_4)">
<path fill-rule="evenodd" clip-rule="evenodd" d="M539.929 312.758C540.977 312.589 542.025 311.714 543.015 312.095C544.004 312.476 544.211 313.808 544.851 314.65C545.399 315.372 546.039 315.995 546.545 316.747C547.091 317.559 547.821 318.319 547.97 319.285C548.12 320.253 547.669 321.202 547.378 322.138C547.091 323.061 546.884 324.048 546.261 324.789C545.642 325.525 544.655 325.806 543.851 326.334C543.028 326.875 542.391 327.797 541.42 327.97C540.449 328.143 539.525 327.52 538.568 327.278C537.657 327.047 536.741 326.904 535.866 326.563C534.898 326.185 533.761 325.964 533.116 325.151C532.474 324.34 532.569 323.182 532.382 322.166C532.206 321.211 531.89 320.258 532.039 319.299C532.186 318.351 532.858 317.59 533.231 316.705C533.625 315.772 533.572 314.584 534.318 313.896C535.062 313.209 536.215 313.236 537.209 313.034C538.11 312.851 539.022 312.905 539.929 312.758Z" fill="url(#paint16_linear_226_4)" shape-rendering="crispEdges"/>
<path fill-rule="evenodd" clip-rule="evenodd" d="M539.929 312.758C540.977 312.589 542.025 311.714 543.015 312.095C544.004 312.476 544.211 313.808 544.851 314.65C545.399 315.372 546.039 315.995 546.545 316.747C547.091 317.559 547.821 318.319 547.97 319.285C548.12 320.253 547.669 321.202 547.378 322.138C547.091 323.061 546.884 324.048 546.261 324.789C545.642 325.525 544.655 325.806 543.851 326.334C543.028 326.875 542.391 327.797 541.42 327.97C540.449 328.143 539.525 327.52 538.568 327.278C537.657 327.047 536.741 326.904 535.866 326.563C534.898 326.185 533.761 325.964 533.116 325.151C532.474 324.34 532.569 323.182 532.382 322.166C532.206 321.211 531.89 320.258 532.039 319.299C532.186 318.351 532.858 317.59 533.231 316.705C533.625 315.772 533.572 314.584 534.318 313.896C535.062 313.209 536.215 313.236 537.209 313.034C538.11 312.851 539.022 312.905 539.929 312.758Z" stroke="#4F8A3A" stroke-opacity="0.35" stroke-width="0.5" shape-rendering="crispEdges"/>
</g>
<g filter="url(#filter21_d_226_4)">
<path fill-rule="evenodd" clip-rule="evenodd" d="M555.868 339.421C557.832 339.104 559.797 337.464 561.653 338.178C563.508 338.892 563.896 341.389 565.096 342.97C566.122 344.323 567.323 345.491 568.271 346.9C569.296 348.423 570.664 349.847 570.944 351.659C571.225 353.474 570.379 355.254 569.834 357.008C569.296 358.74 568.907 360.589 567.739 361.979C566.579 363.359 564.728 363.886 563.22 364.877C561.677 365.891 560.483 367.619 558.663 367.944C556.842 368.269 555.109 367.1 553.316 366.646C551.608 366.213 549.89 365.946 548.249 365.306C546.433 364.597 544.301 364.183 543.093 362.658C541.888 361.137 542.067 358.967 541.716 357.061C541.386 355.271 540.793 353.484 541.073 351.685C541.349 349.909 542.609 348.48 543.309 346.823C544.046 345.073 543.948 342.846 545.346 341.556C546.741 340.268 548.903 340.317 550.767 339.939C552.456 339.596 554.166 339.697 555.868 339.421Z" fill="url(#paint17_linear_226_4)" shape-rendering="crispEdges"/>
<path fill-rule="evenodd" clip-rule="evenodd" d="M555.868 339.421C557.832 339.104 559.797 337.464 561.653 338.178C563.508 338.892 563.896 341.389 565.096 342.97C566.122 344.323 567.323 345.491 568.271 346.9C569.296 348.423 570.664 349.847 570.944 351.659C571.225 353.474 570.379 355.254 569.834 357.008C569.296 358.74 568.907 360.589 567.739 361.979C566.579 363.359 564.728 363.886 563.22 364.877C561.677 365.891 560.483 367.619 558.663 367.944C556.842 368.269 555.109 367.1 553.316 366.646C551.608 366.213 549.89 365.946 548.249 365.306C546.433 364.597 544.301 364.183 543.093 362.658C541.888 361.137 542.067 358.967 541.716 357.061C541.386 355.271 540.793 353.484 541.073 351.685C541.349 349.909 542.609 348.48 543.309 346.823C544.046 345.073 543.948 342.846 545.346 341.556C546.741 340.268 548.903 340.317 550.767 339.939C552.456 339.596 554.166 339.697 555.868 339.421Z" stroke="#4F8A3A" stroke-opacity="0.35" stroke-width="0.5" shape-rendering="crispEdges"/>
</g>
<g filter="url(#filter22_d_226_4)">
<path fill-rule="evenodd" clip-rule="evenodd" d="M544.85 318.611C547.076 318.251 549.303 316.393 551.407 317.202C553.509 318.01 553.949 320.841 555.308 322.632C556.472 324.166 557.833 325.49 558.907 327.086C560.069 328.812 561.619 330.427 561.937 332.481C562.255 334.538 561.296 336.555 560.679 338.543C560.069 340.505 559.628 342.601 558.304 344.176C556.99 345.74 554.892 346.337 553.183 347.461C551.434 348.61 550.081 350.568 548.018 350.936C545.954 351.305 543.99 349.98 541.958 349.465C540.022 348.975 538.075 348.672 536.215 347.946C534.157 347.144 531.741 346.674 530.372 344.946C529.006 343.222 529.209 340.762 528.811 338.602C528.438 336.574 527.765 334.549 528.083 332.51C528.396 330.496 529.824 328.878 530.616 326.999C531.453 325.016 531.341 322.492 532.925 321.03C534.507 319.57 536.956 319.626 539.069 319.197C540.983 318.809 542.922 318.923 544.85 318.611Z" fill="url(#paint18_linear_226_4)" shape-rendering="crispEdges"/>
<path fill-rule="evenodd" clip-rule="evenodd" d="M544.85 318.611C547.076 318.251 549.303 316.393 551.407 317.202C553.509 318.01 553.949 320.841 555.308 322.632C556.472 324.166 557.833 325.49 558.907 327.086C560.069 328.812 561.619 330.427 561.937 332.481C562.255 334.538 561.296 336.555 560.679 338.543C560.069 340.505 559.628 342.601 558.304 344.176C556.99 345.74 554.892 346.337 553.183 347.461C551.434 348.61 550.081 350.568 548.018 350.936C545.954 351.305 543.99 349.98 541.958 349.465C540.022 348.975 538.075 348.672 536.215 347.946C534.157 347.144 531.741 346.674 530.372 344.946C529.006 343.222 529.209 340.762 528.811 338.602C528.438 336.574 527.765 334.549 528.083 332.51C528.396 330.496 529.824 328.878 530.616 326.999C531.453 325.016 531.341 322.492 532.925 321.03C534.507 319.57 536.956 319.626 539.069 319.197C540.983 318.809 542.922 318.923 544.85 318.611Z" stroke="#4F8A3A" stroke-opacity="0.35" stroke-width="0.5" shape-rendering="crispEdges"/>
</g>
<g filter="url(#filter23_d_226_4)">
<path fill-rule="evenodd" clip-rule="evenodd" d="M525.243 329.147C527.163 329.147 529.132 328.749 530.949 329.366C532.779 329.989 534.271 331.323 535.643 332.683C536.989 334.018 538.112 335.558 538.921 337.272C539.723 338.971 539.89 340.853 540.36 342.672C540.89 344.729 542.409 346.739 541.896 348.8C541.387 350.845 539.017 351.815 537.679 353.445C536.386 355.019 535.775 357.186 534.08 358.317C532.382 359.451 530.182 359.354 528.185 359.784C526.149 360.222 524.127 361.34 522.091 360.899C520.053 360.457 518.521 358.784 517.001 357.358C515.615 356.058 514.766 354.344 513.55 352.885C512.283 351.366 510.404 350.322 509.619 348.508C508.823 346.67 508.983 344.576 509.088 342.576C509.194 340.537 509.168 338.352 510.239 336.613C511.309 334.877 513.437 334.161 515.047 332.906C516.562 331.724 517.731 330.03 519.535 329.364C521.337 328.7 523.323 329.147 525.243 329.147Z" fill="url(#paint19_linear_226_4)" shape-rendering="crispEdges"/>
<path fill-rule="evenodd" clip-rule="evenodd" d="M525.243 329.147C527.163 329.147 529.132 328.749 530.949 329.366C532.779 329.989 534.271 331.323 535.643 332.683C536.989 334.018 538.112 335.558 538.921 337.272C539.723 338.971 539.89 340.853 540.36 342.672C540.89 344.729 542.409 346.739 541.896 348.8C541.387 350.845 539.017 351.815 537.679 353.445C536.386 355.019 535.775 357.186 534.08 358.317C532.382 359.451 530.182 359.354 528.185 359.784C526.149 360.222 524.127 361.34 522.091 360.899C520.053 360.457 518.521 358.784 517.001 357.358C515.615 356.058 514.766 354.344 513.55 352.885C512.283 351.366 510.404 350.322 509.619 348.508C508.823 346.67 508.983 344.576 509.088 342.576C509.194 340.537 509.168 338.352 510.239 336.613C511.309 334.877 513.437 334.161 515.047 332.906C516.562 331.724 517.731 330.03 519.535 329.364C521.337 328.7 523.323 329.147 525.243 329.147Z" stroke="#4F8A3A" stroke-opacity="0.35" stroke-width="0.5" shape-rendering="crispEdges"/>
</g>
<g filter="url(#filter24_f_226_4)">
<rect x="519" y="459" width="38" height="20" fill="black" fill-opacity="0.6"/>
</g>
<g filter="url(#filter25_d_226_4)">
<path fill-rule="evenodd" clip-rule="evenodd" d="M521.134 478.573C521.525 476.457 523.702 475.235 524.827 473.413C525.8 471.837 526.212 469.98 527.344 468.518C528.583 466.918 529.877 465.177 531.751 464.469C533.632 463.759 535.768 464.062 537.702 464.608C539.529 465.124 540.826 466.711 542.549 467.519C544.461 468.415 547.046 468.029 548.437 469.64C549.804 471.222 549.244 473.706 549.675 475.769C550.109 477.841 551.306 479.812 551.004 481.908C550.7 484.021 549.344 485.819 547.994 487.451C546.686 489.032 544.99 490.155 543.273 491.254C541.508 492.383 538.568 491.002 536.5 491.254C534.426 491.506 533.747 491.883 531.751 491.254C529.728 490.616 527.429 491.702 525.838 490.278C524.243 488.849 523.552 486.682 522.747 484.679C521.954 482.707 520.747 480.667 521.134 478.573Z" fill="url(#paint20_linear_226_4)"/>
</g>
<g filter="url(#filter26_d_226_4)">
<path fill-rule="evenodd" clip-rule="evenodd" d="M549 489.899C546.828 489.325 546.096 488.567 544.5 487C542.906 485.436 540.218 484.364 539.946 482.207C539.696 480.215 540.495 478.327 540.762 476.353C541.018 474.459 540.542 472.378 541.499 470.729C542.455 469.081 544.65 468.589 546.034 467.263C547.656 465.708 548.169 462.846 550.374 462.224C552.525 461.617 554.611 463.695 556.822 464.22C558.987 464.734 561.663 463.831 563.326 465.299C565.043 466.815 564.283 469.629 565.254 471.665C566.111 473.462 568.183 474.618 568.682 476.529C569.188 478.47 568.457 480.439 568.045 482.372C567.607 484.432 566.811 486.862 565.254 488.296C563.678 489.748 561.984 489.328 559.875 489.899C558.023 490.401 556.431 490.499 554.5 490.622C552.507 490.749 550.948 490.414 549 489.899Z" fill="url(#paint21_linear_226_4)"/>
</g>
<g filter="url(#filter27_d_226_4)">
<path fill-rule="evenodd" clip-rule="evenodd" d="M527.878 486.966C526.449 488.402 524.971 487.981 523 488.5C521.106 488.999 518.471 488.519 516.5 488.5C514.434 488.48 513.475 489.155 511.5 488.5C509.421 487.811 506.203 486.904 505.105 485C503.987 483.062 503.063 482.155 502.5 480C501.946 477.881 503.536 475.678 503.5 473.5C503.464 471.34 503.583 468.995 505.105 467.5C506.585 466.045 507.809 465.206 509.5 464C511.301 462.715 512.588 461.401 514.673 460.638C516.719 459.889 519.998 461.049 522 462C523.94 462.921 524.124 464.465 525.737 465.891C527.29 467.264 528.278 466.566 529 468.5C529.742 470.489 528.984 474.893 529 477C529.015 478.972 530.908 479.671 530.631 481.616C530.344 483.637 529.305 485.532 527.878 486.966Z" fill="url(#paint22_linear_226_4)"/>
</g>
<defs>
<filter id="filter0_f_226_4" x="477" y="460" width="116" height="53" filterUnits="userSpaceOnUse" color-interpolation-filters="sRGB">
<feFlood flood-opacity="0" result="BackgroundImageFix"/>
<feBlend mode="normal" in="SourceGraphic" in2="BackgroundImageFix" result="shape"/>
<feGaussianBlur stdDeviation="9" result="effect1_foregroundBlur_226_4"/>
</filter>
<filter id="filter1_f_226_4" x="483" y="456" width="106" height="54" filterUnits="userSpaceOnUse" color-interpolation-filters="sRGB">
<feFlood flood-opacity="0" result="BackgroundImageFix"/>
<feBlend mode="normal" in="SourceGraphic" in2="BackgroundImageFix" result="shape"/>
<feGaussianBlur stdDeviation="9" result="effect1_foregroundBlur_226_4"/>
</filter>
<filter id="filter2_d_226_4" x="512.866" y="375.269" width="48.1443" height="117.731" filterUnits="userSpaceOnUse" color-interpolation-filters="sRGB">
<feFlood flood-opacity="0" result="BackgroundImageFix"/>
<feColorMatrix in="SourceAlpha" type="matrix" values="0 0 0 0 0 0 0 0 0 0 0 0 0 0 0 0 0 0 127 0" result="hardAlpha"/>
<feOffset dy="3"/>
<feGaussianBlur stdDeviation="2.5"/>
<feComposite in2="hardAlpha" operator="out"/>
<feColorMatrix type="matrix" values="0 0 0 0 0 0 0 0 0 0 0 0 0 0 0 0 0 0 0.2 0"/>
<feBlend mode="normal" in2="BackgroundImageFix" result="effect1_dropShadow_226_4"/>
<feBlend mode="normal" in="SourceGraphic" in2="effect1_dropShadow_226_4" result="shape"/>
</filter>
<filter id="filter3_d_226_4" x="515.959" y="375.269" width="41.9587" height="117.731" filterUnits="userSpaceOnUse" color-interpolation-filters="sRGB">
<feFlood flood-opacity="0" result="BackgroundImageFix"/>
<feColorMatrix in="SourceAlpha" type="matrix" values="0 0 0 0 0 0 0 0 0 0 0 0 0 0 0 0 0 0 127 0" result="hardAlpha"/>
<feOffset dy="3"/>
<feGaussianBlur stdDeviation="2.5"/>
<feComposite in2="hardAlpha" operator="out"/>
<feColorMatrix type="matrix" values="0 0 0 0 0 0 0 0 0 0 0 0 0 0 0 0 0 0 0.2 0"/>
<feBlend mode="normal" in2="BackgroundImageFix" result="effect1_dropShadow_226_4"/>
<feBlend mode="normal" in="SourceGraphic" in2="effect1_dropShadow_226_4" result="shape"/>
</filter>
<filter id="filter4_f_226_4" x="508" y="374" width="58" height="35" filterUnits="userSpaceOnUse" color-interpolation-filters="sRGB">
<feFlood flood-opacity="0" result="BackgroundImageFix"/>
<feBlend mode="normal" in="SourceGraphic" in2="BackgroundImageFix" result="shape"/>
<feGaussianBlur stdDeviation="5" result="effect1_foregroundBlur_226_4"/>
</filter>
<filter id="filter5_d_226_4" x="532.75" y="350.75" width="45.4999" height="47.5" filterUnits="userSpaceOnUse" color-interpolation-filters="sRGB">
<feFlood flood-opacity="0" result="BackgroundImageFix"/>
<feColorMatrix in="SourceAlpha" type="matrix" values="0 0 0 0 0 0 0 0 0 0 0 0 0 0 0 0 0 0 127 0" result="hardAlpha"/>
<feOffset dy="2"/>
<feGaussianBlur stdDeviation="0.5"/>
<feComposite in2="hardAlpha" operator="out"/>
<feColorMatrix type="matrix" values="0 0 0 0 0.14009 0 0 0 0 0.158654 0 0 0 0 0.133483 0 0 0 0.15 0"/>
<feBlend mode="normal" in2="BackgroundImageFix" result="effect1_dropShadow_226_4"/>
<feBlend mode="normal" in="SourceGraphic" in2="effect1_dropShadow_226_4" result="shape"/>
</filter>
<filter id="filter6_d_226_4" x="503.75" y="286.75" width="48.5" height="49.5" filterUnits="userSpaceOnUse" color-interpolation-filters="sRGB">
<feFlood flood-opacity="0" result="BackgroundImageFix"/>
<feColorMatrix in="SourceAlpha" type="matrix" values="0 0 0 0 0 0 0 0 0 0 0 0 0 0 0 0 0 0 127 0" result="hardAlpha"/>
<feOffset dy="2"/>
<feGaussianBlur stdDeviation="0.5"/>
<feComposite in2="hardAlpha" operator="out"/>
<feColorMatrix type="matrix" values="0 0 0 0 0.14009 0 0 0 0 0.158654 0 0 0 0 0.133483 0 0 0 0.15 0"/>
<feBlend mode="normal" in2="BackgroundImageFix" result="effect1_dropShadow_226_4"/>
<feBlend mode="normal" in="SourceGraphic" in2="effect1_dropShadow_226_4" result="shape"/>
</filter>
<filter id="filter7_d_226_4" x="540.75" y="311.75" width="45.4999" height="47.5" filterUnits="userSpaceOnUse" color-interpolation-filters="sRGB">
<feFlood flood-opacity="0" result="BackgroundImageFix"/>
<feColorMatrix in="SourceAlpha" type="matrix" values="0 0 0 0 0 0 0 0 0 0 0 0 0 0 0 0 0 0 127 0" result="hardAlpha"/>
<feOffset dy="2"/>
<feGaussianBlur stdDeviation="0.5"/>
<feComposite in2="hardAlpha" operator="out"/>
<feColorMatrix type="matrix" values="0 0 0 0 0.14009 0 0 0 0 0.158654 0 0 0 0 0.133483 0 0 0 0.15 0"/>
<feBlend mode="normal" in2="BackgroundImageFix" result="effect1_dropShadow_226_4"/>
<feBlend mode="normal" in="SourceGraphic" in2="effect1_dropShadow_226_4" result="shape"/>
</filter>
<filter id="filter8_d_226_4" x="515.75" y="358.75" width="36.5" height="39.5001" filterUnits="userSpaceOnUse" color-interpolation-filters="sRGB">
<feFlood flood-opacity="0" result="BackgroundImageFix"/>
<feColorMatrix in="SourceAlpha" type="matrix" values="0 0 0 0 0 0 0 0 0 0 0 0 0 0 0 0 0 0 127 0" result="hardAlpha"/>
<feOffset dy="2"/>
<feGaussianBlur stdDeviation="0.5"/>
<feComposite in2="hardAlpha" operator="out"/>
<feColorMatrix type="matrix" values="0 0 0 0 0.14009 0 0 0 0 0.158654 0 0 0 0 0.133483 0 0 0 0.15 0"/>
<feBlend mode="normal" in2="BackgroundImageFix" result="effect1_dropShadow_226_4"/>
<feBlend mode="normal" in="SourceGraphic" in2="effect1_dropShadow_226_4" result="shape"/>
</filter>
<filter id="filter9_d_226_4" x="484.75" y="316.75" width="25.5" height="26.5" filterUnits="userSpaceOnUse" color-interpolation-filters="sRGB">
<feFlood flood-opacity="0" result="BackgroundImageFix"/>
<feColorMatrix in="SourceAlpha" type="matrix" values="0 0 0 0 0 0 0 0 0 0 0 0 0 0 0 0 0 0 127 0" result="hardAlpha"/>
<feOffset dy="2"/>
<feGaussianBlur stdDeviation="0.5"/>
<feComposite in2="hardAlpha" operator="out"/>
<feColorMatrix type="matrix" values="0 0 0 0 0.14009 0 0 0 0 0.158654 0 0 0 0 0.133483 0 0 0 0.15 0"/>
<feBlend mode="normal" in2="BackgroundImageFix" result="effect1_dropShadow_226_4"/>
<feBlend mode="normal" in="SourceGraphic" in2="effect1_dropShadow_226_4" result="shape"/>
</filter>
<filter id="filter10_d_226_4" x="497.75" y="350.75" width="40.4999" height="42.5" filterUnits="userSpaceOnUse" color-interpolation-filters="sRGB">
<feFlood flood-opacity="0" result="BackgroundImageFix"/>
<feColorMatrix in="SourceAlpha" type="matrix" values="0 0 0 0 0 0 0 0 0 0 0 0 0 0 0 0 0 0 127 0" result="hardAlpha"/>
<feOffset dy="2"/>
<feGaussianBlur stdDeviation="0.5"/>
<feComposite in2="hardAlpha" operator="out"/>
<feColorMatrix type="matrix" values="0 0 0 0 0.14009 0 0 0 0 0.158654 0 0 0 0 0.133483 0 0 0 0.15 0"/>
<feBlend mode="normal" in2="BackgroundImageFix" result="effect1_dropShadow_226_4"/>
<feBlend mode="normal" in="SourceGraphic" in2="effect1_dropShadow_226_4" result="shape"/>
</filter>
<filter id="filter11_d_226_4" x="488.75" y="295.75" width="40.4999" height="42.5" filterUnits="userSpaceOnUse" color-interpolation-filters="sRGB">
<feFlood flood-opacity="0" result="BackgroundImageFix"/>
<feColorMatrix in="SourceAlpha" type="matrix" values="0 0 0 0 0 0 0 0 0 0 0 0 0 0 0 0 0 0 127 0" result="hardAlpha"/>
<feOffset dy="2"/>
<feGaussianBlur stdDeviation="0.5"/>
<feComposite in2="hardAlpha" operator="out"/>
<feColorMatrix type="matrix" values="0 0 0 0 0.14009 0 0 0 0 0.158654 0 0 0 0 0.133483 0 0 0 0.15 0"/>
<feBlend mode="normal" in2="BackgroundImageFix" result="effect1_dropShadow_226_4"/>
<feBlend mode="normal" in="SourceGraphic" in2="effect1_dropShadow_226_4" result="shape"/>
</filter>
<filter id="filter12_d_226_4" x="526.75" y="346.75" width="22.5" height="24.5001" filterUnits="userSpaceOnUse" color-interpolation-filters="sRGB">
<feFlood flood-opacity="0" result="BackgroundImageFix"/>
<feColorMatrix in="SourceAlpha" type="matrix" values="0 0 0 0 0 0 0 0 0 0 0 0 0 0 0 0 0 0 127 0" result="hardAlpha"/>
<feOffset dy="2"/>
<feGaussianBlur stdDeviation="0.5"/>
<feComposite in2="hardAlpha" operator="out"/>
<feColorMatrix type="matrix" values="0 0 0 0 0.14009 0 0 0 0 0.158654 0 0 0 0 0.133483 0 0 0 0.15 0"/>
<feBlend mode="normal" in2="BackgroundImageFix" result="effect1_dropShadow_226_4"/>
<feBlend mode="normal" in="SourceGraphic" in2="effect1_dropShadow_226_4" result="shape"/>
</filter>
<filter id="filter13_d_226_4" x="537.295" y="288.649" width="20.7427" height="22.2459" filterUnits="userSpaceOnUse" color-interpolation-filters="sRGB">
<feFlood flood-opacity="0" result="BackgroundImageFix"/>
<feColorMatrix in="SourceAlpha" type="matrix" values="0 0 0 0 0 0 0 0 0 0 0 0 0 0 0 0 0 0 127 0" result="hardAlpha"/>
<feOffset dy="2"/>
<feGaussianBlur stdDeviation="0.5"/>
<feComposite in2="hardAlpha" operator="out"/>
<feColorMatrix type="matrix" values="0 0 0 0 0.14009 0 0 0 0 0.158654 0 0 0 0 0.133483 0 0 0 0.15 0"/>
<feBlend mode="normal" in2="BackgroundImageFix" result="effect1_dropShadow_226_4"/>
<feBlend mode="normal" in="SourceGraphic" in2="effect1_dropShadow_226_4" result="shape"/>
</filter>
<filter id="filter14_d_226_4" x="515.75" y="295.75" width="36.5" height="39.5001" filterUnits="userSpaceOnUse" color-interpolation-filters="sRGB">
<feFlood flood-opacity="0" result="BackgroundImageFix"/>
<feColorMatrix in="SourceAlpha" type="matrix" values="0 0 0 0 0 0 0 0 0 0 0 0 0 0 0 0 0 0 127 0" result="hardAlpha"/>
<feOffset dy="2"/>
<feGaussianBlur stdDeviation="0.5"/>
<feComposite in2="hardAlpha" operator="out"/>
<feColorMatrix type="matrix" values="0 0 0 0 0.14009 0 0 0 0 0.158654 0 0 0 0 0.133483 0 0 0 0.15 0"/>
<feBlend mode="normal" in2="BackgroundImageFix" result="effect1_dropShadow_226_4"/>
<feBlend mode="normal" in="SourceGraphic" in2="effect1_dropShadow_226_4" result="shape"/>
</filter>
<filter id="filter15_d_226_4" x="509.75" y="313.75" width="27.5" height="29.5001" filterUnits="userSpaceOnUse" color-interpolation-filters="sRGB">
<feFlood flood-opacity="0" result="BackgroundImageFix"/>
<feColorMatrix in="SourceAlpha" type="matrix" values="0 0 0 0 0 0 0 0 0 0 0 0 0 0 0 0 0 0 127 0" result="hardAlpha"/>
<feOffset dy="2"/>
<feGaussianBlur stdDeviation="0.5"/>
<feComposite in2="hardAlpha" operator="out"/>
<feColorMatrix type="matrix" values="0 0 0 0 0.14009 0 0 0 0 0.158654 0 0 0 0 0.133483 0 0 0 0.15 0"/>
<feBlend mode="normal" in2="BackgroundImageFix" result="effect1_dropShadow_226_4"/>
<feBlend mode="normal" in="SourceGraphic" in2="effect1_dropShadow_226_4" result="shape"/>
</filter>
<filter id="filter16_d_226_4" x="487.75" y="351.75" width="22.5" height="24.5001" filterUnits="userSpaceOnUse" color-interpolation-filters="sRGB">
<feFlood flood-opacity="0" result="BackgroundImageFix"/>
<feColorMatrix in="SourceAlpha" type="matrix" values="0 0 0 0 0 0 0 0 0 0 0 0 0 0 0 0 0 0 127 0" result="hardAlpha"/>
<feOffset dy="2"/>
<feGaussianBlur stdDeviation="0.5"/>
<feComposite in2="hardAlpha" operator="out"/>
<feColorMatrix type="matrix" values="0 0 0 0 0.14009 0 0 0 0 0.158654 0 0 0 0 0.133483 0 0 0 0.15 0"/>
<feBlend mode="normal" in2="BackgroundImageFix" result="effect1_dropShadow_226_4"/>
<feBlend mode="normal" in="SourceGraphic" in2="effect1_dropShadow_226_4" result="shape"/>
</filter>
<filter id="filter17_d_226_4" x="486.75" y="328.75" width="39.5002" height="39.5" filterUnits="userSpaceOnUse" color-interpolation-filters="sRGB">
<feFlood flood-opacity="0" result="BackgroundImageFix"/>
<feColorMatrix in="SourceAlpha" type="matrix" values="0 0 0 0 0 0 0 0 0 0 0 0 0 0 0 0 0 0 127 0" result="hardAlpha"/>
<feOffset dy="2"/>
<feGaussianBlur stdDeviation="0.5"/>
<feComposite in2="hardAlpha" operator="out"/>
<feColorMatrix type="matrix" values="0 0 0 0 0.14009 0 0 0 0 0.158654 0 0 0 0 0.133483 0 0 0 0.15 0"/>
<feBlend mode="normal" in2="BackgroundImageFix" result="effect1_dropShadow_226_4"/>
<feBlend mode="normal" in="SourceGraphic" in2="effect1_dropShadow_226_4" result="shape"/>
</filter>
<filter id="filter18_d_226_4" x="539.75" y="291.75" width="39.5002" height="39.5" filterUnits="userSpaceOnUse" color-interpolation-filters="sRGB">
<feFlood flood-opacity="0" result="BackgroundImageFix"/>
<feColorMatrix in="SourceAlpha" type="matrix" values="0 0 0 0 0 0 0 0 0 0 0 0 0 0 0 0 0 0 127 0" result="hardAlpha"/>
<feOffset dy="2"/>
<feGaussianBlur stdDeviation="0.5"/>
<feComposite in2="hardAlpha" operator="out"/>
<feColorMatrix type="matrix" values="0 0 0 0 0.14009 0 0 0 0 0.158654 0 0 0 0 0.133483 0 0 0 0.15 0"/>
<feBlend mode="normal" in2="BackgroundImageFix" result="effect1_dropShadow_226_4"/>
<feBlend mode="normal" in="SourceGraphic" in2="effect1_dropShadow_226_4" result="shape"/>
</filter>
<filter id="filter19_d_226_4" x="554.75" y="343.75" width="29.5" height="30.5" filterUnits="userSpaceOnUse" color-interpolation-filters="sRGB">
<feFlood flood-opacity="0" result="BackgroundImageFix"/>
<feColorMatrix in="SourceAlpha" type="matrix" values="0 0 0 0 0 0 0 0 0 0 0 0 0 0 0 0 0 0 127 0" result="hardAlpha"/>
<feOffset dy="2"/>
<feGaussianBlur stdDeviation="0.5"/>
<feComposite in2="hardAlpha" operator="out"/>
<feColorMatrix type="matrix" values="0 0 0 0 0.14009 0 0 0 0 0.158654 0 0 0 0 0.133483 0 0 0 0.15 0"/>
<feBlend mode="normal" in2="BackgroundImageFix" result="effect1_dropShadow_226_4"/>
<feBlend mode="normal" in="SourceGraphic" in2="effect1_dropShadow_226_4" result="shape"/>
</filter>
<filter id="filter20_d_226_4" x="530.75" y="311.75" width="18.5" height="19.5" filterUnits="userSpaceOnUse" color-interpolation-filters="sRGB">
<feFlood flood-opacity="0" result="BackgroundImageFix"/>
<feColorMatrix in="SourceAlpha" type="matrix" values="0 0 0 0 0 0 0 0 0 0 0 0 0 0 0 0 0 0 127 0" result="hardAlpha"/>
<feOffset dy="2"/>
<feGaussianBlur stdDeviation="0.5"/>
<feComposite in2="hardAlpha" operator="out"/>
<feColorMatrix type="matrix" values="0 0 0 0 0.14009 0 0 0 0 0.158654 0 0 0 0 0.133483 0 0 0 0.15 0"/>
<feBlend mode="normal" in2="BackgroundImageFix" result="effect1_dropShadow_226_4"/>
<feBlend mode="normal" in="SourceGraphic" in2="effect1_dropShadow_226_4" result="shape"/>
</filter>
<filter id="filter21_d_226_4" x="539.75" y="337.75" width="32.5" height="33.5" filterUnits="userSpaceOnUse" color-interpolation-filters="sRGB">
<feFlood flood-opacity="0" result="BackgroundImageFix"/>
<feColorMatrix in="SourceAlpha" type="matrix" values="0 0 0 0 0 0 0 0 0 0 0 0 0 0 0 0 0 0 127 0" result="hardAlpha"/>
<feOffset dy="2"/>
<feGaussianBlur stdDeviation="0.5"/>
<feComposite in2="hardAlpha" operator="out"/>
<feColorMatrix type="matrix" values="0 0 0 0 0.14009 0 0 0 0 0.158654 0 0 0 0 0.133483 0 0 0 0.15 0"/>
<feBlend mode="normal" in2="BackgroundImageFix" result="effect1_dropShadow_226_4"/>
<feBlend mode="normal" in="SourceGraphic" in2="effect1_dropShadow_226_4" result="shape"/>
</filter>
<filter id="filter22_d_226_4" x="526.75" y="316.75" width="36.5" height="37.5" filterUnits="userSpaceOnUse" color-interpolation-filters="sRGB">
<feFlood flood-opacity="0" result="BackgroundImageFix"/>
<feColorMatrix in="SourceAlpha" type="matrix" values="0 0 0 0 0 0 0 0 0 0 0 0 0 0 0 0 0 0 127 0" result="hardAlpha"/>
<feOffset dy="2"/>
<feGaussianBlur stdDeviation="0.5"/>
<feComposite in2="hardAlpha" operator="out"/>
<feColorMatrix type="matrix" values="0 0 0 0 0.14009 0 0 0 0 0.158654 0 0 0 0 0.133483 0 0 0 0.15 0"/>
<feBlend mode="normal" in2="BackgroundImageFix" result="effect1_dropShadow_226_4"/>
<feBlend mode="normal" in="SourceGraphic" in2="effect1_dropShadow_226_4" result="shape"/>
</filter>
<filter id="filter23_d_226_4" x="507.75" y="328.75" width="35.5002" height="35.5" filterUnits="userSpaceOnUse" color-interpolation-filters="sRGB">
<feFlood flood-opacity="0" result="BackgroundImageFix"/>
<feColorMatrix in="SourceAlpha" type="matrix" values="0 0 0 0 0 0 0 0 0 0 0 0 0 0 0 0 0 0 127 0" result="hardAlpha"/>
<feOffset dy="2"/>
<feGaussianBlur stdDeviation="0.5"/>
<feComposite in2="hardAlpha" operator="out"/>
<feColorMatrix type="matrix" values="0 0 0 0 0.14009 0 0 0 0 0.158654 0 0 0 0 0.133483 0 0 0 0.15 0"/>
<feBlend mode="normal" in2="BackgroundImageFix" result="effect1_dropShadow_226_4"/>
<feBlend mode="normal" in="SourceGraphic" in2="effect1_dropShadow_226_4" result="shape"/>
</filter>
<filter id="filter24_f_226_4" x="504" y="444" width="68" height="50" filterUnits="userSpaceOnUse" color-interpolation-filters="sRGB">
<feFlood flood-opacity="0" result="BackgroundImageFix"/>
<feBlend mode="normal" in="SourceGraphic" in2="BackgroundImageFix" result="shape"/>
<feGaussianBlur stdDeviation="7.5" result="effect1_foregroundBlur_226_4"/>
</filter>
<filter id="filter25_d_226_4" x="512.06" y="457.053" width="47.9927" height="45.6505" filterUnits="userSpaceOnUse" color-interpolation-filters="sRGB">
<feFlood flood-opacity="0" result="BackgroundImageFix"/>
<feColorMatrix in="SourceAlpha" type="matrix" values="0 0 0 0 0 0 0 0 0 0 0 0 0 0 0 0 0 0 127 0" result="hardAlpha"/>
<feOffset dy="2"/>
<feGaussianBlur stdDeviation="4.5"/>
<feComposite in2="hardAlpha" operator="out"/>
<feColorMatrix type="matrix" values="0 0 0 0 0 0 0 0 0 0 0 0 0 0 0 0 0 0 0.2 0"/>
<feBlend mode="normal" in2="BackgroundImageFix" result="effect1_dropShadow_226_4"/>
<feBlend mode="normal" in="SourceGraphic" in2="effect1_dropShadow_226_4" result="shape"/>
</filter>
<filter id="filter26_d_226_4" x="535.898" y="462.114" width="36.9556" height="36.5352" filterUnits="userSpaceOnUse" color-interpolation-filters="sRGB">
<feFlood flood-opacity="0" result="BackgroundImageFix"/>
<feColorMatrix in="SourceAlpha" type="matrix" values="0 0 0 0 0 0 0 0 0 0 0 0 0 0 0 0 0 0 127 0" result="hardAlpha"/>
<feOffset dy="4"/>
<feGaussianBlur stdDeviation="2"/>
<feComposite in2="hardAlpha" operator="out"/>
<feColorMatrix type="matrix" values="0 0 0 0 0 0 0 0 0 0 0 0 0 0 0 0 0 0 0.2 0"/>
<feBlend mode="normal" in2="BackgroundImageFix" result="effect1_dropShadow_226_4"/>
<feBlend mode="normal" in="SourceGraphic" in2="effect1_dropShadow_226_4" result="shape"/>
</filter>
<filter id="filter27_d_226_4" x="498.383" y="460.398" width="36.276" height="36.3885" filterUnits="userSpaceOnUse" color-interpolation-filters="sRGB">
<feFlood flood-opacity="0" result="BackgroundImageFix"/>
<feColorMatrix in="SourceAlpha" type="matrix" values="0 0 0 0 0 0 0 0 0 0 0 0 0 0 0 0 0 0 127 0" result="hardAlpha"/>
<feOffset dy="4"/>
<feGaussianBlur stdDeviation="2"/>
<feComposite in2="hardAlpha" operator="out"/>
<feColorMatrix type="matrix" values="0 0 0 0 0 0 0 0 0 0 0 0 0 0 0 0 0 0 0.3 0"/>
<feBlend mode="normal" in2="BackgroundImageFix" result="effect1_dropShadow_226_4"/>
<feBlend mode="normal" in="SourceGraphic" in2="effect1_dropShadow_226_4" result="shape"/>
</filter>
<linearGradient id="paint0_linear_226_4" x1="536.938" y1="377.269" x2="536.938" y2="485" gradientUnits="userSpaceOnUse">
<stop stop-color="#B17644"/>
<stop offset="1" stop-color="#8A522D"/>
</linearGradient>
<linearGradient id="paint1_linear_226_4" x1="555.5" y1="351" x2="555.5" y2="395" gradientUnits="userSpaceOnUse">
<stop stop-color="#7ABC62"/>
<stop offset="1" stop-color="#5C9949"/>
</linearGradient>
<linearGradient id="paint2_linear_226_4" x1="528" y1="287" x2="528" y2="333" gradientUnits="userSpaceOnUse">
<stop stop-color="#7ABC62"/>
<stop offset="1" stop-color="#5C9949"/>
</linearGradient>
<linearGradient id="paint3_linear_226_4" x1="563.5" y1="312" x2="563.5" y2="356" gradientUnits="userSpaceOnUse">
<stop stop-color="#7ABC62"/>
<stop offset="1" stop-color="#5C9949"/>
</linearGradient>
<linearGradient id="paint4_linear_226_4" x1="534" y1="359" x2="534" y2="395" gradientUnits="userSpaceOnUse">
<stop stop-color="#7ABC62"/>
<stop offset="1" stop-color="#5C9949"/>
</linearGradient>
<linearGradient id="paint5_linear_226_4" x1="497.5" y1="317" x2="497.5" y2="340" gradientUnits="userSpaceOnUse">
<stop stop-color="#7ABC62"/>
<stop offset="1" stop-color="#5C9949"/>
</linearGradient>
<linearGradient id="paint6_linear_226_4" x1="518" y1="351" x2="518" y2="390" gradientUnits="userSpaceOnUse">
<stop stop-color="#7ABC62"/>
<stop offset="1" stop-color="#5C9949"/>
</linearGradient>
<linearGradient id="paint7_linear_226_4" x1="509" y1="296" x2="509" y2="335" gradientUnits="userSpaceOnUse">
<stop stop-color="#7ABC62"/>
<stop offset="1" stop-color="#5C9949"/>
</linearGradient>
<linearGradient id="paint8_linear_226_4" x1="538" y1="347" x2="538" y2="368" gradientUnits="userSpaceOnUse">
<stop stop-color="#7ABC62"/>
<stop offset="1" stop-color="#5C9949"/>
</linearGradient>
<linearGradient id="paint9_linear_226_4" x1="545.829" y1="307.541" x2="549.346" y2="288.643" gradientUnits="userSpaceOnUse">
<stop stop-color="#7ABC62"/>
<stop offset="1" stop-color="#5C9949"/>
</linearGradient>
<linearGradient id="paint10_linear_226_4" x1="534" y1="296" x2="534" y2="332" gradientUnits="userSpaceOnUse">
<stop stop-color="#7ABC62"/>
<stop offset="1" stop-color="#5C9949"/>
</linearGradient>
<linearGradient id="paint11_linear_226_4" x1="523.5" y1="314" x2="523.5" y2="340" gradientUnits="userSpaceOnUse">
<stop stop-color="#7ABC62"/>
<stop offset="1" stop-color="#5C9949"/>
</linearGradient>
<linearGradient id="paint12_linear_226_4" x1="499" y1="352" x2="499" y2="373" gradientUnits="userSpaceOnUse">
<stop stop-color="#7ABC62"/>
<stop offset="1" stop-color="#5C9949"/>
</linearGradient>
<linearGradient id="paint13_linear_226_4" x1="506.5" y1="329" x2="506.5" y2="365" gradientUnits="userSpaceOnUse">
<stop stop-color="#7ABC62"/>
<stop offset="1" stop-color="#5C9949"/>
</linearGradient>
<linearGradient id="paint14_linear_226_4" x1="559.5" y1="292" x2="559.5" y2="328" gradientUnits="userSpaceOnUse">
<stop stop-color="#7ABC62"/>
<stop offset="1" stop-color="#5C9949"/>
</linearGradient>
<linearGradient id="paint15_linear_226_4" x1="569.5" y1="344" x2="569.5" y2="371" gradientUnits="userSpaceOnUse">
<stop stop-color="#7ABC62"/>
<stop offset="1" stop-color="#5C9949"/>
</linearGradient>
<linearGradient id="paint16_linear_226_4" x1="540" y1="312" x2="540" y2="328" gradientUnits="userSpaceOnUse">
<stop stop-color="#7ABC62"/>
<stop offset="1" stop-color="#5C9949"/>
</linearGradient>
<linearGradient id="paint17_linear_226_4" x1="556" y1="338" x2="556" y2="368" gradientUnits="userSpaceOnUse">
<stop stop-color="#7ABC62"/>
<stop offset="1" stop-color="#5C9949"/>
</linearGradient>
<linearGradient id="paint18_linear_226_4" x1="545" y1="317" x2="545" y2="351" gradientUnits="userSpaceOnUse">
<stop stop-color="#7ABC62"/>
<stop offset="1" stop-color="#5C9949"/>
</linearGradient>
<linearGradient id="paint19_linear_226_4" x1="525.5" y1="329" x2="525.5" y2="361" gradientUnits="userSpaceOnUse">
<stop stop-color="#7ABC62"/>
<stop offset="1" stop-color="#5C9949"/>
</linearGradient>
<linearGradient id="paint20_linear_226_4" x1="536" y1="494.061" x2="536.122" y2="464.061" gradientUnits="userSpaceOnUse">
<stop stop-color="#6BAE55"/>
<stop offset="1" stop-color="#497C39"/>
</linearGradient>
<linearGradient id="paint21_linear_226_4" x1="568.499" y1="483.797" x2="541.031" y2="471.734" gradientUnits="userSpaceOnUse">
<stop stop-color="#6BAE55"/>
<stop offset="1" stop-color="#497C39"/>
</linearGradient>
<linearGradient id="paint22_linear_226_4" x1="527.653" y1="466.439" x2="506.375" y2="487.587" gradientUnits="userSpaceOnUse">
<stop stop-color="#6BAE55"/>
<stop offset="1" stop-color="#497C39"/>
</linearGradient>
</defs>
</svg>
