<svg width="49" height="41" viewBox="0 0 49 41" fill="none" xmlns="http://www.w3.org/2000/svg">
<g filter="url(#filter0_d_234_26)">
<rect x="8" y="14.3083" width="32.885" height="14.4274" rx="7.21372" fill="url(#paint0_linear_234_26)"/>
</g>
<path d="M8 17.3083C8 15.6515 9.34315 14.3083 11 14.3083H37.885C39.5418 14.3083 40.885 15.6515 40.885 17.3083V20.6204H8V17.3083Z" fill="url(#paint1_linear_234_26)"/>
<g filter="url(#filter1_d_234_26)">
<path fill-rule="evenodd" clip-rule="evenodd" d="M32.9497 10.8749C33.6146 10.9731 34.2977 11.1384 34.7537 11.5684C35.1704 11.9615 35.102 12.551 35.2709 13.064C35.4311 13.5508 35.7361 13.9884 35.7165 14.4942C35.6912 15.1433 35.7413 15.9359 35.1439 16.3292C34.5472 16.7219 33.699 16.2934 32.9497 16.3152C32.1607 16.3383 31.3612 16.7484 30.6453 16.4605C29.8867 16.1553 29.2366 15.5051 29.1464 14.7856C29.0589 14.0872 29.9458 13.6107 30.2048 12.9449C30.4593 12.291 30.0338 11.4136 30.635 10.9602C31.2317 10.5102 32.1693 10.7597 32.9497 10.8749Z" fill="url(#paint2_linear_234_26)"/>
</g>
<g filter="url(#filter2_d_234_26)">
<path fill-rule="evenodd" clip-rule="evenodd" d="M27.0834 6.64604C28.0185 5.96592 27.3256 5.64566 28.3301 5.14868C29.5022 4.56877 31.2979 2.76392 32.4287 2.81148C33.6825 2.86421 33.9115 4.17527 34.4952 5.14868C35.0991 6.15572 36.9685 7.52098 36.6402 8.89703C36.3137 10.2654 35.5644 11.6333 34.4952 12.7624C33.4524 13.8637 32.1348 14.7735 30.8068 15.0576C29.5725 15.3216 26.3811 18.0906 25.3668 17.7058C24.4316 17.3511 23.3262 16.2567 22.6441 15.5777C21.7661 14.7037 22.7422 11.2429 23.2043 9.76875C23.6766 8.26199 25.7147 7.64155 27.0834 6.64604Z" fill="url(#paint3_linear_234_26)"/>
</g>
<g filter="url(#filter3_d_234_26)">
<path fill-rule="evenodd" clip-rule="evenodd" d="M38.2222 17.5229C37.5328 17.4484 36.971 17.0269 36.3223 16.7675C35.3965 16.3973 34.0048 16.6392 33.6144 15.6805C33.2312 14.7396 34.5357 13.9461 34.77 12.956C35.0204 11.8982 34.1893 10.4314 35.0124 9.77294C35.8376 9.11275 37.0243 9.99653 38.003 10.3697C38.6544 10.6181 39.1429 11.1085 39.6904 11.5568C40.1959 11.9708 40.6856 12.3515 41.076 12.8863C41.6408 13.66 42.5879 14.3821 42.4555 15.3448C42.325 16.2931 41.2966 16.7968 40.4804 17.2168C39.7824 17.5759 38.9971 17.6067 38.2222 17.5229Z" fill="url(#paint4_linear_234_26)"/>
</g>
<g filter="url(#filter4_d_234_26)">
<path fill-rule="evenodd" clip-rule="evenodd" d="M11.6921 8.01749C12.7432 7.82596 13.7723 8.5266 14.5566 9.21549C15.2727 9.84452 15.5778 10.7474 15.8199 11.6433C16.0431 12.4692 16.0291 13.2957 15.8868 14.1376C15.7219 15.113 15.7346 16.2505 14.9339 16.8844C14.1272 17.523 12.9146 17.5197 11.8885 17.3029C10.99 17.1131 8.76245 17.1003 9.52609 16C8.68812 15.5006 7.31683 15.8747 6.96118 15C6.60741 14.1299 7.70699 12.7559 8.15598 11.9256C8.52 11.2524 9.00636 10.7065 9.52609 10.1321C10.2177 9.36774 10.6481 8.20772 11.6921 8.01749Z" fill="url(#paint5_linear_234_26)"/>
</g>
<g filter="url(#filter5_d_234_26)">
<path fill-rule="evenodd" clip-rule="evenodd" d="M18.996 3.35845C20.2459 3.85557 20.2234 5.62067 20.5316 6.91077C20.805 8.05527 21.2576 9.31061 20.6717 10.3728C20.1057 11.399 18.7459 11.6263 17.6629 12.1116C16.8712 12.4664 16.0856 12.7333 15.2286 12.8119C14.3463 12.8928 13.5053 12.8088 12.667 12.5698C11.5063 12.2388 10.1684 12.1018 9.45006 11.1641C8.648 10.117 7.94474 8.51836 8.68131 7.36652C9.46097 6.1473 11.3186 4.72682 12.667 4.16395C13.4965 3.81773 14.1955 5.07191 15.0224 4.71962C16.3443 4.15653 17.6988 2.84251 18.996 3.35845Z" fill="url(#paint6_linear_234_26)"/>
</g>
<g filter="url(#filter6_d_234_26)">
<path fill-rule="evenodd" clip-rule="evenodd" d="M22.8567 14.7345C22.6539 15.7227 21.8646 17.1892 20.919 17.6897C20.0451 18.1523 18.2778 16.5039 17.0561 16.1118C15.8037 15.7098 16.4628 16.3523 15.5137 15.4609C14.564 14.569 14.6858 13.4191 14.6184 12.4069C14.5607 11.5398 14.7305 10.7572 15.1557 10.0792C15.5865 9.392 16.2236 8.87069 17.0561 8.51918C18.0541 8.09778 19.1053 7.36523 20.3955 7.86679C21.6946 8.37184 22.2694 9.73676 22.9364 10.8052C23.4272 11.5913 23.7177 12.3987 23.7022 13.1633C23.6891 13.8108 22.9823 14.1228 22.8567 14.7345Z" fill="url(#paint7_linear_234_26)"/>
</g>
<g filter="url(#filter7_d_234_26)">
<path fill-rule="evenodd" clip-rule="evenodd" d="M32.1931 8.49929C32.1215 9.2342 31.255 9.72374 30.6866 10.3174C30.0928 10.9377 29.7114 11.7087 28.7988 12.0446C27.7982 12.413 26.6343 12.3785 25.5319 12.2151C24.2569 12.0262 22.9774 11.7364 22.0486 11.0442C20.9892 10.2547 20.2323 9.23665 20.0485 8.1285C19.8452 6.90262 19.7578 2.55174 21.0813 1.84333C22.4762 1.09665 23.0886 4.91916 24.761 4.62597C26.2918 4.35761 27.4127 2.4694 28.8845 2.91409C30.3754 3.36455 30.566 5.31358 31.062 6.4649C31.3705 7.18111 32.2659 7.75251 32.1931 8.49929Z" fill="url(#paint8_linear_234_26)"/>
</g>
<g filter="url(#filter8_d_234_26)">
<path fill-rule="evenodd" clip-rule="evenodd" d="M36.7977 3.97627C38.3783 4.29332 38.4595 6.20225 39.4779 7.26115C40.1269 7.93597 41.2919 8.21432 41.6537 9.02557C42.0221 9.85149 41.7262 10.7559 41.4118 11.5972C41.094 12.4478 40.7217 13.3422 39.8493 13.8546C38.9829 14.3635 37.8567 14.305 36.7977 14.3073C35.7357 14.3096 34.6861 14.2619 33.7344 13.868C32.6366 13.4136 31.7019 12.7627 31.0161 11.9143C30.1179 10.8032 28.7958 9.5798 29.2232 8.28734C29.6493 6.99873 31.6632 6.71138 32.9854 5.95886C34.2535 5.2371 35.3058 3.67702 36.7977 3.97627Z" fill="url(#paint9_linear_234_26)"/>
</g>
<defs>
<filter id="filter0_d_234_26" x="0" y="10.3083" width="48.885" height="30.4275" filterUnits="userSpaceOnUse" color-interpolation-filters="sRGB">
<feFlood flood-opacity="0" result="BackgroundImageFix"/>
<feColorMatrix in="SourceAlpha" type="matrix" values="0 0 0 0 0 0 0 0 0 0 0 0 0 0 0 0 0 0 127 0" result="hardAlpha"/>
<feOffset dy="4"/>
<feGaussianBlur stdDeviation="4"/>
<feComposite in2="hardAlpha" operator="out"/>
<feColorMatrix type="matrix" values="0 0 0 0 0 0 0 0 0 0 0 0 0 0 0 0 0 0 0.2 0"/>
<feBlend mode="normal" in2="BackgroundImageFix" result="effect1_dropShadow_234_26"/>
<feBlend mode="normal" in="SourceGraphic" in2="effect1_dropShadow_234_26" result="shape"/>
</filter>
<filter id="filter1_d_234_26" x="26.1404" y="10.7014" width="12.577" height="12.8612" filterUnits="userSpaceOnUse" color-interpolation-filters="sRGB">
<feFlood flood-opacity="0" result="BackgroundImageFix"/>
<feColorMatrix in="SourceAlpha" type="matrix" values="0 0 0 0 0 0 0 0 0 0 0 0 0 0 0 0 0 0 127 0" result="hardAlpha"/>
<feOffset dy="4"/>
<feGaussianBlur stdDeviation="1.5"/>
<feComposite in2="hardAlpha" operator="out"/>
<feColorMatrix type="matrix" values="0 0 0 0 0 0 0 0 0 0 0 0 0 0 0 0 0 0 0.15 0"/>
<feBlend mode="normal" in2="BackgroundImageFix" result="effect1_dropShadow_234_26"/>
<feBlend mode="normal" in="SourceGraphic" in2="effect1_dropShadow_234_26" result="shape"/>
</filter>
<filter id="filter2_d_234_26" x="19.2903" y="2.81055" width="20.3883" height="21.9319" filterUnits="userSpaceOnUse" color-interpolation-filters="sRGB">
<feFlood flood-opacity="0" result="BackgroundImageFix"/>
<feColorMatrix in="SourceAlpha" type="matrix" values="0 0 0 0 0 0 0 0 0 0 0 0 0 0 0 0 0 0 127 0" result="hardAlpha"/>
<feOffset dy="4"/>
<feGaussianBlur stdDeviation="1.5"/>
<feComposite in2="hardAlpha" operator="out"/>
<feColorMatrix type="matrix" values="0 0 0 0 0 0 0 0 0 0 0 0 0 0 0 0 0 0 0.15 0"/>
<feBlend mode="normal" in2="BackgroundImageFix" result="effect1_dropShadow_234_26"/>
<feBlend mode="normal" in="SourceGraphic" in2="effect1_dropShadow_234_26" result="shape"/>
</filter>
<filter id="filter3_d_234_26" x="30.5444" y="9.53503" width="14.9236" height="15.0266" filterUnits="userSpaceOnUse" color-interpolation-filters="sRGB">
<feFlood flood-opacity="0" result="BackgroundImageFix"/>
<feColorMatrix in="SourceAlpha" type="matrix" values="0 0 0 0 0 0 0 0 0 0 0 0 0 0 0 0 0 0 127 0" result="hardAlpha"/>
<feOffset dy="4"/>
<feGaussianBlur stdDeviation="1.5"/>
<feComposite in2="hardAlpha" operator="out"/>
<feColorMatrix type="matrix" values="0 0 0 0 0 0 0 0 0 0 0 0 0 0 0 0 0 0 0.15 0"/>
<feBlend mode="normal" in2="BackgroundImageFix" result="effect1_dropShadow_234_26"/>
<feBlend mode="normal" in="SourceGraphic" in2="effect1_dropShadow_234_26" result="shape"/>
</filter>
<filter id="filter4_d_234_26" x="3.89221" y="7.98547" width="15.0989" height="16.4487" filterUnits="userSpaceOnUse" color-interpolation-filters="sRGB">
<feFlood flood-opacity="0" result="BackgroundImageFix"/>
<feColorMatrix in="SourceAlpha" type="matrix" values="0 0 0 0 0 0 0 0 0 0 0 0 0 0 0 0 0 0 127 0" result="hardAlpha"/>
<feOffset dy="4"/>
<feGaussianBlur stdDeviation="1.5"/>
<feComposite in2="hardAlpha" operator="out"/>
<feColorMatrix type="matrix" values="0 0 0 0 0 0 0 0 0 0 0 0 0 0 0 0 0 0 0.15 0"/>
<feBlend mode="normal" in2="BackgroundImageFix" result="effect1_dropShadow_234_26"/>
<feBlend mode="normal" in="SourceGraphic" in2="effect1_dropShadow_234_26" result="shape"/>
</filter>
<filter id="filter5_d_234_26" x="5.37097" y="3.24072" width="18.5865" height="16.6011" filterUnits="userSpaceOnUse" color-interpolation-filters="sRGB">
<feFlood flood-opacity="0" result="BackgroundImageFix"/>
<feColorMatrix in="SourceAlpha" type="matrix" values="0 0 0 0 0 0 0 0 0 0 0 0 0 0 0 0 0 0 127 0" result="hardAlpha"/>
<feOffset dy="4"/>
<feGaussianBlur stdDeviation="1.5"/>
<feComposite in2="hardAlpha" operator="out"/>
<feColorMatrix type="matrix" values="0 0 0 0 0 0 0 0 0 0 0 0 0 0 0 0 0 0 0.15 0"/>
<feBlend mode="normal" in2="BackgroundImageFix" result="effect1_dropShadow_234_26"/>
<feBlend mode="normal" in="SourceGraphic" in2="effect1_dropShadow_234_26" result="shape"/>
</filter>
<filter id="filter6_d_234_26" x="11.6075" y="7.69751" width="15.0952" height="17.0734" filterUnits="userSpaceOnUse" color-interpolation-filters="sRGB">
<feFlood flood-opacity="0" result="BackgroundImageFix"/>
<feColorMatrix in="SourceAlpha" type="matrix" values="0 0 0 0 0 0 0 0 0 0 0 0 0 0 0 0 0 0 127 0" result="hardAlpha"/>
<feOffset dy="4"/>
<feGaussianBlur stdDeviation="1.5"/>
<feComposite in2="hardAlpha" operator="out"/>
<feColorMatrix type="matrix" values="0 0 0 0 0 0 0 0 0 0 0 0 0 0 0 0 0 0 0.15 0"/>
<feBlend mode="normal" in2="BackgroundImageFix" result="effect1_dropShadow_234_26"/>
<feBlend mode="normal" in="SourceGraphic" in2="effect1_dropShadow_234_26" result="shape"/>
</filter>
<filter id="filter7_d_234_26" x="16.9314" y="1.74646" width="18.266" height="17.5862" filterUnits="userSpaceOnUse" color-interpolation-filters="sRGB">
<feFlood flood-opacity="0" result="BackgroundImageFix"/>
<feColorMatrix in="SourceAlpha" type="matrix" values="0 0 0 0 0 0 0 0 0 0 0 0 0 0 0 0 0 0 127 0" result="hardAlpha"/>
<feOffset dy="4"/>
<feGaussianBlur stdDeviation="1.5"/>
<feComposite in2="hardAlpha" operator="out"/>
<feColorMatrix type="matrix" values="0 0 0 0 0 0 0 0 0 0 0 0 0 0 0 0 0 0 0.15 0"/>
<feBlend mode="normal" in2="BackgroundImageFix" result="effect1_dropShadow_234_26"/>
<feBlend mode="normal" in="SourceGraphic" in2="effect1_dropShadow_234_26" result="shape"/>
</filter>
<filter id="filter8_d_234_26" x="26.1404" y="3.9386" width="18.6842" height="17.3698" filterUnits="userSpaceOnUse" color-interpolation-filters="sRGB">
<feFlood flood-opacity="0" result="BackgroundImageFix"/>
<feColorMatrix in="SourceAlpha" type="matrix" values="0 0 0 0 0 0 0 0 0 0 0 0 0 0 0 0 0 0 127 0" result="hardAlpha"/>
<feOffset dy="4"/>
<feGaussianBlur stdDeviation="1.5"/>
<feComposite in2="hardAlpha" operator="out"/>
<feColorMatrix type="matrix" values="0 0 0 0 0 0 0 0 0 0 0 0 0 0 0 0 0 0 0.15 0"/>
<feBlend mode="normal" in2="BackgroundImageFix" result="effect1_dropShadow_234_26"/>
<feBlend mode="normal" in="SourceGraphic" in2="effect1_dropShadow_234_26" result="shape"/>
</filter>
<linearGradient id="paint0_linear_234_26" x1="24.4425" y1="14.3083" x2="24.4425" y2="28.7358" gradientUnits="userSpaceOnUse">
<stop stop-color="#D89A56"/>
<stop offset="1" stop-color="#B87437"/>
</linearGradient>
<linearGradient id="paint1_linear_234_26" x1="24.4425" y1="14.3083" x2="24.4425" y2="20.6204" gradientUnits="userSpaceOnUse">
<stop stop-color="#B87437"/>
<stop offset="1" stop-color="#8F5224"/>
</linearGradient>
<linearGradient id="paint2_linear_234_26" x1="32.4289" y1="10.7014" x2="32.4289" y2="16.5626" gradientUnits="userSpaceOnUse">
<stop stop-color="#7CCB7A"/>
<stop offset="1" stop-color="#4F9853"/>
</linearGradient>
<linearGradient id="paint3_linear_234_26" x1="25.0455" y1="6.68065" x2="32.9502" y2="13.763" gradientUnits="userSpaceOnUse">
<stop stop-color="#7CCB7A"/>
<stop offset="1" stop-color="#4F9853"/>
</linearGradient>
<linearGradient id="paint4_linear_234_26" x1="70.5258" y1="26.6319" x2="70.2968" y2="18.5194" gradientUnits="userSpaceOnUse">
<stop stop-color="#7CCB7A"/>
<stop offset="1" stop-color="#4F9853"/>
</linearGradient>
<linearGradient id="paint5_linear_234_26" x1="11.4232" y1="7.99727" x2="11.6077" y2="17.4636" gradientUnits="userSpaceOnUse">
<stop stop-color="#7CCB7A"/>
<stop offset="1" stop-color="#4F9853"/>
</linearGradient>
<linearGradient id="paint6_linear_234_26" x1="18.6436" y1="3.10313" x2="12.2987" y2="13.1293" gradientUnits="userSpaceOnUse">
<stop stop-color="#7CCB7A"/>
<stop offset="1" stop-color="#4F9853"/>
</linearGradient>
<linearGradient id="paint7_linear_234_26" x1="24.3442" y1="15.5345" x2="15.419" y2="9.67662" gradientUnits="userSpaceOnUse">
<stop stop-color="#7CCB7A"/>
<stop offset="1" stop-color="#4F9853"/>
</linearGradient>
<linearGradient id="paint8_linear_234_26" x1="32.2187" y1="7.78188" x2="19.8803" y2="7.37289" gradientUnits="userSpaceOnUse">
<stop stop-color="#7CCB7A"/>
<stop offset="1" stop-color="#4F9853"/>
</linearGradient>
<linearGradient id="paint9_linear_234_26" x1="35.4825" y1="3.9386" x2="35.4825" y2="14.3083" gradientUnits="userSpaceOnUse">
<stop stop-color="#7CCB7A"/>
<stop offset="1" stop-color="#4F9853"/>
</linearGradient>
</defs>
</svg>
