<svg width="600" height="500" viewBox="0 0 600 500" fill="none" xmlns="http://www.w3.org/2000/svg">
<g filter="url(#filter0_d_226_14)">
<rect x="164.246" y="451.308" width="32.885" height="14.4274" rx="7.21372" fill="url(#paint0_linear_226_14)"/>
</g>
<path d="M164.246 454.308C164.246 452.651 165.589 451.308 167.246 451.308H194.131C195.788 451.308 197.131 452.651 197.131 454.308V457.62H164.246V454.308Z" fill="url(#paint1_linear_226_14)"/>
<g filter="url(#filter1_d_226_14)">
<path fill-rule="evenodd" clip-rule="evenodd" d="M189.196 447.875C189.861 447.973 190.544 448.138 191 448.568C191.417 448.962 191.348 449.551 191.517 450.064C191.677 450.551 191.982 450.988 191.963 451.494C191.938 452.143 191.988 452.936 191.39 453.329C190.794 453.722 189.945 453.293 189.196 453.315C188.407 453.338 187.608 453.748 186.892 453.46C186.133 453.155 185.483 452.505 185.393 451.786C185.305 451.087 186.192 450.611 186.451 449.945C186.706 449.291 186.28 448.414 186.881 447.96C187.478 447.51 188.416 447.76 189.196 447.875Z" fill="url(#paint2_linear_226_14)"/>
</g>
<g filter="url(#filter2_d_226_14)">
<path fill-rule="evenodd" clip-rule="evenodd" d="M183.33 443.646C184.265 442.966 183.572 442.646 184.576 442.149C185.748 441.569 187.544 439.764 188.675 439.811C189.929 439.864 190.158 441.175 190.742 442.149C191.345 443.156 193.215 444.521 192.887 445.897C192.56 447.265 191.811 448.633 190.742 449.762C189.699 450.864 188.381 451.774 187.053 452.058C185.819 452.322 182.627 455.091 181.613 454.706C180.678 454.351 179.572 453.257 178.89 452.578C178.012 451.704 178.989 448.243 179.451 446.769C179.923 445.262 181.961 444.642 183.33 443.646Z" fill="url(#paint3_linear_226_14)"/>
</g>
<g filter="url(#filter3_d_226_14)">
<path fill-rule="evenodd" clip-rule="evenodd" d="M194.469 454.523C193.779 454.448 193.217 454.027 192.569 453.767C191.643 453.397 190.251 453.639 189.861 452.68C189.478 451.74 190.782 450.946 191.016 449.956C191.267 448.898 190.436 447.431 191.259 446.773C192.084 446.113 193.271 446.997 194.249 447.37C194.901 447.618 195.389 448.108 195.937 448.557C196.442 448.971 196.932 449.352 197.322 449.886C197.887 450.66 198.834 451.382 198.702 452.345C198.571 453.293 197.543 453.797 196.727 454.217C196.029 454.576 195.243 454.607 194.469 454.523Z" fill="url(#paint4_linear_226_14)"/>
</g>
<g filter="url(#filter4_d_226_14)">
<path fill-rule="evenodd" clip-rule="evenodd" d="M167.938 445.017C168.99 444.826 170.019 445.527 170.803 446.215C171.519 446.845 171.824 447.747 172.066 448.643C172.289 449.469 172.275 450.296 172.133 451.138C171.968 452.113 171.981 453.25 171.18 453.884C170.374 454.523 169.161 454.52 168.135 454.303C167.236 454.113 165.009 454.1 165.772 453C164.934 452.501 163.563 452.875 163.208 452C162.854 451.13 163.953 449.756 164.402 448.926C164.766 448.252 165.253 447.707 165.772 447.132C166.464 446.368 166.894 445.208 167.938 445.017Z" fill="url(#paint5_linear_226_14)"/>
</g>
<g filter="url(#filter5_d_226_14)">
<path fill-rule="evenodd" clip-rule="evenodd" d="M175.242 440.358C176.492 440.856 176.47 442.621 176.778 443.911C177.051 445.055 177.504 446.311 176.918 447.373C176.352 448.399 174.992 448.626 173.909 449.112C173.118 449.466 172.332 449.733 171.475 449.812C170.593 449.893 169.752 449.809 168.913 449.57C167.753 449.239 166.415 449.102 165.696 448.164C164.894 447.117 164.191 445.518 164.928 444.367C165.707 443.147 167.565 441.727 168.913 441.164C169.743 440.818 170.442 442.072 171.269 441.72C172.591 441.157 173.945 439.843 175.242 440.358Z" fill="url(#paint6_linear_226_14)"/>
</g>
<g filter="url(#filter6_d_226_14)">
<path fill-rule="evenodd" clip-rule="evenodd" d="M179.103 451.735C178.9 452.723 178.111 454.189 177.165 454.69C176.291 455.152 174.524 453.504 173.302 453.112C172.05 452.71 172.709 453.352 171.76 452.461C170.81 451.569 170.932 450.419 170.865 449.407C170.807 448.54 170.977 447.757 171.402 447.079C171.833 446.392 172.47 445.871 173.302 445.519C174.3 445.098 175.352 444.365 176.642 444.867C177.941 445.372 178.516 446.737 179.183 447.805C179.674 448.591 179.964 449.399 179.949 450.163C179.935 450.811 179.229 451.123 179.103 451.735Z" fill="url(#paint7_linear_226_14)"/>
</g>
<g filter="url(#filter7_d_226_14)">
<path fill-rule="evenodd" clip-rule="evenodd" d="M188.439 445.499C188.368 446.234 187.501 446.724 186.933 447.317C186.339 447.938 185.958 448.709 185.045 449.045C184.045 449.413 182.881 449.379 181.778 449.215C180.503 449.026 179.224 448.736 178.295 448.044C177.236 447.255 176.479 446.237 176.295 445.128C176.092 443.903 176.004 439.552 177.328 438.843C178.723 438.097 179.335 441.919 181.007 441.626C182.538 441.358 183.659 439.469 185.131 439.914C186.622 440.365 186.812 442.314 187.308 443.465C187.617 444.181 188.512 444.753 188.439 445.499Z" fill="url(#paint8_linear_226_14)"/>
</g>
<g filter="url(#filter8_d_226_14)">
<path fill-rule="evenodd" clip-rule="evenodd" d="M193.044 440.976C194.625 441.293 194.706 443.202 195.724 444.261C196.373 444.936 197.538 445.214 197.9 446.026C198.268 446.851 197.973 447.756 197.658 448.597C197.34 449.448 196.968 450.342 196.096 450.855C195.229 451.364 194.103 451.305 193.044 451.307C191.982 451.31 190.932 451.262 189.981 450.868C188.883 450.414 187.948 449.763 187.262 448.914C186.364 447.803 185.042 446.58 185.47 445.287C185.896 443.999 187.91 443.711 189.232 442.959C190.5 442.237 191.552 440.677 193.044 440.976Z" fill="url(#paint9_linear_226_14)"/>
</g>
<defs>
<filter id="filter0_d_226_14" x="156.246" y="447.308" width="48.885" height="30.4275" filterUnits="userSpaceOnUse" color-interpolation-filters="sRGB">
<feFlood flood-opacity="0" result="BackgroundImageFix"/>
<feColorMatrix in="SourceAlpha" type="matrix" values="0 0 0 0 0 0 0 0 0 0 0 0 0 0 0 0 0 0 127 0" result="hardAlpha"/>
<feOffset dy="4"/>
<feGaussianBlur stdDeviation="4"/>
<feComposite in2="hardAlpha" operator="out"/>
<feColorMatrix type="matrix" values="0 0 0 0 0 0 0 0 0 0 0 0 0 0 0 0 0 0 0.2 0"/>
<feBlend mode="normal" in2="BackgroundImageFix" result="effect1_dropShadow_226_14"/>
<feBlend mode="normal" in="SourceGraphic" in2="effect1_dropShadow_226_14" result="shape"/>
</filter>
<filter id="filter1_d_226_14" x="182.387" y="447.701" width="12.577" height="12.8612" filterUnits="userSpaceOnUse" color-interpolation-filters="sRGB">
<feFlood flood-opacity="0" result="BackgroundImageFix"/>
<feColorMatrix in="SourceAlpha" type="matrix" values="0 0 0 0 0 0 0 0 0 0 0 0 0 0 0 0 0 0 127 0" result="hardAlpha"/>
<feOffset dy="4"/>
<feGaussianBlur stdDeviation="1.5"/>
<feComposite in2="hardAlpha" operator="out"/>
<feColorMatrix type="matrix" values="0 0 0 0 0 0 0 0 0 0 0 0 0 0 0 0 0 0 0.15 0"/>
<feBlend mode="normal" in2="BackgroundImageFix" result="effect1_dropShadow_226_14"/>
<feBlend mode="normal" in="SourceGraphic" in2="effect1_dropShadow_226_14" result="shape"/>
</filter>
<filter id="filter2_d_226_14" x="175.537" y="439.811" width="20.3883" height="21.9319" filterUnits="userSpaceOnUse" color-interpolation-filters="sRGB">
<feFlood flood-opacity="0" result="BackgroundImageFix"/>
<feColorMatrix in="SourceAlpha" type="matrix" values="0 0 0 0 0 0 0 0 0 0 0 0 0 0 0 0 0 0 127 0" result="hardAlpha"/>
<feOffset dy="4"/>
<feGaussianBlur stdDeviation="1.5"/>
<feComposite in2="hardAlpha" operator="out"/>
<feColorMatrix type="matrix" values="0 0 0 0 0 0 0 0 0 0 0 0 0 0 0 0 0 0 0.15 0"/>
<feBlend mode="normal" in2="BackgroundImageFix" result="effect1_dropShadow_226_14"/>
<feBlend mode="normal" in="SourceGraphic" in2="effect1_dropShadow_226_14" result="shape"/>
</filter>
<filter id="filter3_d_226_14" x="186.791" y="446.535" width="14.9236" height="15.0266" filterUnits="userSpaceOnUse" color-interpolation-filters="sRGB">
<feFlood flood-opacity="0" result="BackgroundImageFix"/>
<feColorMatrix in="SourceAlpha" type="matrix" values="0 0 0 0 0 0 0 0 0 0 0 0 0 0 0 0 0 0 127 0" result="hardAlpha"/>
<feOffset dy="4"/>
<feGaussianBlur stdDeviation="1.5"/>
<feComposite in2="hardAlpha" operator="out"/>
<feColorMatrix type="matrix" values="0 0 0 0 0 0 0 0 0 0 0 0 0 0 0 0 0 0 0.15 0"/>
<feBlend mode="normal" in2="BackgroundImageFix" result="effect1_dropShadow_226_14"/>
<feBlend mode="normal" in="SourceGraphic" in2="effect1_dropShadow_226_14" result="shape"/>
</filter>
<filter id="filter4_d_226_14" x="160.139" y="444.985" width="15.0989" height="16.4487" filterUnits="userSpaceOnUse" color-interpolation-filters="sRGB">
<feFlood flood-opacity="0" result="BackgroundImageFix"/>
<feColorMatrix in="SourceAlpha" type="matrix" values="0 0 0 0 0 0 0 0 0 0 0 0 0 0 0 0 0 0 127 0" result="hardAlpha"/>
<feOffset dy="4"/>
<feGaussianBlur stdDeviation="1.5"/>
<feComposite in2="hardAlpha" operator="out"/>
<feColorMatrix type="matrix" values="0 0 0 0 0 0 0 0 0 0 0 0 0 0 0 0 0 0 0.15 0"/>
<feBlend mode="normal" in2="BackgroundImageFix" result="effect1_dropShadow_226_14"/>
<feBlend mode="normal" in="SourceGraphic" in2="effect1_dropShadow_226_14" result="shape"/>
</filter>
<filter id="filter5_d_226_14" x="161.617" y="440.241" width="18.5865" height="16.6011" filterUnits="userSpaceOnUse" color-interpolation-filters="sRGB">
<feFlood flood-opacity="0" result="BackgroundImageFix"/>
<feColorMatrix in="SourceAlpha" type="matrix" values="0 0 0 0 0 0 0 0 0 0 0 0 0 0 0 0 0 0 127 0" result="hardAlpha"/>
<feOffset dy="4"/>
<feGaussianBlur stdDeviation="1.5"/>
<feComposite in2="hardAlpha" operator="out"/>
<feColorMatrix type="matrix" values="0 0 0 0 0 0 0 0 0 0 0 0 0 0 0 0 0 0 0.15 0"/>
<feBlend mode="normal" in2="BackgroundImageFix" result="effect1_dropShadow_226_14"/>
<feBlend mode="normal" in="SourceGraphic" in2="effect1_dropShadow_226_14" result="shape"/>
</filter>
<filter id="filter6_d_226_14" x="167.854" y="444.698" width="15.0952" height="17.0734" filterUnits="userSpaceOnUse" color-interpolation-filters="sRGB">
<feFlood flood-opacity="0" result="BackgroundImageFix"/>
<feColorMatrix in="SourceAlpha" type="matrix" values="0 0 0 0 0 0 0 0 0 0 0 0 0 0 0 0 0 0 127 0" result="hardAlpha"/>
<feOffset dy="4"/>
<feGaussianBlur stdDeviation="1.5"/>
<feComposite in2="hardAlpha" operator="out"/>
<feColorMatrix type="matrix" values="0 0 0 0 0 0 0 0 0 0 0 0 0 0 0 0 0 0 0.15 0"/>
<feBlend mode="normal" in2="BackgroundImageFix" result="effect1_dropShadow_226_14"/>
<feBlend mode="normal" in="SourceGraphic" in2="effect1_dropShadow_226_14" result="shape"/>
</filter>
<filter id="filter7_d_226_14" x="173.178" y="438.746" width="18.266" height="17.5862" filterUnits="userSpaceOnUse" color-interpolation-filters="sRGB">
<feFlood flood-opacity="0" result="BackgroundImageFix"/>
<feColorMatrix in="SourceAlpha" type="matrix" values="0 0 0 0 0 0 0 0 0 0 0 0 0 0 0 0 0 0 127 0" result="hardAlpha"/>
<feOffset dy="4"/>
<feGaussianBlur stdDeviation="1.5"/>
<feComposite in2="hardAlpha" operator="out"/>
<feColorMatrix type="matrix" values="0 0 0 0 0 0 0 0 0 0 0 0 0 0 0 0 0 0 0.15 0"/>
<feBlend mode="normal" in2="BackgroundImageFix" result="effect1_dropShadow_226_14"/>
<feBlend mode="normal" in="SourceGraphic" in2="effect1_dropShadow_226_14" result="shape"/>
</filter>
<filter id="filter8_d_226_14" x="182.387" y="440.939" width="18.6842" height="17.3698" filterUnits="userSpaceOnUse" color-interpolation-filters="sRGB">
<feFlood flood-opacity="0" result="BackgroundImageFix"/>
<feColorMatrix in="SourceAlpha" type="matrix" values="0 0 0 0 0 0 0 0 0 0 0 0 0 0 0 0 0 0 127 0" result="hardAlpha"/>
<feOffset dy="4"/>
<feGaussianBlur stdDeviation="1.5"/>
<feComposite in2="hardAlpha" operator="out"/>
<feColorMatrix type="matrix" values="0 0 0 0 0 0 0 0 0 0 0 0 0 0 0 0 0 0 0.15 0"/>
<feBlend mode="normal" in2="BackgroundImageFix" result="effect1_dropShadow_226_14"/>
<feBlend mode="normal" in="SourceGraphic" in2="effect1_dropShadow_226_14" result="shape"/>
</filter>
<linearGradient id="paint0_linear_226_14" x1="180.689" y1="451.308" x2="180.689" y2="465.736" gradientUnits="userSpaceOnUse">
<stop stop-color="#D89A56"/>
<stop offset="1" stop-color="#B87437"/>
</linearGradient>
<linearGradient id="paint1_linear_226_14" x1="180.689" y1="451.308" x2="180.689" y2="457.62" gradientUnits="userSpaceOnUse">
<stop stop-color="#B87437"/>
<stop offset="1" stop-color="#8F5224"/>
</linearGradient>
<linearGradient id="paint2_linear_226_14" x1="188.675" y1="447.701" x2="188.675" y2="453.563" gradientUnits="userSpaceOnUse">
<stop stop-color="#7CCB7A"/>
<stop offset="1" stop-color="#4F9853"/>
</linearGradient>
<linearGradient id="paint3_linear_226_14" x1="181.292" y1="443.681" x2="189.197" y2="450.763" gradientUnits="userSpaceOnUse">
<stop stop-color="#7CCB7A"/>
<stop offset="1" stop-color="#4F9853"/>
</linearGradient>
<linearGradient id="paint4_linear_226_14" x1="226.772" y1="463.632" x2="226.543" y2="455.519" gradientUnits="userSpaceOnUse">
<stop stop-color="#7CCB7A"/>
<stop offset="1" stop-color="#4F9853"/>
</linearGradient>
<linearGradient id="paint5_linear_226_14" x1="167.67" y1="444.997" x2="167.854" y2="454.464" gradientUnits="userSpaceOnUse">
<stop stop-color="#7CCB7A"/>
<stop offset="1" stop-color="#4F9853"/>
</linearGradient>
<linearGradient id="paint6_linear_226_14" x1="174.89" y1="440.103" x2="168.545" y2="450.129" gradientUnits="userSpaceOnUse">
<stop stop-color="#7CCB7A"/>
<stop offset="1" stop-color="#4F9853"/>
</linearGradient>
<linearGradient id="paint7_linear_226_14" x1="180.59" y1="452.534" x2="171.665" y2="446.677" gradientUnits="userSpaceOnUse">
<stop stop-color="#7CCB7A"/>
<stop offset="1" stop-color="#4F9853"/>
</linearGradient>
<linearGradient id="paint8_linear_226_14" x1="188.465" y1="444.782" x2="176.127" y2="444.373" gradientUnits="userSpaceOnUse">
<stop stop-color="#7CCB7A"/>
<stop offset="1" stop-color="#4F9853"/>
</linearGradient>
<linearGradient id="paint9_linear_226_14" x1="191.729" y1="440.939" x2="191.729" y2="451.308" gradientUnits="userSpaceOnUse">
<stop stop-color="#7CCB7A"/>
<stop offset="1" stop-color="#4F9853"/>
</linearGradient>
</defs>
</svg>
