<svg width="1080" height="200" viewBox="0 0 1080 200" fill="none" xmlns="http://www.w3.org/2000/svg">
<rect y="160" width="1080" height="40" fill="#DCDCDC"/>
<path d="M924 160V190" stroke="#B0B0B0"/>
<path d="M974 160V190" stroke="#B0B0B0"/>
<path d="M1025 160V190" stroke="#B0B0B0"/>
<path d="M1075 160V190" stroke="#B0B0B0"/>
<path d="M874 160V190" stroke="#B0B0B0"/>
<g filter="url(#filter0_i_113_18)">
<rect y="190" width="1080" height="10" fill="#A9A9A9"/>
</g>
<path d="M48 160V190" stroke="#B0B0B0"/>
<path d="M207 160V190" stroke="#B0B0B0"/>
<path d="M366 160V190" stroke="#B0B0B0"/>
<path d="M569 160V190" stroke="#B0B0B0"/>
<path d="M670 160V190" stroke="#B0B0B0"/>
<path d="M720 160V190" stroke="#B0B0B0"/>
<path d="M769 160V190" stroke="#B0B0B0"/>
<path d="M822 160V190" stroke="#B0B0B0"/>
<path d="M620 160V190" stroke="#B0B0B0"/>
<path d="M520 160V190" stroke="#B0B0B0"/>
<path d="M469 160V190" stroke="#B0B0B0"/>
<path d="M418 160V190" stroke="#B0B0B0"/>
<path d="M310 160V190" stroke="#B0B0B0"/>
<path d="M258 160V190" stroke="#B0B0B0"/>
<path d="M155 160V190" stroke="#B0B0B0"/>
<path d="M101 160V190" stroke="#B0B0B0"/>
<defs>
<filter id="filter0_i_113_18" x="0" y="190" width="1080" height="12" filterUnits="userSpaceOnUse" color-interpolation-filters="sRGB">
<feFlood flood-opacity="0" result="BackgroundImageFix"/>
<feBlend mode="normal" in="SourceGraphic" in2="BackgroundImageFix" result="shape"/>
<feColorMatrix in="SourceAlpha" type="matrix" values="0 0 0 0 0 0 0 0 0 0 0 0 0 0 0 0 0 0 127 0" result="hardAlpha"/>
<feOffset dy="2"/>
<feGaussianBlur stdDeviation="2"/>
<feComposite in2="hardAlpha" operator="arithmetic" k2="-1" k3="1"/>
<feColorMatrix type="matrix" values="0 0 0 0 0 0 0 0 0 0 0 0 0 0 0 0 0 0 0.2 0"/>
<feBlend mode="normal" in2="shape" result="effect1_innerShadow_113_18"/>
</filter>
</defs>
</svg>
